var fontJSON1 =
{"glyphs":{"0":{"ha":1219,"x_min":3,"x_max":1076,"o":"m 909 1163 l 920 1163 q 942 1135 942 1152 q 920 1085 942 1120 l 925 1085 q 959 1113 925 1092 l 987 1113 q 1009 1074 1009 1103 q 959 1023 1009 1068 l 964 1023 q 1021 1046 1004 1046 l 1043 1046 q 1059 1012 1059 1040 l 1059 1006 q 1026 984 1050 984 l 1026 979 q 1076 962 1076 975 l 1076 939 q 1059 922 1076 931 l 1031 922 q 931 867 967 922 q 886 800 886 859 q 791 665 850 712 q 758 498 791 564 l 702 498 q 696 481 702 492 q 763 403 696 468 q 897 246 773 374 q 964 174 918 210 l 964 145 q 947 134 964 134 q 1031 50 1031 83 l 1031 17 q 942 0 990 0 l 937 0 q 791 73 791 19 q 797 90 797 83 q 758 174 765 90 q 724 269 727 223 q 730 286 730 279 q 629 369 710 286 l 585 369 l 534 330 l 528 330 q 573 374 528 334 l 573 380 l 489 425 q 444 363 444 386 l 444 336 q 506 313 444 319 q 523 330 506 321 l 528 330 q 506 302 506 305 q 568 257 543 302 l 568 252 q 461 302 532 302 l 433 302 q 422 347 422 332 l 416 347 l 416 319 q 444 279 431 283 q 450 286 444 286 l 450 279 l 444 269 q 517 162 444 183 q 523 168 523 162 q 545 184 523 176 l 573 179 l 590 207 l 590 212 l 568 246 l 568 252 q 623 184 597 228 l 606 157 q 623 123 623 151 l 623 84 q 534 67 623 67 l 461 67 q 399 90 399 67 q 456 140 399 132 l 456 145 l 444 162 l 444 174 l 450 207 q 406 319 435 276 l 406 363 q 428 386 406 372 q 439 374 429 374 q 489 436 439 397 q 478 448 478 436 l 478 458 l 489 475 q 478 498 478 475 l 439 492 l 433 492 q 361 559 402 492 q 299 576 338 559 q 254 604 276 576 l 260 615 q 249 632 254 632 l 260 693 q 237 727 260 699 l 237 732 l 243 744 q 215 732 225 732 l 210 732 l 210 738 q 266 800 247 738 l 277 794 q 288 822 288 794 l 294 822 l 294 800 q 349 872 345 872 l 349 867 q 299 789 338 844 q 327 772 313 789 q 316 732 316 743 l 310 732 l 310 744 l 316 777 l 304 777 l 294 772 q 282 789 294 789 q 271 777 271 787 q 277 760 277 766 l 271 749 q 277 732 277 739 l 266 732 q 249 755 266 755 l 249 749 q 254 744 249 744 l 249 732 l 249 727 l 254 727 l 266 732 l 266 727 q 260 710 260 716 q 304 732 283 732 q 349 671 309 732 q 377 715 359 715 q 366 772 371 725 q 506 939 366 890 l 511 973 l 511 996 q 495 1012 511 1003 q 411 951 433 1012 q 361 889 366 889 l 361 895 l 406 962 q 399 967 399 962 q 461 1040 414 967 q 428 1101 428 1076 l 389 1101 q 377 1113 377 1101 q 428 1124 404 1124 q 478 1090 456 1113 l 489 1096 l 500 1096 q 523 1085 514 1085 q 568 1090 563 1090 l 578 1074 l 578 1068 l 556 1068 q 489 1034 556 1050 q 467 1040 479 1040 q 450 1012 467 1030 l 489 1018 l 500 1018 q 523 989 509 1018 l 511 934 l 528 934 l 585 928 l 590 956 l 578 951 l 573 951 q 585 962 575 962 l 590 962 q 601 951 601 960 q 590 922 590 932 q 673 850 626 912 q 730 833 686 850 l 791 900 l 741 900 q 685 928 697 900 l 685 951 q 707 973 685 960 l 785 973 l 785 967 q 747 962 764 962 l 752 951 l 752 922 l 747 911 l 814 911 l 814 906 l 802 906 l 802 895 q 847 889 833 889 l 847 884 l 814 884 q 842 856 814 876 l 864 856 q 875 867 875 856 q 869 872 869 867 l 897 867 l 903 867 q 954 906 954 899 q 920 945 920 942 l 925 945 q 964 911 962 911 l 970 911 q 830 1006 918 979 q 814 1029 830 1029 q 897 967 814 989 q 914 951 914 954 l 909 951 q 814 1006 816 988 l 814 1018 l 808 1018 l 797 979 l 825 928 q 819 911 819 918 l 814 911 q 785 979 814 945 q 830 1057 810 1057 q 909 1163 869 1163 m 875 1124 l 875 1118 q 897 1096 875 1109 l 909 1096 q 931 1124 916 1097 l 931 1135 q 914 1152 931 1143 l 903 1152 q 875 1124 895 1152 m 864 1113 q 836 1057 864 1099 l 836 1046 l 847 1051 l 847 1046 l 842 1012 l 842 1006 l 869 1001 q 909 1090 869 1014 l 903 1090 q 864 1113 886 1090 m 439 1090 l 439 1085 q 500 1046 463 1046 q 545 1068 545 1056 l 545 1074 l 523 1074 l 495 1051 l 489 1051 q 473 1085 481 1051 l 450 1101 q 439 1090 439 1100 m 947 1096 l 947 1085 q 964 1051 951 1051 l 976 1051 q 998 1074 985 1051 l 998 1079 q 976 1101 998 1088 l 947 1096 m 355 1085 q 366 1074 366 1083 l 366 1068 q 355 1079 355 1068 l 355 1085 m 489 1079 l 489 1063 q 506 1068 500 1068 q 495 1079 506 1079 l 489 1079 m 886 1029 l 892 1029 q 914 1051 892 1038 l 920 1051 l 875 1001 q 909 984 880 984 l 964 1046 q 942 1079 942 1046 l 937 1079 q 886 1029 918 1073 m 332 1068 l 344 1068 q 316 1051 344 1055 q 332 1068 316 1059 m 406 1068 q 366 1046 406 1057 q 406 1068 375 1068 m 310 1051 l 316 1051 q 304 1040 316 1040 l 299 1040 q 310 1051 301 1051 m 428 1046 l 433 1046 l 433 1040 l 411 1034 l 406 1034 l 406 1040 q 428 1046 408 1040 m 601 1046 l 606 1046 l 606 1023 l 612 1023 l 612 1040 l 618 1040 l 618 996 q 606 973 606 996 l 601 973 l 601 1046 m 294 1040 l 299 1040 q 288 1029 299 1029 l 282 1029 q 294 1040 284 1040 m 349 1040 l 355 1040 l 361 1018 q 338 1029 347 1029 q 349 1040 340 1040 m 1004 1012 q 1021 989 1012 989 l 1026 989 q 1048 1018 1048 1001 q 1043 1034 1043 1029 l 1021 1034 q 1004 1012 1006 1034 m 406 1034 q 377 1018 406 1022 q 406 1034 377 1030 m 517 1034 q 534 1006 530 1034 l 534 967 l 528 967 q 517 1034 528 1008 m 920 984 q 925 979 925 984 q 920 973 920 979 l 942 956 q 1009 984 987 984 l 998 1001 l 998 1029 l 992 1029 q 920 984 920 995 m 277 1029 l 282 1029 q 271 1018 282 1018 l 266 1018 q 277 1029 267 1029 m 332 1029 l 338 1029 q 327 1018 338 1018 l 321 1018 q 332 1029 323 1029 m 573 1029 l 578 1029 q 562 1012 578 1021 l 562 1018 q 573 1029 564 1029 m 316 1018 l 321 1018 q 310 1006 321 1006 l 304 1006 q 316 1018 307 1018 m 377 1018 q 349 996 377 1010 l 344 996 q 377 1018 355 1018 m 422 1012 l 428 1012 l 428 1006 q 344 967 421 1006 q 422 1012 398 1012 m 299 1006 l 304 1006 q 288 989 304 998 l 282 989 q 299 1006 282 998 m 937 996 l 942 996 q 931 984 942 984 l 925 984 q 937 996 927 996 m 237 984 l 243 984 q 232 973 243 973 l 227 973 q 237 984 228 984 m 260 984 l 266 984 q 254 973 266 973 l 249 973 q 260 984 250 984 m 959 962 l 959 956 l 976 956 l 976 951 q 959 945 959 951 l 970 922 q 1021 928 991 928 l 1015 939 l 1015 956 l 1021 967 l 1015 967 l 959 962 m 1021 951 q 1037 928 1029 928 q 1071 945 1057 928 q 1037 967 1065 967 l 1021 951 m 338 967 l 344 967 q 327 951 344 960 l 321 951 q 338 967 321 959 m 489 967 l 495 967 l 495 939 l 489 939 l 489 967 m 696 945 l 696 934 q 718 911 696 925 l 730 911 q 747 928 738 911 l 747 934 l 741 962 l 713 962 q 696 945 705 962 m 266 962 l 271 962 q 249 939 271 953 l 243 939 q 266 962 243 948 m 316 951 l 321 951 q 304 934 321 943 l 299 934 q 316 951 299 942 m 377 951 q 349 928 377 943 l 344 928 q 377 951 355 951 m 182 934 l 187 934 q 170 917 187 926 l 170 922 q 182 934 172 934 m 294 934 l 299 934 q 271 906 299 926 l 266 906 q 294 934 266 913 m 489 911 l 484 911 l 489 922 q 377 760 377 879 l 377 749 l 383 710 l 394 715 l 399 715 l 394 705 q 439 727 439 716 l 439 738 q 399 715 414 715 q 433 755 418 755 l 433 772 l 439 839 l 444 839 l 444 822 q 439 766 439 793 l 450 766 q 478 889 450 789 l 484 889 l 484 872 l 489 872 l 500 878 l 495 889 l 495 895 l 506 889 l 506 895 l 495 900 q 484 889 495 889 l 484 895 q 517 911 489 911 l 528 911 q 595 878 576 911 l 595 872 l 585 856 l 590 833 l 590 827 l 585 827 q 551 844 585 844 l 551 861 q 568 872 551 872 l 562 884 q 568 889 568 884 l 528 895 l 523 895 q 551 872 523 886 q 528 844 540 847 l 523 844 l 528 856 q 517 872 517 856 l 511 872 l 511 861 q 517 856 517 861 l 506 856 l 506 872 q 478 794 495 872 q 489 760 489 771 q 473 794 473 766 q 484 839 473 819 l 478 850 q 484 867 484 861 q 473 856 473 865 l 473 850 q 478 844 473 844 q 444 722 467 819 q 495 755 495 736 l 506 749 q 545 760 528 760 l 540 772 l 551 777 l 556 766 l 568 772 l 573 772 q 534 738 573 766 l 534 744 q 461 715 474 715 q 456 722 461 722 l 456 715 q 461 710 461 715 q 428 632 437 710 l 416 632 l 422 643 l 416 643 q 406 632 406 642 l 416 632 l 416 626 q 389 610 389 623 l 389 587 l 406 587 q 473 610 433 587 q 489 604 484 604 q 545 715 507 604 q 590 766 549 715 l 585 766 q 540 722 585 759 l 540 727 l 578 772 q 573 777 573 772 l 578 777 l 590 772 q 578 822 585 781 l 578 827 l 585 827 l 590 794 l 595 794 q 623 833 595 813 q 528 928 623 928 q 489 911 514 928 m 227 928 l 232 928 q 187 884 232 921 l 187 889 q 227 928 187 897 m 338 928 l 344 928 q 332 917 344 917 l 327 917 q 338 928 329 928 m 316 911 l 321 911 q 310 900 321 900 l 304 900 q 316 911 307 911 m 511 906 l 511 900 l 545 900 l 545 906 l 511 906 m 182 906 l 182 900 q 159 878 182 892 l 159 884 q 182 906 159 892 m 478 906 l 478 900 q 467 889 478 889 l 467 895 q 478 906 469 906 m 612 900 q 635 817 623 884 l 640 817 q 651 827 642 827 l 651 822 q 635 805 651 805 l 635 783 l 646 783 q 668 811 646 811 l 668 833 l 663 833 l 651 827 l 651 833 q 657 850 657 844 q 612 900 657 863 m 254 900 l 260 900 q 204 844 260 893 l 204 850 q 254 900 204 857 m 294 895 l 299 895 q 266 861 299 887 l 260 861 q 294 895 260 869 m 797 889 q 763 811 763 859 q 774 749 774 752 l 774 744 l 769 744 l 763 783 l 758 783 q 730 693 748 693 l 730 688 q 741 677 731 677 l 774 677 q 825 710 805 677 q 819 715 819 710 q 886 850 851 715 l 886 856 l 880 856 l 864 844 l 852 844 q 802 889 802 853 l 797 889 m 361 889 l 361 884 q 349 872 361 872 l 349 878 q 361 889 351 889 m 456 884 l 461 884 l 461 872 q 456 856 456 861 l 450 856 l 450 867 q 456 884 456 878 m 433 878 l 444 878 q 411 783 411 816 l 394 783 l 394 789 q 433 878 394 806 m 176 872 l 176 861 l 165 839 l 170 839 q 176 844 170 844 l 176 833 l 204 844 l 204 839 q 182 817 204 830 l 182 827 q 170 811 170 827 l 165 811 l 159 833 q 137 811 151 833 l 137 805 l 154 817 l 154 811 l 142 794 l 148 794 q 165 811 148 802 q 170 805 165 805 q 176 811 170 811 l 176 805 q 165 794 176 794 q 159 800 165 800 q 125 777 159 790 q 120 783 125 783 q 115 777 120 777 l 115 783 q 125 794 116 794 q 132 789 125 789 l 132 794 l 125 794 l 132 805 q 125 822 125 816 l 176 872 m 148 867 l 148 861 q 132 844 148 853 l 132 850 q 148 867 132 858 m 556 861 l 556 856 l 568 850 l 578 850 l 578 856 q 556 861 566 856 m 249 861 l 260 861 q 254 839 254 851 l 243 844 q 249 861 249 855 m 758 850 l 741 827 q 752 811 752 827 l 758 811 q 763 850 758 843 l 758 850 m 673 839 q 707 794 673 810 l 713 794 l 718 827 q 673 839 695 839 m 120 839 l 125 839 l 125 833 q 58 749 112 802 l 58 755 q 120 839 71 785 m 254 839 l 260 839 l 260 817 l 254 817 l 254 839 m 528 839 l 562 839 l 562 827 l 540 827 q 528 839 528 827 m 724 811 l 735 794 l 735 755 q 730 705 735 734 l 730 699 l 735 699 q 752 789 748 789 q 747 822 747 797 l 735 822 q 724 811 724 820 m 338 822 l 338 817 q 310 789 338 809 l 310 794 q 338 822 310 802 m 517 822 q 528 811 528 820 l 528 800 q 517 811 517 800 l 517 822 m 545 822 l 556 817 l 568 822 l 568 817 q 562 800 562 806 l 556 800 q 545 811 556 811 l 545 822 m 612 817 l 601 800 l 601 789 l 606 789 l 606 805 l 612 805 l 612 794 l 618 794 q 629 817 618 803 l 623 817 q 618 811 623 811 q 612 817 618 817 m 125 811 l 125 805 q 109 789 125 797 l 109 794 q 125 811 109 802 m 528 800 l 556 800 l 562 789 l 528 794 l 528 800 m 651 777 l 680 777 l 690 794 l 668 794 q 651 777 660 794 m 680 766 l 685 755 q 680 738 680 744 q 724 705 691 705 l 724 732 l 730 744 l 724 744 l 730 755 l 730 766 l 724 777 q 690 766 701 766 q 730 783 690 779 l 730 789 l 713 789 q 680 766 701 785 m 109 789 l 109 783 q 98 772 109 772 l 98 777 q 109 789 100 789 m 115 777 q 120 772 115 772 q 125 777 120 777 l 125 772 q 115 760 125 760 q 109 766 115 766 l 103 755 l 109 755 q 115 760 109 760 l 120 749 l 120 744 l 109 749 q 103 744 109 744 q 98 749 103 749 q 81 727 90 727 l 81 732 l 87 744 l 81 744 q 64 722 73 722 l 64 727 q 98 772 85 768 q 103 766 98 766 q 115 777 105 777 m 394 777 l 411 777 l 411 766 l 394 766 l 394 777 m 590 749 q 595 744 595 749 q 578 727 587 744 l 585 727 l 601 749 q 595 755 595 749 q 635 766 612 766 l 635 772 l 618 772 q 590 749 592 761 m 299 772 l 304 772 l 304 749 l 299 749 l 299 772 m 663 766 l 663 760 q 668 755 668 760 l 646 738 l 646 744 l 651 755 l 640 749 l 618 760 l 618 755 q 623 749 623 755 q 578 693 578 731 l 578 677 q 646 610 578 610 l 657 610 q 668 621 668 610 l 668 626 l 640 626 q 595 693 595 650 q 629 749 611 749 l 635 749 q 606 699 606 720 l 606 693 q 663 632 618 632 l 673 632 q 735 671 708 632 q 707 699 715 699 q 668 755 668 715 q 673 760 673 755 l 663 766 m 774 744 l 780 744 q 819 710 780 720 l 819 705 l 802 705 q 774 738 774 721 l 774 744 m 53 738 l 53 732 q 42 722 53 722 l 42 727 q 53 738 43 738 m 640 738 l 646 738 q 657 705 646 718 l 651 705 q 640 722 640 705 l 640 738 m 528 732 l 528 727 q 517 715 528 715 l 517 722 q 528 732 519 732 m 81 727 l 81 722 q 64 699 73 699 l 64 705 q 81 727 73 727 m 260 648 l 266 648 q 271 654 266 654 l 271 648 q 266 632 271 643 q 282 587 271 587 l 310 587 l 310 593 q 282 610 296 593 q 288 632 288 619 l 294 632 l 294 604 l 304 604 q 327 654 304 627 l 321 665 l 327 665 l 338 660 l 338 665 l 321 677 l 304 677 q 282 637 294 637 l 282 643 q 310 682 296 682 l 310 688 l 299 688 q 277 665 299 679 l 277 671 q 316 699 281 688 q 321 693 316 693 l 321 699 q 310 722 310 713 l 288 722 q 260 648 269 722 m 573 722 l 568 710 l 568 705 l 573 705 q 578 722 573 711 l 573 722 m 64 722 l 64 715 q 36 660 36 668 l 31 660 l 31 671 q 64 722 54 720 m 506 722 l 506 705 l 495 705 l 500 715 q 484 710 490 710 l 478 710 l 478 715 l 506 722 m 540 722 l 540 715 q 484 610 495 612 l 478 610 q 517 693 495 628 q 540 722 534 722 m 556 715 q 500 593 517 610 q 618 565 581 565 l 651 565 l 651 587 l 640 587 q 551 677 551 598 q 562 715 551 688 l 556 715 m 372 710 l 361 671 l 372 665 q 377 705 372 697 l 377 710 l 372 710 m 416 705 l 416 699 l 439 699 l 439 710 q 416 705 429 705 m 473 710 l 478 710 l 478 705 l 467 705 l 467 699 l 478 699 l 478 693 l 450 688 l 450 699 l 461 693 l 461 699 q 456 705 456 699 q 473 710 467 710 m 562 699 l 562 665 q 623 598 581 598 l 635 598 l 635 604 q 568 699 568 604 l 562 699 m 657 705 l 663 705 l 713 693 l 713 688 l 707 688 l 657 699 l 657 705 m 98 699 l 98 693 q 70 632 70 651 l 58 637 q 31 615 47 615 l 31 610 q 36 604 31 604 l 31 593 l 31 587 l 47 598 l 47 593 l 25 570 q 31 565 31 570 q 25 559 25 565 l 36 565 l 47 559 q 53 598 47 576 q 36 604 42 604 q 47 615 38 615 q 53 610 47 610 q 58 632 58 619 l 64 632 l 64 621 q 53 553 53 576 q 58 537 58 543 q 47 553 47 537 l 42 553 q 31 531 42 545 l 31 526 l 47 537 l 64 515 l 64 509 q 47 526 47 509 q 36 515 36 524 q 42 498 42 504 q 36 492 36 498 l 42 492 q 58 509 42 500 l 58 503 l 53 492 l 103 492 l 103 486 q 53 481 83 486 q 3 543 7 481 l 3 565 q 25 660 3 604 l 31 660 l 31 643 q 25 637 25 643 l 31 637 q 36 643 31 643 l 36 637 l 25 621 q 58 648 48 629 l 53 648 q 36 643 42 643 q 47 654 38 654 l 58 654 l 70 648 q 98 699 81 699 m 383 682 q 377 688 383 688 l 377 682 q 389 671 389 680 l 399 677 l 406 677 l 399 665 l 399 648 l 406 648 q 433 682 406 682 l 433 693 l 428 693 q 383 682 411 693 m 495 682 l 495 660 l 489 660 l 489 677 q 478 665 478 675 q 489 654 489 664 q 478 626 478 636 l 467 626 q 473 632 467 632 l 467 665 l 450 665 l 450 637 q 467 626 450 626 l 467 621 l 450 621 q 439 654 439 639 l 439 660 q 495 682 439 675 m 316 671 l 321 671 q 304 654 321 663 l 304 660 q 316 671 307 671 m 747 665 l 747 648 l 758 648 l 758 665 l 747 665 m 763 665 l 763 570 l 774 570 q 780 654 780 626 l 780 665 l 763 665 m 690 665 l 702 665 l 702 648 l 680 648 l 680 654 q 690 665 681 665 m 310 615 q 332 570 317 573 l 366 570 q 344 654 344 600 q 310 615 334 654 m 735 654 q 724 593 730 642 q 730 543 730 572 l 735 543 l 735 621 q 741 626 735 626 l 735 637 l 735 643 l 741 654 l 735 654 m 109 654 l 109 648 q 87 553 87 597 l 81 553 l 81 576 q 109 654 94 654 m 299 654 l 304 654 l 304 637 l 294 632 l 294 637 q 299 654 299 648 m 383 648 l 383 632 l 394 626 l 399 626 l 399 632 q 389 648 389 632 l 383 648 m 685 610 l 685 615 q 640 604 668 604 l 640 598 l 668 598 l 668 593 l 657 593 l 657 565 q 724 643 707 565 q 685 610 717 643 m 747 643 l 747 598 l 752 598 q 758 626 752 617 l 752 626 l 758 637 l 758 643 l 747 643 m 366 632 q 355 610 366 623 q 383 576 366 579 l 383 582 l 377 582 l 383 593 l 383 615 q 366 632 383 623 m 243 632 l 249 632 q 215 610 237 610 q 243 632 216 617 m 14 615 l 8 559 l 8 543 q 31 503 8 512 q 14 526 28 526 q 20 570 14 530 l 14 582 q 25 615 25 600 l 14 615 m 327 621 l 332 621 l 344 615 q 338 598 338 604 l 327 598 l 327 621 m 215 610 q 187 593 215 597 l 182 593 l 182 598 l 215 610 m 70 604 l 75 604 l 75 593 l 70 565 q 75 548 75 554 q 64 559 64 548 l 64 565 l 70 604 m 249 604 l 254 604 q 237 587 254 596 l 232 587 q 249 604 232 595 m 456 587 l 456 582 l 461 570 l 456 570 q 450 576 450 570 l 439 570 l 428 570 l 389 576 l 383 565 q 399 515 383 555 q 422 526 414 526 q 606 503 457 526 l 640 509 l 640 520 l 629 520 q 461 570 531 520 l 467 570 q 612 531 542 531 l 640 531 q 651 543 651 531 l 651 559 l 640 559 l 640 537 l 623 537 l 623 548 l 635 543 l 635 548 q 629 553 629 548 q 635 559 635 553 q 629 553 629 559 q 478 593 549 565 l 456 587 m 741 582 l 741 565 l 752 565 l 752 593 q 741 582 741 591 m 215 593 l 221 593 q 210 582 221 582 l 204 582 q 215 593 205 593 m 657 559 l 657 537 l 663 537 q 713 576 701 553 l 713 587 q 657 559 681 559 m 227 587 l 232 587 q 221 576 232 576 l 215 576 q 227 587 217 587 m 204 582 l 199 570 l 210 576 l 215 576 q 199 565 215 565 l 199 559 l 215 559 q 243 576 215 572 q 199 548 218 548 l 187 565 q 193 570 193 565 q 165 559 175 559 l 159 559 l 159 565 l 204 582 m 718 576 q 707 553 718 567 l 707 548 l 724 548 l 724 576 l 718 576 m 249 570 l 254 570 q 237 553 254 562 l 232 553 q 249 570 232 562 m 763 559 l 758 531 l 758 526 l 763 526 l 769 553 l 769 559 l 763 559 m 31 553 l 20 537 l 25 537 l 36 553 l 31 553 m 176 559 l 187 559 q 199 543 187 550 q 176 515 188 517 l 165 515 q 159 531 165 520 q 182 548 182 540 l 176 559 m 232 553 q 204 537 232 541 q 232 553 204 549 m 182 537 l 170 520 l 176 520 l 187 537 l 182 537 m 125 537 l 125 531 q 115 520 125 520 l 115 526 q 125 537 116 537 m 646 515 l 651 515 q 673 531 673 523 l 668 531 q 646 515 646 523 m 635 470 q 640 464 640 470 l 618 458 l 618 464 l 657 509 q 618 481 652 509 l 612 481 l 623 498 l 618 498 q 601 486 618 486 l 606 448 l 606 441 l 601 431 q 606 425 606 431 l 590 425 l 595 453 l 595 475 l 578 475 l 578 470 l 590 470 l 590 464 l 568 458 l 573 470 l 568 470 q 556 458 556 468 q 568 448 568 457 l 568 419 l 573 419 q 590 425 584 425 q 573 408 590 417 l 568 408 l 556 414 l 551 403 l 551 397 q 618 374 593 374 l 623 374 l 612 391 q 651 448 633 448 l 651 441 q 629 397 629 410 q 730 296 699 296 q 741 363 735 306 l 774 363 q 673 458 713 458 l 657 448 l 651 448 q 690 470 661 470 l 690 481 l 680 481 q 606 431 619 431 l 646 470 q 640 475 640 470 q 696 526 690 499 l 690 526 q 635 470 683 526 m 702 526 l 702 509 l 724 509 q 735 520 735 509 l 735 526 l 702 526 m 411 503 q 444 498 436 503 q 450 503 444 503 q 456 498 450 498 l 461 509 l 461 515 l 422 515 q 411 503 411 513 m 467 515 q 478 503 469 503 l 511 503 l 511 509 q 484 515 493 509 l 484 509 l 473 515 l 467 515 m 148 509 l 154 509 l 154 503 q 109 492 118 492 l 103 492 l 103 498 q 148 509 113 498 m 484 498 l 484 492 q 495 481 486 481 l 506 481 q 556 492 520 481 l 556 503 q 484 498 553 503 m 500 475 q 511 464 502 464 q 540 475 540 464 l 551 470 q 606 492 600 492 l 606 498 l 590 498 q 500 475 530 475 m 528 464 l 523 453 q 534 425 534 453 q 540 431 540 425 l 551 425 l 556 425 l 528 458 l 551 458 l 551 464 l 528 464 m 500 453 q 534 408 515 416 l 534 414 q 511 441 522 416 q 517 458 517 452 q 500 453 507 453 m 489 453 l 489 441 l 500 436 q 495 453 495 447 l 489 453 m 663 448 l 668 448 q 707 408 676 448 l 707 403 q 663 448 700 403 m 724 386 q 741 369 732 386 l 741 363 q 724 380 733 363 l 724 386 m 511 380 l 523 380 l 523 363 l 517 363 q 511 380 517 370 m 422 369 l 422 363 q 428 358 428 363 q 422 352 422 358 l 433 347 l 433 358 q 422 369 433 369 m 752 358 l 747 347 l 747 324 l 752 291 l 752 286 l 747 286 l 747 296 l 741 296 l 735 269 l 735 263 q 780 151 735 229 l 791 157 l 802 157 q 819 140 810 157 l 819 134 l 797 151 q 785 140 785 149 l 797 140 q 785 117 785 126 q 808 95 791 99 q 797 134 797 123 q 814 90 814 131 l 819 90 q 925 157 819 134 l 954 157 l 954 145 l 947 145 l 937 151 l 937 145 l 947 140 q 959 157 959 140 q 931 190 951 180 l 909 190 q 830 145 859 190 l 819 145 l 819 151 q 875 196 833 174 l 875 201 l 914 201 q 825 307 879 260 l 819 274 l 808 279 l 814 307 q 752 358 814 358 m 780 336 q 797 319 788 336 l 797 313 q 780 330 789 313 l 780 336 m 819 274 q 836 257 827 274 l 836 252 q 819 269 828 252 l 819 274 m 842 246 q 859 229 850 246 l 859 224 q 842 241 850 224 l 842 246 m 859 224 q 875 207 866 224 l 875 201 q 859 218 867 201 l 859 224 m 573 168 l 562 174 l 551 168 q 534 174 540 174 l 528 162 l 528 140 l 534 140 l 534 168 l 545 168 l 540 157 l 540 140 l 562 140 l 573 168 l 578 168 l 578 151 l 585 151 q 612 184 604 161 q 606 201 606 195 l 601 201 q 573 168 594 201 m 456 184 l 456 162 q 523 140 469 140 q 456 184 523 151 m 562 123 l 551 123 q 467 140 517 123 q 444 123 444 132 q 461 106 452 123 l 461 100 q 439 129 439 112 q 411 100 431 129 l 411 95 l 467 90 l 461 100 l 467 100 q 489 90 480 90 q 590 95 512 90 q 606 151 595 132 l 601 151 l 562 123 m 925 145 q 842 117 925 123 l 814 73 q 830 56 814 56 l 830 50 l 819 50 q 830 39 821 39 q 836 50 830 50 q 886 39 844 50 q 970 100 923 100 q 931 145 931 132 l 925 145 m 606 140 l 601 112 l 601 95 q 618 100 612 100 l 612 140 l 606 140 m 869 134 l 869 129 l 875 129 q 892 134 886 134 l 892 140 l 886 140 q 869 134 876 134 m 897 45 q 909 33 899 33 l 942 33 q 1021 45 979 33 q 987 95 1021 78 q 897 45 933 95 m 411 90 q 428 78 411 78 l 473 78 l 473 84 q 411 90 431 84 m 562 84 l 562 78 l 578 78 q 590 90 590 78 l 578 90 q 562 84 568 84 m 595 90 l 595 84 l 618 84 l 618 90 l 595 90 m 478 84 l 478 78 l 517 78 l 517 84 l 478 84 m 523 84 l 523 78 l 551 78 l 551 84 l 523 84 m 836 45 q 852 28 836 37 l 852 33 q 842 45 852 45 l 836 45 m 976 28 l 892 28 l 892 17 l 920 11 l 954 11 q 1021 22 981 11 l 1021 39 q 976 28 1000 28 m 864 33 l 864 22 l 880 22 l 880 33 l 864 33 z "},"1":{"ha":1006,"x_min":3,"x_max":898,"o":"m 623 1160 q 656 1151 656 1159 l 667 1156 l 686 1156 q 770 1136 721 1156 l 770 1131 l 760 1131 q 676 1151 720 1151 l 671 1151 l 656 1141 q 623 1156 656 1149 l 564 1145 l 558 1145 l 558 1151 q 623 1160 603 1160 m 538 1145 q 475 1116 538 1141 q 470 1112 475 1112 l 475 1101 l 475 1038 l 479 1027 q 435 1018 448 1027 q 440 1033 435 1023 q 435 1082 435 1059 l 420 1072 l 420 1077 l 431 1092 l 431 1136 q 450 1141 439 1141 l 460 1141 q 470 1121 470 1141 q 538 1145 521 1145 m 558 1145 l 558 1141 q 529 1057 545 1141 q 499 1018 505 1018 q 494 1023 499 1023 q 490 1018 494 1018 l 490 1023 q 544 1145 532 1068 l 558 1145 m 431 1131 q 450 1047 431 1118 l 446 1038 l 446 1033 l 450 1033 l 450 1042 l 455 1042 l 455 1033 l 470 1033 l 470 1047 q 455 1136 470 1136 l 431 1131 m 652 1141 l 656 1141 l 656 1126 q 652 1106 652 1118 q 686 1086 678 1106 l 682 1086 q 647 1101 663 1101 q 612 1018 647 1094 l 603 1023 l 597 1013 l 597 1008 l 603 1008 l 603 1018 l 612 1013 q 642 1023 633 1023 l 647 1023 l 647 1018 q 514 988 560 988 l 514 974 q 608 994 562 979 l 612 994 l 612 988 q 509 964 516 964 l 524 944 q 514 935 514 944 l 509 935 q 499 959 509 959 q 509 988 509 975 q 431 998 471 998 l 431 1003 q 479 1008 478 1003 q 490 998 481 998 l 514 998 l 514 1018 l 519 1018 q 524 994 519 994 q 617 1057 594 994 l 642 1106 l 608 1106 l 608 1112 q 647 1116 647 1112 l 652 1141 m 770 1131 l 785 1131 l 755 1067 q 883 1082 803 1082 l 878 1072 l 883 1072 q 888 1086 888 1082 l 898 1086 l 898 1082 q 819 949 837 1013 l 814 949 q 809 954 814 954 q 804 949 809 949 l 804 954 q 814 979 814 970 l 819 979 l 819 968 l 824 968 l 824 974 q 819 988 819 983 l 829 983 l 824 994 l 824 1003 l 833 998 l 829 1008 l 829 1013 q 863 1042 834 1013 l 859 1053 q 868 1062 860 1062 q 873 1057 868 1057 l 868 1067 l 873 1077 l 868 1077 q 804 1067 809 1067 l 794 1072 l 789 1072 l 789 1067 l 800 1067 l 800 1062 l 785 1062 l 785 1057 q 833 1027 800 1057 l 833 1023 q 755 1053 778 1053 l 755 1057 l 765 1057 l 765 1062 l 760 1062 l 735 1057 q 770 1131 770 1102 m 785 1126 l 809 1126 q 873 1097 871 1110 l 868 1097 q 785 1121 823 1121 l 785 1126 m 588 1101 l 593 1101 l 593 1097 q 573 1086 585 1097 l 568 1086 q 588 1101 568 1099 m 873 1097 l 878 1097 q 888 1086 888 1095 l 883 1086 q 873 1097 873 1086 m 283 1086 l 288 1086 q 322 1038 294 1086 l 322 1033 q 298 1067 311 1033 l 288 1062 l 283 1062 l 293 1077 l 283 1082 l 273 1082 l 273 1077 l 288 1077 l 283 1067 q 258 1077 267 1077 l 258 1082 l 283 1086 m 558 1082 l 564 1082 q 538 1057 564 1075 l 538 1062 q 558 1082 538 1069 m 254 1077 l 258 1077 l 254 1067 l 263 1062 l 269 1062 l 278 1067 l 283 1057 q 243 1047 269 1047 q 278 1013 243 1044 l 273 1013 q 234 1062 234 1033 l 254 1077 m 696 1077 q 721 1053 712 1053 l 721 1047 l 711 1047 l 711 1042 l 726 1042 l 726 1038 l 715 1038 l 715 1013 l 711 979 q 765 949 765 959 l 760 949 q 701 968 727 968 q 686 944 697 944 l 686 949 q 696 979 696 965 q 632 994 640 994 l 632 998 l 647 998 l 647 1003 l 637 1003 l 637 1008 q 706 1042 703 1031 l 696 1042 l 696 1047 q 706 1053 706 1047 q 696 1077 696 1068 m 416 1067 l 416 1062 q 406 1053 416 1053 l 406 1057 q 416 1067 408 1067 m 538 1057 l 538 1053 q 524 1033 531 1033 l 524 1038 q 538 1057 531 1057 m 406 1053 l 406 1047 q 391 1033 406 1040 l 391 1038 q 406 1053 391 1044 m 131 1038 l 155 1038 q 165 1027 165 1036 l 160 1027 q 140 1033 151 1033 q 131 1023 140 1023 q 125 1033 131 1033 q 96 1013 96 1021 l 96 1008 q 111 998 96 998 q 125 1023 125 998 l 131 1023 q 155 988 131 1004 l 155 983 q 180 994 171 994 q 155 924 155 977 q 145 890 145 924 l 136 895 l 131 885 l 131 876 l 136 865 q 155 880 155 873 l 155 885 l 145 885 l 145 890 q 175 924 175 890 q 160 935 160 924 l 165 935 q 184 929 174 929 q 190 979 184 935 l 180 983 l 184 994 l 184 998 l 165 1027 l 170 1027 q 195 964 195 1013 q 131 861 179 861 q 121 870 121 861 q 155 949 121 880 l 155 968 q 125 998 143 998 q 86 964 116 998 q 66 983 86 968 q 131 1038 92 1038 m 322 1033 q 357 1008 357 1012 l 367 1013 l 372 1013 l 367 1003 q 431 998 383 998 l 431 994 q 401 988 401 994 q 322 1027 368 988 l 322 1033 m 667 1033 l 671 1033 l 671 1027 l 652 1023 l 647 1023 l 647 1027 q 667 1033 649 1027 m 652 1008 l 652 1003 l 662 1003 l 662 998 l 652 998 l 652 994 l 656 994 l 667 998 q 706 994 682 994 q 711 1013 711 1002 l 711 1027 l 706 1027 q 652 1008 700 1027 m 86 1008 q 77 988 86 1000 q 86 979 78 979 q 101 994 94 979 q 92 1008 92 994 l 86 1008 m 278 1013 l 283 1013 q 293 1003 293 1011 l 288 1003 q 278 1013 278 1003 m 293 1003 l 317 1003 q 381 974 342 1003 q 479 979 395 974 q 499 964 499 971 l 494 964 q 455 974 476 974 q 411 964 411 970 q 426 909 426 919 l 426 895 l 420 895 q 376 968 408 968 l 376 964 q 391 900 381 909 l 391 895 l 376 905 q 372 885 372 896 l 367 885 q 342 905 367 905 q 332 876 332 888 q 342 865 334 865 l 357 865 l 361 885 l 367 885 l 367 876 q 337 836 353 842 l 322 836 q 313 846 313 836 l 313 856 q 342 935 342 927 q 322 964 332 964 l 317 964 q 283 949 301 964 l 278 949 l 283 959 l 278 968 l 283 968 l 293 964 q 313 994 313 964 l 317 994 q 337 959 317 972 l 367 964 l 367 968 q 322 998 346 998 q 317 994 322 994 l 317 998 l 308 994 l 293 994 l 293 1003 m 632 1003 q 617 994 632 994 l 612 994 l 612 998 q 632 1003 615 998 m 273 983 l 278 983 l 278 968 l 269 974 q 254 949 254 958 l 243 949 l 243 954 q 273 983 243 961 m 66 979 l 66 968 q 62 954 62 959 l 72 949 l 77 949 q 86 964 77 964 l 86 959 q 66 915 71 915 q 77 885 77 899 l 77 850 q 86 791 77 826 l 86 787 l 81 787 q 66 885 66 829 l 66 895 q 47 890 58 890 l 47 880 q 66 791 47 849 l 66 787 l 62 787 q 37 876 47 825 l 42 876 q 37 880 42 880 q 66 979 37 939 m 347 949 l 347 909 l 367 905 l 372 915 l 372 959 l 357 959 q 347 949 347 957 m 455 959 l 475 959 l 475 954 l 455 954 l 455 949 l 470 949 l 470 944 q 450 939 450 944 q 455 935 450 935 q 450 890 450 916 l 446 890 l 446 920 l 440 920 q 416 600 416 730 l 416 531 q 426 522 417 522 l 440 522 l 440 620 q 470 944 440 753 l 475 944 q 485 935 485 943 q 465 856 465 935 q 603 826 512 836 l 603 821 q 564 817 568 817 q 460 841 528 817 l 460 836 q 446 590 446 715 l 446 536 q 485 496 483 513 q 455 428 485 452 q 514 162 470 277 l 514 157 l 509 157 q 485 241 485 224 l 479 241 l 479 236 q 490 192 490 199 l 490 187 l 485 187 l 470 256 l 475 275 l 475 280 l 470 280 l 470 266 l 465 266 l 465 280 l 470 290 l 446 443 q 426 463 431 446 q 435 472 435 463 q 426 492 426 484 l 420 492 l 420 472 q 490 94 420 289 l 499 94 l 494 103 q 505 113 505 103 q 519 109 514 109 l 519 103 q 505 94 505 103 q 509 89 509 94 l 490 89 q 426 345 461 89 q 401 437 420 437 q 372 423 396 423 l 367 423 l 357 428 q 352 423 357 423 q 347 428 352 428 q 337 418 347 418 l 283 418 l 283 413 q 317 364 290 364 l 317 359 q 298 319 317 341 q 302 241 302 248 l 302 231 l 298 231 l 298 246 q 273 227 275 236 l 273 197 q 288 182 273 190 l 298 182 l 308 187 q 302 216 308 191 l 302 231 l 308 231 l 313 182 q 308 177 313 177 q 313 172 308 172 q 302 113 302 125 q 361 128 345 128 l 367 128 q 406 89 406 128 q 372 69 398 69 l 293 69 q 249 79 281 69 l 249 94 q 263 123 263 113 l 269 123 l 269 118 q 258 89 269 110 l 258 83 l 263 83 l 263 94 l 269 94 q 308 74 269 74 l 313 98 l 317 98 l 317 74 l 361 74 q 376 113 361 113 l 381 103 q 367 79 367 103 l 367 74 q 401 89 383 74 l 376 123 l 367 123 q 328 109 330 123 l 317 113 q 302 109 308 109 q 263 153 263 119 l 269 187 q 263 207 263 195 q 269 227 269 215 q 184 192 235 203 q 170 168 178 168 l 170 172 q 184 227 180 194 l 190 227 l 190 207 l 199 207 q 263 236 241 207 l 263 241 q 195 231 203 235 l 195 236 l 204 251 l 199 275 q 214 256 204 275 l 210 246 l 210 241 l 229 241 q 269 271 252 241 l 269 266 q 263 251 263 256 q 269 236 269 241 q 298 251 288 251 l 298 260 l 293 286 l 288 286 l 269 271 l 269 275 q 293 290 269 289 l 293 305 q 278 310 278 305 q 283 325 283 319 l 288 325 l 288 310 l 293 310 l 293 325 l 283 330 q 219 300 254 300 q 180 339 219 308 l 180 345 q 210 325 205 325 l 229 359 q 210 418 210 359 q 175 393 191 393 l 175 369 l 180 345 q 170 369 170 345 l 160 364 l 160 384 q 131 364 155 384 l 136 354 l 136 339 q 96 286 136 313 l 96 280 q 106 271 98 271 l 125 280 l 125 271 q 101 251 106 271 l 106 251 q 111 256 106 256 l 111 251 l 106 241 q 131 216 113 241 l 125 216 q 106 227 114 227 q 62 212 79 212 q 3 305 3 245 q 33 378 18 378 l 33 374 q 13 300 13 341 q 52 221 13 262 q 66 227 62 227 l 66 260 l 72 271 l 66 271 q 37 260 47 260 q 66 280 37 271 l 66 286 q 37 305 41 286 l 27 305 l 27 266 l 22 266 q 18 305 22 305 q 27 349 22 313 l 33 349 l 33 339 l 27 319 l 27 310 l 33 310 q 62 369 33 338 l 57 369 l 62 378 l 62 389 l 52 384 l 52 389 q 57 404 57 398 l 47 398 l 52 423 l 52 428 l 47 437 q 145 472 96 448 l 160 472 l 160 477 q 18 575 18 511 l 18 585 q 42 673 18 623 l 33 673 l 33 679 q 57 688 45 679 q 62 673 57 673 q 77 679 71 679 l 77 688 l 57 688 l 57 693 l 72 713 l 66 723 q 86 743 86 723 q 77 767 77 758 q 92 747 92 767 q 101 758 101 747 q 86 782 90 758 l 86 787 l 92 787 q 111 758 92 767 l 136 762 q 165 747 165 758 l 140 752 l 131 752 q 72 699 97 752 l 72 693 l 81 693 q 136 732 81 720 l 155 732 l 180 728 l 180 723 l 145 728 l 140 728 q 96 703 96 718 l 106 703 q 155 718 131 718 l 175 718 q 180 713 180 718 l 190 718 q 210 699 197 718 l 210 693 q 160 713 182 713 q 77 659 77 696 l 92 614 q 72 669 75 614 l 47 669 q 27 605 27 623 l 27 585 q 219 477 27 494 q 293 496 232 477 q 273 487 293 487 l 273 482 l 283 482 l 283 477 q 224 448 250 477 q 195 463 205 463 l 195 467 l 229 467 l 229 472 l 214 472 q 116 452 142 469 l 116 448 q 214 423 214 448 q 219 374 219 397 l 219 369 l 234 369 l 229 378 l 243 389 l 278 389 l 278 393 q 263 437 263 417 l 224 437 q 234 448 226 448 q 254 443 242 443 q 269 467 260 467 l 269 463 q 263 457 269 457 q 273 423 273 433 l 278 423 q 288 433 288 423 l 288 452 l 269 452 q 288 472 288 465 l 293 472 q 298 463 293 463 l 328 463 l 328 457 q 293 448 293 457 q 298 443 293 443 l 293 433 l 293 428 l 322 423 q 352 457 352 423 l 357 457 l 357 433 l 387 433 q 406 463 396 433 l 406 467 l 401 467 l 401 457 l 396 457 q 387 472 396 472 q 352 457 352 472 q 328 463 344 463 l 328 467 q 381 477 333 467 l 391 477 q 406 516 391 516 l 411 496 l 401 502 l 396 492 l 396 477 q 411 472 401 477 q 426 516 411 496 l 406 516 l 411 526 l 411 649 q 426 865 411 715 q 391 895 391 886 l 396 895 l 431 870 q 440 935 431 890 l 426 935 q 455 959 444 959 m 57 949 l 52 929 l 62 924 l 66 924 l 66 944 l 57 949 m 529 954 q 553 929 535 954 l 553 924 q 529 949 547 924 l 529 954 m 243 949 l 243 944 q 239 924 239 935 l 249 924 l 263 935 l 263 929 q 239 880 239 892 q 243 865 239 875 q 224 752 224 802 q 254 743 235 743 l 254 738 l 239 738 q 184 743 195 743 q 170 738 175 738 l 165 747 l 204 747 l 199 772 l 199 817 q 229 924 199 886 q 239 900 229 900 l 243 909 l 243 920 q 229 929 229 920 q 243 949 236 949 m 254 949 l 258 949 q 263 944 263 949 l 273 949 l 278 949 q 263 935 278 942 l 254 949 m 804 949 q 809 944 804 944 q 814 949 809 949 l 814 944 q 785 915 814 937 l 785 920 l 800 939 q 794 944 794 939 l 804 949 m 686 944 l 686 939 q 656 909 686 932 l 652 909 q 686 944 652 917 m 514 935 q 544 905 521 935 l 538 905 q 514 929 532 905 l 514 935 m 47 920 l 47 900 l 62 900 l 62 920 l 47 920 m 564 920 q 623 895 564 895 l 623 890 q 588 885 608 890 q 583 890 588 890 l 603 856 l 603 846 q 544 900 566 899 l 544 905 l 549 905 l 558 900 l 553 909 q 564 920 555 920 m 785 915 q 765 890 772 890 q 755 900 755 890 q 785 915 774 915 m 652 909 q 627 895 652 899 l 623 895 l 623 900 l 652 909 m 224 900 l 219 890 l 219 880 l 224 880 q 234 890 234 880 q 224 900 234 900 m 735 885 l 741 885 q 750 876 750 884 l 741 870 l 735 870 l 741 880 q 735 885 735 880 m 214 876 q 204 787 204 826 q 210 747 210 751 l 219 747 l 219 772 q 234 876 219 793 q 229 870 229 876 l 219 876 l 214 876 m 322 870 l 322 846 q 328 841 328 846 q 352 861 350 850 q 322 870 334 861 m 721 876 l 726 876 l 721 865 q 726 861 726 865 q 608 826 659 826 l 603 826 l 603 831 q 711 865 650 831 q 715 861 711 861 l 715 865 q 711 870 711 865 l 721 876 m 519 831 l 519 826 l 544 826 l 544 831 l 519 831 m 269 752 q 317 708 302 752 l 313 708 q 283 718 296 718 l 273 718 l 273 708 l 293 708 q 322 699 306 708 q 328 703 322 703 q 352 679 338 679 l 352 673 l 342 673 l 342 669 l 367 669 l 367 664 l 347 659 l 347 654 q 361 644 361 654 l 357 644 l 347 649 q 328 610 339 610 l 328 614 q 337 644 337 631 l 337 664 q 283 703 334 703 q 269 699 273 699 l 269 679 l 273 644 l 288 654 l 293 654 q 302 644 302 652 l 293 644 l 293 634 l 302 634 l 302 644 l 308 644 l 308 629 l 298 614 l 298 610 q 317 600 314 600 q 313 585 313 590 q 263 649 269 625 l 263 699 q 273 728 263 711 l 298 723 l 302 723 q 254 743 298 743 l 254 747 q 269 752 258 747 m 214 684 l 219 684 l 224 659 l 224 654 q 210 614 224 618 l 210 620 q 219 654 219 640 l 214 679 l 214 684 m 151 673 q 170 659 170 666 l 170 654 q 145 669 145 665 l 116 654 l 116 659 q 151 673 116 670 m 283 669 l 302 669 l 302 664 l 283 664 l 283 669 m 302 664 l 308 664 q 317 654 317 662 l 317 649 q 302 664 311 649 m 136 659 l 151 659 q 165 644 157 659 q 140 614 165 614 q 121 629 121 622 l 121 644 q 136 659 121 651 m 116 654 l 111 629 q 116 614 116 620 q 106 625 106 614 l 106 644 q 116 654 108 654 m 317 649 l 322 649 l 322 620 l 313 614 q 317 649 317 634 m 175 644 l 180 644 l 180 629 q 170 605 170 613 l 195 605 l 210 614 l 210 610 q 204 595 204 600 l 131 605 q 96 600 111 600 l 96 610 q 116 614 116 610 l 125 610 l 155 610 q 175 644 175 618 m 342 620 q 352 610 352 618 l 352 605 q 342 614 342 605 l 342 620 m 352 605 l 357 605 l 361 581 l 361 575 q 302 502 361 528 q 357 581 357 547 q 352 600 352 589 l 352 605 m 184 566 l 199 566 q 278 531 199 531 l 278 526 l 239 496 q 204 516 204 503 q 210 522 210 516 l 204 522 q 199 516 204 516 q 180 561 180 552 q 165 555 170 555 l 160 555 l 160 561 l 184 566 m 184 561 q 229 516 193 534 q 243 522 239 522 l 243 526 q 184 561 220 526 m 243 516 l 243 507 q 258 522 251 507 q 243 516 249 516 m 450 522 q 446 516 450 516 q 470 492 447 503 l 470 487 l 479 487 l 479 496 l 470 496 q 475 502 470 502 q 450 522 470 522 m 214 516 q 229 507 214 507 l 239 507 l 239 511 l 214 516 m 426 502 q 431 487 431 492 l 440 487 l 450 492 q 435 511 443 511 q 426 502 426 510 m 455 492 q 440 477 455 477 l 440 472 l 455 472 l 455 467 q 435 457 435 467 l 435 452 l 455 448 l 460 457 l 455 467 q 470 482 462 467 l 455 492 m 140 463 l 160 463 l 199 452 l 199 448 l 195 448 q 140 457 159 457 l 140 463 m 57 437 l 57 428 l 72 408 l 62 408 q 121 339 74 339 l 125 339 l 125 334 l 116 334 l 116 325 l 131 334 l 125 345 q 131 349 125 349 q 72 404 102 404 l 72 408 l 96 404 l 131 404 q 165 423 148 404 l 165 418 l 160 408 l 184 398 q 199 433 199 416 q 165 443 180 443 q 160 428 160 433 l 155 428 l 155 437 q 81 443 94 443 l 57 437 m 111 393 l 111 389 l 125 389 q 140 393 135 393 l 140 398 l 136 398 l 111 393 m 145 384 q 170 389 153 389 l 170 398 l 160 398 q 145 384 153 398 m 42 393 l 42 389 q 33 378 42 378 l 33 384 q 42 393 34 393 m 116 384 q 125 374 117 374 l 131 384 l 116 384 m 219 325 q 254 315 239 325 q 263 378 263 364 l 269 378 q 298 349 269 349 l 302 359 l 302 364 q 269 384 290 364 q 263 378 263 384 l 254 384 q 219 325 242 383 m 52 384 l 52 378 q 42 369 52 369 l 42 374 q 52 384 43 384 m 42 369 l 42 364 q 37 349 37 354 l 33 349 l 33 364 l 42 369 m 66 364 l 62 354 l 72 354 l 72 349 l 52 349 l 52 339 q 81 334 78 334 q 72 345 81 345 l 77 354 q 66 364 77 364 m 155 364 l 160 364 q 170 325 160 356 q 155 354 155 330 l 155 364 m 263 345 q 258 319 263 328 q 278 334 278 327 q 269 345 278 345 l 263 345 m 86 339 q 77 300 77 308 l 66 305 l 62 305 l 62 295 l 72 295 q 77 300 77 295 q 92 295 86 295 q 121 319 111 302 q 86 339 109 319 m 47 334 l 42 325 l 57 315 l 66 315 q 77 325 77 315 q 47 334 60 334 m 175 319 l 180 319 q 204 300 204 307 l 199 300 q 175 319 177 309 m 47 300 l 57 295 l 57 310 q 47 300 47 308 m 278 305 l 278 300 q 269 290 278 290 l 269 295 q 278 305 270 305 m 131 300 l 160 295 l 160 290 q 125 280 137 290 l 125 286 q 131 300 131 295 m 81 286 q 77 271 81 280 l 81 260 l 72 221 q 101 241 101 221 q 81 271 98 252 l 86 280 l 86 286 l 81 286 m 219 290 l 224 290 l 243 275 l 249 275 l 269 290 l 269 286 q 254 271 269 278 l 239 271 q 219 290 231 271 m 180 280 l 199 280 l 199 275 q 165 260 165 275 l 165 246 q 180 236 165 236 l 180 231 q 155 212 155 231 q 136 227 136 219 l 140 227 l 151 221 q 155 256 155 224 q 140 271 148 256 l 140 275 l 160 260 q 180 280 160 280 m 116 241 l 121 241 q 136 227 127 241 l 131 227 q 116 241 123 227 m 131 216 l 136 216 q 151 212 145 212 l 151 201 q 131 216 131 209 m 140 201 l 145 201 l 145 192 q 136 162 136 176 q 140 157 140 162 l 136 157 q 125 168 125 157 q 140 201 140 192 m 273 182 q 269 142 269 147 q 298 123 273 123 l 302 157 l 302 177 q 273 182 281 177 m 490 187 l 494 187 q 499 157 499 161 l 499 153 l 494 153 q 490 182 494 156 l 490 187 m 125 162 l 125 157 q 101 103 101 117 l 106 94 q 92 83 92 94 q 96 79 96 83 q 66 89 66 82 q 37 79 47 79 l 37 74 q 101 39 81 74 q 116 50 101 50 l 111 59 l 111 64 q 125 50 118 64 q 72 24 90 24 l 47 24 q 13 44 20 24 q 72 94 13 85 q 86 89 81 89 l 96 103 q 92 109 96 109 q 125 162 117 161 m 165 162 l 165 148 q 140 153 157 153 l 140 157 l 165 162 m 514 157 l 519 157 q 538 118 519 149 q 524 98 531 98 l 519 98 l 524 109 q 505 123 505 115 q 524 128 513 128 q 514 153 514 144 l 514 157 m 155 148 l 160 148 l 160 133 q 136 94 143 94 l 140 83 l 140 79 l 136 54 l 125 54 l 131 79 l 106 79 l 106 83 l 125 83 l 125 89 l 106 89 l 106 94 q 155 138 143 94 l 155 148 m 499 118 l 505 118 q 490 103 505 111 l 490 109 q 499 118 491 118 m 269 109 l 273 109 q 293 103 281 103 l 293 98 l 273 98 l 269 109 m 37 69 l 33 44 l 33 35 l 52 35 l 52 50 l 57 50 l 57 30 l 62 30 l 86 35 l 86 44 q 66 64 86 52 q 57 50 66 50 l 57 54 q 62 69 62 64 l 37 69 m 22 64 q 18 54 22 54 q 22 39 22 45 l 27 39 l 27 64 l 22 64 m 411 5 l 470 5 l 470 0 l 411 0 l 411 5 z "},"2":{"ha":1078,"x_min":3,"x_max":921,"o":"m 358 1163 l 378 1163 l 378 1154 q 368 1144 378 1144 l 358 1144 l 358 1163 m 627 1163 l 632 1163 q 642 1129 642 1163 l 652 1134 l 652 1129 l 647 1120 q 666 1110 666 1120 q 652 1105 656 1105 l 656 1096 l 656 1091 l 652 1091 l 642 1096 l 637 1072 l 627 1072 l 627 1101 l 613 1091 l 613 1096 l 623 1110 l 618 1110 l 618 1105 q 599 1110 610 1110 l 599 1120 l 618 1120 q 608 1144 608 1135 l 618 1144 l 618 1134 l 627 1134 l 627 1163 m 210 1158 l 224 1158 q 233 1149 224 1149 l 233 1144 l 210 1139 l 210 1158 m 300 1158 l 315 1158 l 315 1144 l 311 1144 q 300 1154 300 1144 l 300 1158 m 488 1154 l 493 1154 q 503 1134 493 1134 l 507 1134 l 498 1120 l 517 1120 l 517 1110 l 503 1110 l 507 1101 l 507 1091 l 493 1101 q 484 1067 493 1067 l 484 1101 l 469 1091 q 464 1096 469 1096 l 469 1105 l 469 1110 l 450 1110 l 450 1120 l 469 1120 l 450 1144 l 450 1149 l 454 1149 q 479 1129 476 1129 q 484 1144 479 1135 q 479 1149 479 1144 l 488 1154 m 570 1144 l 589 1144 l 589 1134 q 579 1124 589 1124 l 570 1124 l 570 1144 m 406 1139 l 426 1139 l 426 1124 q 416 1115 426 1115 q 406 1124 406 1115 l 406 1139 m 690 1124 l 709 1124 l 709 1105 l 690 1105 l 690 1124 m 349 1115 q 358 1105 358 1114 l 358 1101 q 349 1091 358 1091 l 339 1091 q 334 1105 339 1096 l 349 1115 m 532 1096 q 541 1086 541 1095 l 541 1082 q 532 1072 541 1072 q 522 1082 522 1072 l 522 1086 q 532 1096 524 1096 m 272 1086 l 281 1072 l 281 1062 q 267 1057 277 1062 l 258 1072 q 272 1086 258 1079 m 680 1086 l 700 1086 l 700 1076 q 690 1067 700 1067 l 680 1086 m 320 1076 l 330 1076 l 330 1048 l 353 1038 l 353 1034 q 339 1023 353 1023 l 344 1014 l 344 1009 l 339 1009 l 330 1014 l 330 990 l 320 990 l 320 1019 l 305 1009 l 305 1019 l 311 1029 l 286 1029 l 286 1038 l 311 1038 l 311 1043 l 300 1057 l 300 1062 l 311 1062 q 320 1048 311 1048 l 320 1076 m 387 1067 l 392 1057 l 392 1048 l 378 1048 q 373 1062 378 1053 q 387 1067 378 1062 m 459 1067 l 479 1067 l 479 1048 l 469 1048 q 459 1057 459 1048 l 459 1067 m 728 1067 l 733 1048 q 599 750 688 995 l 604 750 q 906 908 739 864 l 916 908 l 916 899 l 863 831 q 878 817 863 825 l 882 817 l 882 846 l 892 846 l 892 822 l 897 812 q 892 808 892 812 l 901 812 l 906 812 q 921 798 906 798 q 906 788 921 788 l 911 779 l 911 769 l 897 779 l 892 769 l 897 769 q 892 750 892 760 q 882 779 882 750 l 873 774 l 868 774 l 868 779 l 873 788 q 853 793 864 793 l 853 802 l 873 802 q 863 822 863 814 l 853 822 q 714 640 789 720 q 469 481 567 500 q 450 471 450 481 q 517 375 486 471 l 517 370 q 512 366 512 370 l 517 366 q 488 322 512 345 q 623 106 562 233 q 675 77 651 77 l 680 77 l 680 67 q 656 53 656 67 l 647 53 q 599 77 630 67 q 594 72 599 72 q 560 96 579 96 l 560 81 q 604 53 585 81 l 604 43 q 565 19 604 31 l 522 24 q 416 0 458 14 l 406 0 q 363 43 363 7 q 281 53 325 53 l 267 53 l 243 48 l 243 43 q 262 29 262 41 l 238 24 l 229 24 q 214 48 216 24 l 210 48 q 166 24 172 44 l 157 29 q 127 0 157 22 l 113 0 l 118 9 l 118 14 q 90 5 110 14 l 84 14 q 118 43 118 37 l 75 43 q 3 92 3 43 l 3 96 q 185 240 3 184 l 185 264 q 195 346 185 281 q 185 519 195 368 l 195 553 l 171 553 q 132 582 132 559 q 137 620 137 616 q 79 668 134 620 q 70 620 79 620 l 65 620 q 12 692 25 653 l 17 702 q 12 740 12 728 q 37 788 12 749 l 46 783 l 46 788 q 32 802 39 788 q 46 812 46 808 l 56 808 l 65 808 q 157 865 106 808 q 118 855 132 855 l 118 865 l 123 875 q 90 918 92 875 q 118 956 96 948 q 190 1004 156 1004 l 195 995 l 219 1000 l 238 1000 l 238 990 l 233 981 q 300 918 300 958 q 258 865 300 907 q 344 740 344 817 q 305 649 344 707 l 305 644 q 320 606 305 608 q 714 1067 440 899 l 728 1067 m 627 990 l 618 995 q 474 846 514 896 q 320 587 343 675 q 382 538 340 561 q 579 730 541 715 q 675 961 642 892 l 671 971 q 724 1057 683 971 l 719 1057 q 627 995 678 1041 l 627 990 m 753 1062 l 762 1062 l 762 1043 l 753 1043 q 743 1053 743 1043 q 753 1062 745 1062 m 623 1057 l 632 1057 q 637 1048 632 1048 q 632 1034 632 1038 l 623 1034 q 613 1043 613 1034 l 613 1048 q 623 1057 614 1057 m 171 1038 q 185 1034 180 1034 l 185 1023 q 171 1009 185 1017 l 166 1009 q 171 1014 166 1014 l 166 1023 l 166 1029 l 171 1038 m 585 1004 l 594 1004 l 594 985 l 585 985 q 574 995 574 985 q 585 1004 576 1004 m 104 908 l 104 928 l 99 928 l 99 908 q 171 875 99 880 q 210 889 205 889 q 214 884 210 884 l 214 889 q 253 884 219 884 l 248 875 q 277 908 263 876 l 272 918 l 272 928 l 281 928 l 281 903 l 286 903 l 286 937 q 233 966 255 966 l 190 966 l 190 976 q 229 990 226 976 l 224 990 q 157 956 195 990 l 152 956 l 185 995 q 113 913 113 962 l 104 908 m 781 995 l 786 971 q 781 966 781 971 l 786 966 q 795 976 787 976 l 800 966 q 791 956 791 964 q 810 947 810 956 q 795 942 795 947 q 800 928 800 932 l 795 928 l 786 932 l 786 908 l 777 908 q 772 937 777 912 l 767 937 l 767 928 l 758 928 l 758 937 l 762 947 l 743 947 q 762 956 743 956 l 738 985 l 743 985 q 772 966 747 985 q 781 995 772 995 m 873 937 q 882 928 882 936 q 873 918 882 918 l 863 918 l 863 928 q 873 937 865 937 m 647 764 l 637 769 q 546 649 579 727 q 416 495 505 576 l 416 490 l 440 486 q 694 629 538 496 q 733 668 694 637 l 906 903 q 675 793 810 872 q 647 764 647 776 m 738 903 l 747 889 q 738 880 747 880 l 724 880 l 724 899 q 738 903 729 899 m 132 827 l 142 827 q 104 798 104 801 l 94 802 q 75 798 85 798 l 79 788 q 22 745 22 766 l 22 735 l 41 755 l 46 755 q 26 697 26 722 q 41 659 26 661 l 41 687 l 46 687 q 70 629 52 629 q 94 730 70 660 l 94 740 l 99 740 q 161 668 108 668 q 147 707 147 692 l 147 730 l 152 730 l 152 721 l 157 721 q 210 779 157 736 q 233 808 227 808 l 233 802 l 229 783 l 229 779 l 233 779 l 233 788 l 243 783 l 238 774 q 286 687 238 755 l 286 682 l 291 682 l 291 740 l 300 735 l 300 740 q 296 745 296 740 l 311 745 q 320 702 320 713 l 325 702 l 330 735 l 330 745 q 229 875 330 810 q 219 880 219 875 q 132 827 177 872 m 882 802 l 882 798 q 892 788 884 788 l 892 802 l 882 802 m 51 798 l 51 793 l 70 793 l 70 798 l 51 798 m 214 774 q 205 755 214 766 l 233 750 q 219 774 219 766 l 214 774 m 185 745 q 166 726 185 737 l 171 716 l 171 711 l 161 716 q 157 697 161 705 q 171 673 166 673 q 152 659 171 659 q 171 634 171 637 l 166 601 l 176 596 l 185 596 l 185 606 l 195 606 l 195 601 q 180 587 195 594 l 176 587 q 157 606 168 587 l 161 615 l 147 615 l 152 606 q 142 596 142 604 l 142 587 q 205 557 142 564 q 161 576 205 570 q 157 572 161 572 l 157 576 l 161 587 l 185 582 l 195 582 q 233 620 233 582 l 229 629 l 238 634 l 248 634 q 233 576 243 626 l 258 576 q 300 659 275 576 q 311 673 305 659 l 296 682 q 281 663 296 663 q 238 735 281 694 q 233 730 238 730 q 219 745 233 737 l 205 745 q 176 707 179 707 l 176 711 q 190 745 176 724 l 185 745 m 911 745 l 921 726 l 911 721 l 906 721 q 897 730 897 721 l 897 740 q 911 745 902 740 m 848 740 l 858 740 q 868 730 868 739 l 868 726 l 848 726 l 848 740 m 233 730 l 238 721 l 238 716 q 233 711 238 711 q 248 677 248 687 q 210 644 232 644 q 190 702 193 665 l 214 721 q 219 716 214 716 q 233 730 219 723 m 300 716 l 311 711 l 311 726 q 300 716 300 724 m 565 711 q 392 534 404 559 q 406 509 406 517 l 411 509 q 565 702 520 601 l 570 711 l 565 711 m 897 716 q 906 707 906 715 l 906 702 q 897 692 906 692 l 887 692 q 882 707 887 697 l 897 716 m 305 707 l 305 702 l 311 677 l 315 677 l 315 697 q 305 707 315 707 m 795 711 q 810 697 803 711 l 795 687 l 791 687 q 781 697 781 687 q 795 711 781 704 m 205 687 l 205 677 l 210 654 l 219 654 l 210 668 q 214 673 214 668 q 210 677 210 673 q 238 687 220 687 q 224 702 238 694 l 219 702 q 205 687 212 702 m 94 697 l 90 677 l 99 673 l 118 673 l 118 677 q 99 697 99 677 l 94 697 m 848 692 l 853 682 l 853 677 l 839 677 l 839 682 q 848 692 840 692 m 224 682 l 219 673 q 229 663 220 663 l 233 663 l 233 668 l 224 668 l 224 677 l 233 677 l 233 682 l 224 682 m 99 668 l 99 663 q 109 654 109 662 q 123 659 118 659 l 123 663 q 99 668 106 663 m 853 673 q 868 640 860 640 l 868 668 l 878 668 l 878 640 l 882 640 q 892 654 882 654 q 901 644 901 652 l 901 640 q 897 634 901 634 l 901 625 l 901 620 l 887 620 l 887 615 l 897 615 q 892 601 892 606 l 878 610 q 868 582 878 582 l 868 615 l 863 615 l 863 606 l 853 606 q 839 620 853 620 l 829 620 l 829 629 l 858 629 l 858 634 q 844 668 844 656 l 853 673 m 795 663 q 810 659 805 659 l 810 649 q 800 640 810 640 q 791 649 791 640 l 791 654 l 795 663 m 132 649 l 132 640 q 147 625 132 632 l 142 634 l 142 644 l 152 644 l 152 649 l 132 649 m 296 620 q 272 582 290 582 l 272 572 q 305 567 292 567 l 311 591 q 300 620 300 607 l 296 620 m 815 591 l 825 591 q 834 582 834 589 l 825 576 q 815 587 815 576 l 815 591 m 315 576 q 311 562 315 572 l 311 548 q 300 514 302 548 q 339 495 339 513 l 344 495 l 344 505 l 339 529 q 353 486 353 529 l 358 486 q 378 534 358 500 q 320 576 320 556 l 315 576 m 200 529 q 210 341 200 452 q 195 260 200 304 q 214 130 210 130 q 152 53 214 108 l 152 48 q 157 43 157 48 q 127 9 145 43 l 132 9 q 210 72 146 43 l 219 72 l 210 58 q 224 34 224 58 l 243 34 l 243 39 q 229 43 238 39 l 262 288 l 262 293 l 258 293 l 258 283 l 248 283 q 267 317 248 317 q 262 413 262 382 l 262 486 q 272 495 264 495 l 272 404 q 291 394 279 404 l 291 490 q 286 495 291 495 l 300 553 q 253 567 255 567 l 253 562 l 243 567 q 200 529 218 567 m 853 562 q 863 553 863 561 q 853 543 863 543 l 848 543 q 844 557 848 548 l 853 562 m 800 548 q 810 538 810 547 q 800 529 810 529 q 791 538 791 529 q 800 548 792 548 m 373 505 l 397 505 q 387 524 387 516 q 373 505 380 524 m 858 529 l 873 529 l 873 514 l 868 514 q 858 524 858 514 l 858 529 m 305 509 l 300 486 l 300 476 q 311 466 302 466 q 349 481 346 466 l 311 509 l 305 509 m 887 509 l 892 509 q 901 500 901 508 q 892 490 901 490 l 882 490 q 878 505 882 495 l 887 509 m 368 495 l 368 486 l 373 486 q 387 490 382 490 l 387 495 l 368 495 m 392 481 l 406 481 l 406 490 l 401 490 q 392 481 392 489 m 373 476 l 368 466 q 378 452 378 466 l 382 452 l 382 466 l 397 466 l 392 456 l 392 442 q 416 336 406 397 q 459 322 435 322 l 469 322 l 469 332 l 459 327 q 411 471 435 382 l 382 471 l 373 476 m 810 481 q 820 471 820 479 q 805 456 820 464 l 795 471 l 810 481 m 426 471 q 484 332 454 332 q 507 366 498 335 q 440 471 507 424 l 426 471 m 848 476 l 853 466 l 853 456 l 839 456 l 839 466 q 848 476 840 476 m 315 456 l 300 456 l 300 394 q 311 385 302 385 l 305 375 q 344 346 325 346 l 344 351 l 339 375 q 349 461 344 458 l 315 456 m 363 456 l 363 447 l 368 404 l 373 404 l 378 437 q 363 456 370 456 m 772 461 q 777 442 772 442 l 772 433 l 772 428 q 800 447 777 428 l 800 433 q 781 418 781 430 l 805 418 l 805 408 l 777 408 l 786 394 l 786 389 l 777 389 l 777 399 l 772 399 l 767 370 l 758 370 l 758 399 l 743 389 l 733 389 q 753 404 733 401 l 753 408 q 719 418 719 408 l 753 423 l 743 437 l 753 437 l 762 433 q 772 461 762 461 m 353 437 q 349 366 349 389 l 353 346 l 358 346 q 363 385 358 350 q 358 437 358 427 l 353 437 m 387 413 q 382 385 382 388 q 401 351 389 351 l 401 361 q 392 413 401 369 l 387 413 m 277 389 l 277 327 q 325 235 307 235 l 325 226 l 320 226 l 296 245 l 296 240 q 305 231 305 239 q 300 226 300 231 q 311 216 311 224 l 300 212 q 277 255 284 255 l 272 255 q 262 187 262 203 q 272 182 272 187 q 311 192 301 192 l 311 182 q 267 87 279 182 l 258 87 l 258 77 l 272 77 q 349 125 321 77 l 363 134 q 421 111 391 134 q 493 178 476 111 l 493 197 q 397 302 493 255 q 368 269 389 281 l 363 269 q 300 355 319 269 q 277 389 291 386 m 373 366 l 373 351 l 378 341 q 373 336 373 341 l 392 322 l 392 327 q 378 366 378 354 l 373 366 m 791 366 q 805 361 800 361 l 805 351 q 791 336 805 344 l 781 351 l 781 361 q 791 366 791 361 m 311 351 l 311 346 q 353 279 333 286 l 368 279 q 387 302 374 279 l 387 308 q 358 341 363 341 l 358 336 l 368 322 l 368 317 l 358 317 q 311 351 358 330 m 680 351 l 700 351 q 705 336 700 346 l 694 332 l 685 332 l 675 336 q 680 351 680 346 m 406 332 l 406 322 q 431 298 406 309 l 431 302 q 426 308 426 302 l 431 308 q 450 288 438 308 q 445 283 445 288 q 517 197 475 283 q 555 163 532 197 l 555 159 l 546 144 l 546 130 q 551 111 546 119 q 546 92 546 102 q 560 111 551 92 l 599 87 l 599 101 q 560 134 574 101 l 570 140 q 594 111 579 111 q 599 115 594 115 q 627 87 599 103 l 627 92 q 570 187 614 97 l 484 317 l 450 313 q 406 332 434 313 m 738 336 q 747 302 747 336 l 772 322 l 772 317 l 753 293 l 758 293 q 762 298 762 293 q 777 293 771 293 l 777 283 l 753 283 l 758 274 l 758 264 l 743 274 l 738 240 l 728 240 l 728 250 l 733 274 l 728 274 l 714 264 l 709 264 l 709 269 q 724 279 709 279 l 724 283 q 690 293 690 283 q 714 298 706 293 q 719 293 714 293 q 724 298 719 298 q 728 293 724 293 l 728 298 q 719 308 719 298 l 719 313 l 724 313 l 733 308 l 738 336 m 825 322 q 839 317 834 317 l 839 308 q 829 298 839 298 q 820 308 820 298 l 820 313 l 825 322 m 627 313 l 637 313 l 637 293 l 627 293 q 618 302 618 293 q 627 313 619 313 m 277 293 q 272 264 277 271 l 277 264 q 286 279 281 279 q 281 293 281 288 l 277 293 m 671 255 l 690 255 l 690 240 q 680 231 690 231 q 671 240 671 231 l 671 255 m 820 255 q 834 250 829 250 l 834 231 l 810 226 l 805 250 q 820 255 814 255 m 12 111 l 12 81 q 79 53 12 56 l 127 53 q 180 92 172 92 l 180 96 l 132 101 l 123 101 q 79 96 106 101 l 75 96 l 75 101 l 109 111 q 195 106 186 106 l 200 115 l 200 120 q 185 231 200 166 q 12 111 50 187 m 594 231 l 604 231 l 604 212 q 594 221 594 212 l 594 231 m 733 212 l 743 212 q 747 178 747 193 l 777 202 l 777 197 q 758 168 777 193 l 777 163 l 777 159 l 753 154 l 767 134 l 758 134 l 747 140 q 743 111 743 132 l 733 111 l 733 144 l 719 134 l 719 144 l 724 154 l 700 154 l 700 163 q 724 168 724 163 q 709 182 724 182 l 709 192 l 714 192 l 733 178 l 733 212 m 507 192 q 498 144 507 170 q 541 101 507 144 l 541 106 q 536 134 541 109 l 546 168 l 507 192 m 258 178 q 243 101 258 174 l 253 101 q 277 168 258 101 q 281 173 281 168 l 258 178 m 738 168 l 733 159 l 743 154 l 747 163 l 738 168 m 652 159 l 661 159 q 666 144 661 153 l 656 140 l 652 140 q 642 149 642 140 q 652 159 644 159 m 445 106 q 532 67 445 98 l 541 48 l 541 34 q 555 29 546 34 l 594 43 l 594 48 q 546 77 592 62 q 493 134 498 134 q 445 106 459 106 m 363 125 l 363 115 l 353 120 l 349 111 l 349 106 q 426 34 349 60 l 431 34 l 431 39 q 368 106 368 62 l 368 111 l 373 111 q 440 43 373 68 l 440 39 l 435 29 l 484 29 q 532 48 532 35 q 459 81 499 81 l 469 67 l 464 67 q 363 125 382 125 m 469 111 q 488 92 476 111 l 484 92 q 469 106 476 92 l 469 111 m 243 92 l 243 67 l 238 58 l 262 62 l 296 62 q 363 53 327 62 l 339 92 q 267 67 306 67 q 248 81 248 75 l 253 92 l 243 92 m 137 48 l 123 29 l 127 29 l 142 48 l 137 48 m 378 39 l 378 29 q 411 9 385 9 l 416 9 l 440 14 l 440 19 q 378 39 429 19 z "},"3":{"ha":949,"x_min":3,"x_max":799,"o":"m 361 1163 q 463 1127 463 1153 q 486 1101 469 1127 q 526 1060 491 1101 q 642 1002 585 1060 l 642 970 q 606 868 642 922 q 611 863 611 868 q 575 836 604 863 q 597 805 587 808 q 606 814 599 814 q 647 805 613 814 l 647 801 l 642 792 q 656 787 656 792 l 665 792 l 669 792 q 709 779 686 779 l 745 779 q 750 774 750 779 l 759 779 l 763 779 q 799 658 774 779 q 687 407 769 511 q 593 336 626 336 q 530 371 572 336 q 477 260 505 292 q 549 183 518 248 l 553 157 l 553 121 q 459 9 553 53 q 414 0 439 0 q 334 62 334 10 q 365 94 334 79 l 365 98 l 280 81 l 280 85 l 271 81 l 235 81 q 12 197 61 81 q 3 255 3 237 l 3 282 q 119 465 3 384 q 123 479 123 474 q 61 586 61 541 q 65 600 65 595 l 61 600 q 123 675 61 637 l 128 703 q 70 819 105 703 l 70 832 q 182 953 70 898 l 177 984 q 316 1158 177 1111 l 361 1163 m 186 984 l 191 958 q 227 1006 217 958 q 374 1105 292 1105 l 370 1127 q 387 1145 374 1145 q 378 1154 387 1154 l 356 1154 q 191 1025 235 1154 q 186 984 191 1008 m 392 1145 l 392 1141 q 406 1132 406 1141 l 406 1118 l 401 1118 l 392 1123 l 392 1118 q 401 1109 393 1109 q 450 1127 425 1127 l 459 1123 l 459 1127 q 406 1149 423 1149 q 392 1145 397 1145 m 378 1132 l 378 1114 q 441 1065 407 1065 l 450 1065 q 477 1087 477 1065 q 454 1069 454 1072 q 383 1132 383 1090 l 378 1132 m 423 1109 l 423 1114 q 410 1109 414 1109 l 410 1101 q 454 1082 410 1088 q 473 1101 468 1086 q 459 1118 466 1118 l 437 1118 l 423 1109 m 222 970 q 396 1074 266 1041 q 374 1101 377 1101 q 240 1015 292 1086 l 222 970 m 486 1091 l 486 1074 l 508 1069 q 486 1091 508 1075 m 235 970 l 240 970 l 285 984 q 168 939 285 970 q 79 827 79 881 l 79 823 q 186 662 79 748 q 199 658 191 662 q 271 703 199 661 q 289 743 277 728 q 222 774 254 747 l 218 774 l 218 756 l 208 756 q 294 872 208 783 l 298 895 l 298 899 l 294 899 l 294 890 q 289 895 289 890 q 227 854 265 884 l 218 854 q 401 944 255 899 q 468 1025 468 983 l 477 1025 l 477 1020 q 463 989 477 1008 q 585 962 463 968 q 606 930 606 950 q 557 958 587 958 q 540 917 557 947 q 544 913 544 917 q 540 908 540 913 l 549 913 l 553 913 l 553 903 q 535 890 535 901 l 535 886 l 575 846 l 580 846 q 629 926 609 884 l 638 984 q 513 1056 638 1029 l 486 1051 l 473 1051 q 499 1060 473 1060 l 499 1065 l 477 1069 q 463 1056 477 1063 l 437 1056 q 410 1069 414 1056 q 235 975 280 1039 l 235 970 m 459 980 q 410 944 428 944 l 410 930 q 414 926 410 926 q 410 913 410 918 q 365 922 389 922 q 320 908 363 922 q 330 899 321 899 q 356 913 347 913 q 418 846 388 905 l 410 841 l 365 841 l 356 836 q 311 903 330 863 l 307 903 q 298 863 307 892 q 338 796 317 863 l 338 756 q 450 707 418 707 l 454 707 l 504 770 l 495 787 q 504 801 499 801 l 499 810 q 535 846 499 836 q 526 877 526 868 q 481 854 501 854 l 486 832 l 486 823 q 468 792 486 799 l 463 801 q 477 814 470 801 q 473 908 473 882 l 481 935 q 477 939 477 935 q 486 948 486 939 q 481 953 481 948 q 495 962 495 953 q 459 980 479 962 m 481 908 l 481 903 l 486 903 q 508 926 489 926 l 530 908 l 540 939 l 526 948 q 481 908 492 948 m 504 922 l 477 881 l 481 881 q 517 908 492 908 q 504 922 517 915 m 338 899 l 338 890 q 342 895 342 890 l 392 877 l 392 881 q 356 903 363 903 q 352 899 356 899 l 352 903 q 338 899 343 899 m 334 881 l 334 877 q 356 850 340 859 l 361 850 l 361 859 q 356 863 361 863 l 361 872 l 361 877 q 334 881 340 877 m 535 872 q 566 836 540 836 q 535 872 554 865 m 365 863 l 365 850 l 374 846 q 370 863 370 853 l 365 863 m 227 783 q 302 751 249 751 q 334 783 334 751 q 294 859 311 859 q 227 783 256 821 m 517 827 q 513 832 517 832 l 508 810 q 517 801 509 801 l 522 801 l 530 805 q 544 783 530 783 l 544 779 q 517 774 524 779 l 517 783 l 508 783 l 508 779 q 530 760 517 760 l 530 756 l 517 756 q 513 760 517 760 q 508 756 513 756 q 562 693 525 706 l 566 693 q 580 715 568 715 l 589 715 q 638 684 606 696 l 638 680 l 633 680 q 602 689 616 689 l 580 684 q 566 689 571 689 q 549 671 559 689 q 522 640 522 671 l 522 555 q 477 460 522 498 l 477 465 q 499 510 499 494 l 499 515 q 477 532 490 532 q 441 488 441 513 l 437 488 q 361 524 395 524 q 325 501 353 522 q 338 483 332 483 q 342 488 338 488 q 361 470 342 470 l 361 460 q 271 492 316 492 l 231 492 q 195 470 207 492 l 195 465 l 227 425 l 222 425 l 213 429 q 235 385 221 385 l 253 385 l 253 393 l 244 389 l 240 389 q 320 434 256 418 l 370 434 l 365 425 l 396 362 q 468 460 457 442 l 477 460 l 477 456 q 378 317 417 379 l 378 322 q 396 358 378 326 l 347 429 q 258 398 303 429 l 320 291 l 365 291 q 473 269 398 291 q 553 496 513 315 l 544 492 l 540 492 q 585 595 585 519 l 585 600 l 593 595 l 606 595 q 602 582 602 587 l 593 586 l 593 568 l 602 568 q 616 617 616 568 l 602 626 l 575 622 l 571 622 l 571 631 l 602 631 q 585 644 602 637 q 549 640 559 640 l 549 648 l 580 648 l 580 653 l 535 653 l 535 658 q 606 680 589 680 l 606 675 l 616 680 l 629 680 q 625 675 629 675 q 647 640 632 651 l 647 644 q 629 711 647 667 l 611 698 l 611 703 q 625 738 625 728 q 620 743 620 738 q 625 747 625 743 q 602 760 602 750 l 611 760 q 638 751 626 751 l 669 751 q 678 760 678 751 q 620 774 635 774 l 625 783 l 651 774 l 651 783 q 616 792 618 792 l 616 796 l 638 796 l 638 801 l 620 801 q 606 796 611 796 q 593 801 598 801 q 585 774 585 786 l 575 774 q 580 787 575 779 q 549 836 566 836 l 530 836 l 517 827 m 549 819 q 562 814 557 814 l 562 810 q 549 796 549 810 l 540 796 q 549 819 544 819 m 311 814 l 320 814 l 325 783 l 325 770 q 302 760 302 770 q 267 770 279 770 q 311 805 311 797 l 311 814 m 446 810 l 454 810 q 463 801 463 808 l 454 801 q 446 810 446 801 m 311 796 q 285 774 311 779 l 285 770 l 307 770 q 320 783 313 770 l 320 787 q 311 796 320 796 m 481 787 q 486 783 481 783 q 490 787 486 787 l 490 779 q 463 734 478 739 l 454 734 q 406 774 428 734 l 396 770 q 387 779 387 770 l 414 783 q 418 774 414 774 q 481 787 450 783 m 669 783 q 673 770 673 774 q 683 779 683 770 q 669 783 678 779 m 441 770 l 437 760 q 450 751 450 756 q 468 765 468 758 l 441 770 m 683 765 l 683 760 l 705 756 l 714 756 q 728 770 720 756 l 714 770 l 683 765 m 736 770 l 728 756 l 732 756 q 745 765 732 765 l 745 770 l 736 770 m 728 743 l 745 743 l 759 751 l 754 725 l 741 734 l 736 734 l 736 725 l 741 715 l 723 715 l 723 720 l 732 720 l 732 734 l 728 734 q 718 725 718 732 l 709 729 l 705 729 l 701 684 q 661 711 685 684 l 647 711 q 701 662 690 662 l 696 653 q 728 626 728 639 q 593 474 728 582 q 566 443 570 443 l 566 448 q 575 470 575 462 q 562 488 564 470 l 557 488 q 535 385 557 484 q 540 380 540 385 q 535 376 535 380 q 593 345 578 345 q 763 559 682 375 q 790 658 777 589 q 763 760 790 682 q 768 765 768 760 l 759 770 q 728 743 728 747 m 418 765 l 418 760 q 454 743 437 743 l 463 743 q 473 751 473 743 l 450 747 q 418 765 442 747 m 553 770 q 544 738 553 761 q 549 734 549 738 l 544 734 l 549 725 l 549 720 q 535 743 541 720 q 553 770 545 770 m 330 756 q 298 725 298 734 q 392 644 345 644 q 414 703 392 667 l 330 756 m 661 743 l 629 743 l 629 734 l 633 711 l 651 720 q 692 693 661 720 l 696 693 l 696 707 q 687 751 696 751 q 661 743 673 743 m 718 751 l 709 738 l 723 738 l 718 747 q 723 751 723 747 l 718 751 m 490 743 q 450 698 473 698 l 423 703 q 414 684 414 692 q 477 640 416 669 q 508 577 494 622 l 513 577 l 513 635 q 535 703 513 645 q 490 743 522 703 m 285 725 l 285 707 q 374 608 285 661 l 374 613 q 352 631 353 621 l 352 635 l 356 635 q 392 622 381 622 q 406 626 401 626 l 406 613 q 392 604 406 604 l 383 608 l 378 608 l 378 604 l 401 600 q 414 635 414 602 l 414 653 l 410 675 l 406 675 l 406 648 l 410 648 q 387 631 406 631 q 285 725 354 631 m 173 604 l 173 600 q 204 492 173 555 q 240 501 220 501 l 267 501 q 320 492 290 501 q 298 559 311 507 l 307 559 l 307 550 l 316 555 q 325 510 316 510 q 374 532 345 532 q 432 501 408 520 l 432 505 q 418 519 426 505 l 418 524 l 423 524 l 441 505 l 441 510 q 437 515 437 510 q 473 537 441 515 l 468 559 l 468 582 l 477 582 l 473 572 l 473 568 q 481 559 474 559 q 499 572 481 570 l 499 577 q 446 648 499 615 q 423 658 431 658 l 423 640 q 410 591 423 625 q 280 689 345 591 l 280 698 q 173 604 173 645 m 642 698 l 642 693 q 656 626 656 672 q 647 617 656 617 l 611 635 l 606 635 l 606 631 q 629 613 617 631 q 597 559 616 559 q 575 510 589 559 q 562 501 562 510 l 562 496 q 580 474 574 475 q 696 572 583 479 q 718 631 718 616 q 665 684 703 631 l 647 698 l 642 698 m 132 680 q 177 640 140 657 q 191 653 184 640 l 191 658 q 146 689 166 658 l 141 689 q 132 680 132 688 m 741 689 l 745 689 q 754 635 745 648 l 745 635 l 741 658 l 741 689 m 593 671 q 606 644 606 650 l 616 644 l 606 658 l 606 667 q 647 626 636 626 l 647 631 q 620 671 631 631 l 593 671 m 70 591 q 75 586 75 591 l 70 586 q 191 456 113 456 l 186 465 q 195 492 186 473 q 163 595 163 565 q 173 635 163 606 q 128 667 153 643 q 70 591 70 636 m 571 667 q 602 644 571 659 l 602 648 l 585 667 l 571 667 m 383 617 l 383 613 l 401 613 l 401 617 l 383 617 m 481 550 l 481 546 l 508 519 l 513 519 l 513 572 q 481 550 484 561 m 128 465 l 128 452 q 186 420 147 420 l 208 420 l 208 434 q 128 465 208 445 m 52 393 q 56 389 56 393 q 12 282 26 389 l 12 241 q 119 107 12 165 q 231 90 189 90 l 401 107 q 463 67 463 107 q 406 31 463 39 q 401 36 406 36 l 401 31 q 365 54 365 43 l 365 72 q 383 85 365 78 l 410 72 l 410 76 q 392 90 410 83 l 392 85 l 383 90 q 342 45 347 90 q 406 9 374 9 q 544 112 499 9 l 549 138 q 530 188 549 188 q 535 193 530 193 q 338 282 486 282 l 334 282 q 330 286 330 282 l 320 282 q 316 286 316 282 l 307 282 l 302 282 q 285 286 292 282 l 275 282 l 267 286 l 258 282 q 177 313 177 294 l 177 317 q 267 291 208 291 q 275 340 275 309 q 262 376 275 349 l 244 376 q 208 412 208 378 l 199 412 q 123 448 130 415 l 115 448 q 52 393 65 412 m 285 327 q 275 291 285 313 l 298 291 l 307 295 q 311 291 307 291 l 311 295 q 289 327 300 295 l 285 327 m 392 98 l 392 94 q 418 76 412 94 l 418 54 l 396 45 l 396 40 l 410 40 q 454 67 454 50 l 454 76 q 410 98 444 98 l 392 98 m 374 76 l 370 54 l 387 45 l 387 50 q 378 58 378 50 q 387 67 380 67 q 396 58 396 66 l 387 58 l 387 54 l 396 54 l 401 62 l 401 67 q 392 76 401 76 l 374 76 z "},"4":{"ha":1423,"x_min":3,"x_max":1296,"o":"m 120 1163 q 151 1139 149 1151 l 145 1139 l 126 1151 q 170 983 151 1100 l 176 983 l 182 1027 l 182 1058 q 170 1114 182 1074 l 163 1114 l 163 1101 l 151 1101 l 151 1139 l 157 1139 l 157 1120 l 170 1126 q 195 1046 195 1073 l 189 1046 q 195 1040 189 1040 q 182 983 189 997 l 250 947 q 232 1015 232 981 q 288 1076 240 1076 l 312 1076 q 368 983 368 1042 q 300 916 357 916 q 361 798 336 882 q 380 779 380 798 q 522 909 484 856 l 535 903 q 578 922 553 916 q 690 836 657 922 q 683 829 683 836 q 726 779 722 829 l 702 761 l 690 761 l 646 773 q 578 755 646 761 q 516 823 543 755 l 510 823 q 399 711 510 784 l 399 705 l 405 705 q 454 718 416 705 l 454 711 q 578 730 545 730 q 696 390 578 635 l 696 384 q 690 365 696 377 q 696 347 696 353 q 677 334 677 340 l 677 303 q 652 297 666 297 l 652 260 q 504 279 555 279 l 429 279 q 330 446 378 279 q 312 439 319 439 q 232 501 288 439 l 219 501 l 225 489 l 225 483 l 195 458 l 207 377 l 219 384 q 380 260 299 297 l 380 241 q 355 222 380 222 l 355 216 l 368 216 q 374 222 368 222 l 374 216 l 387 222 l 411 222 q 553 235 522 222 q 559 229 553 229 q 566 235 559 235 q 585 216 566 216 q 677 241 621 241 l 671 254 l 671 260 q 690 309 671 271 q 696 303 696 309 q 831 334 711 314 l 831 340 l 844 334 q 850 340 844 340 q 831 532 838 387 q 844 600 831 541 q 819 650 828 600 l 819 662 q 924 749 819 719 l 918 792 l 918 817 q 956 909 918 859 q 887 990 887 909 q 968 1076 911 1076 l 999 1076 q 1029 1046 1007 1076 l 1029 1027 q 1011 953 1029 1008 q 1098 965 1026 965 l 1085 1002 q 1178 1082 1114 1082 l 1203 1082 q 1259 1040 1239 1082 l 1259 1021 q 1147 941 1259 960 q 1190 872 1172 913 l 1184 872 l 1190 860 l 1190 848 q 1154 711 1190 779 q 1067 650 1154 665 l 1055 594 l 1055 538 q 1017 519 1048 519 l 993 519 l 993 513 q 1061 328 993 456 q 1215 279 1096 303 q 1265 210 1265 252 q 1197 142 1265 191 l 1197 136 q 1296 87 1202 120 l 1296 81 l 1271 81 l 1289 56 q 1271 43 1271 56 q 1023 24 1212 43 l 974 99 l 906 99 l 894 105 l 894 99 q 857 117 857 107 q 646 0 675 0 q 591 18 602 18 l 585 18 q 417 0 554 18 l 380 0 q 355 43 355 10 q 163 24 279 24 l 114 74 q 151 24 114 67 l 139 18 q 40 161 79 70 l 52 161 q 46 192 46 169 q 83 198 51 192 l 83 210 q 46 279 49 210 q 83 371 46 328 l 83 384 q 34 495 56 384 l 34 513 q 108 582 34 564 l 108 594 l 133 594 l 176 588 l 176 594 q 108 718 176 662 q 83 743 108 743 l 83 749 l 96 749 q 71 792 92 792 l 71 798 q 96 836 96 798 q 46 866 46 857 l 46 872 q 52 928 52 909 q 3 983 14 928 q 83 1052 14 1052 l 102 1052 q 151 1033 120 1052 l 151 1040 q 114 1163 151 1055 l 120 1163 m 102 983 q 52 866 52 897 l 114 836 l 114 842 q 102 872 102 861 q 126 829 118 872 l 139 829 l 126 848 l 133 848 l 145 842 q 163 897 145 856 q 157 903 157 897 q 213 947 173 903 l 225 947 l 225 953 q 176 965 195 965 q 133 884 157 884 l 133 891 q 163 977 163 946 l 151 983 l 102 983 m 176 884 q 269 749 269 796 q 250 736 269 736 l 250 730 l 256 730 q 281 736 267 736 q 294 724 294 734 q 232 674 294 674 l 225 674 l 219 699 q 232 711 232 699 q 201 699 201 705 q 133 755 178 699 q 114 749 121 749 q 182 693 145 693 l 170 674 l 170 656 l 176 656 q 195 680 195 656 l 213 668 l 250 668 l 281 674 l 275 662 l 281 662 l 288 674 q 281 680 281 674 q 318 736 318 702 l 318 743 q 300 773 318 773 l 300 786 l 330 792 q 318 779 330 779 q 343 749 330 751 l 343 755 l 337 755 q 349 804 343 804 q 324 842 336 842 q 294 798 294 833 l 281 798 q 201 916 281 844 q 176 884 176 909 m 1011 804 l 1005 804 q 962 872 1005 850 l 962 866 l 949 872 l 943 872 q 930 817 930 832 l 930 792 l 937 779 l 930 779 q 937 730 937 773 l 943 730 q 974 792 943 773 q 962 823 962 812 q 986 779 986 812 l 986 767 l 980 767 l 980 786 q 956 724 956 779 q 1011 674 981 674 l 1005 687 l 1005 693 q 1067 711 1005 711 l 1067 718 l 1017 718 l 1017 724 q 1067 730 1067 724 l 1067 743 l 1073 743 q 1085 724 1073 724 l 1092 724 l 1104 730 l 1104 718 l 1073 718 l 1098 693 l 1098 687 q 1079 674 1098 674 l 1079 668 l 1098 668 q 1147 705 1139 685 q 1116 724 1116 713 q 1178 823 1147 732 l 1178 866 q 1135 836 1172 866 l 1135 842 l 1141 854 q 1135 860 1135 854 q 1147 872 1147 860 l 1147 903 q 1128 916 1147 916 q 1011 804 1058 916 m 522 884 l 522 897 l 516 897 l 504 854 q 535 817 504 836 q 566 767 535 793 l 609 773 l 640 773 l 640 779 q 609 810 640 788 l 603 810 l 572 804 l 572 817 q 603 823 593 817 q 609 817 603 817 q 615 823 609 823 q 671 773 641 787 l 702 773 q 714 792 714 773 q 659 829 714 810 l 640 848 l 640 854 l 671 836 l 677 836 l 677 848 q 627 897 667 872 l 621 897 q 615 891 615 897 q 597 897 603 897 l 591 897 l 591 891 q 609 878 609 891 l 603 878 q 566 891 583 891 q 585 878 566 878 l 585 866 q 541 884 553 884 l 541 891 l 559 891 l 553 903 l 522 884 m 71 891 l 83 891 q 102 884 95 884 l 102 872 q 71 884 81 884 l 71 891 m 163 878 l 163 872 q 189 854 163 863 l 189 860 q 176 878 176 860 l 163 878 m 157 860 l 151 836 l 182 836 l 182 848 q 157 860 172 848 m 189 823 q 238 749 207 763 l 244 749 l 232 779 q 238 804 238 790 q 207 836 238 812 l 201 836 q 189 823 189 833 m 102 829 l 102 810 q 189 767 108 810 q 195 773 189 773 q 225 730 195 758 l 225 724 q 238 736 238 724 l 238 743 q 176 823 212 743 q 157 829 170 823 l 157 817 l 151 817 q 145 823 145 817 l 133 817 l 126 817 l 108 829 l 102 829 m 374 773 q 368 792 368 785 q 349 749 353 792 q 361 736 361 747 l 361 711 l 355 699 l 374 699 q 473 773 454 773 q 460 829 460 789 q 374 767 389 767 l 374 773 m 96 804 l 96 798 q 108 786 98 786 l 120 786 q 96 804 120 795 m 473 786 l 479 786 q 492 798 492 786 l 492 804 q 473 786 483 804 m 102 779 l 102 773 q 108 755 108 762 q 139 767 128 767 l 139 773 q 102 779 111 773 m 145 773 l 145 767 q 189 711 162 725 l 213 711 q 195 749 195 728 q 145 773 168 773 m 1017 755 l 1036 743 l 1048 743 l 1061 749 l 1061 736 l 1029 730 q 1017 743 1017 730 l 1017 755 m 330 736 l 330 711 l 324 711 l 324 705 l 337 705 l 343 718 l 343 736 l 330 736 m 900 724 l 906 711 q 887 699 906 699 l 887 674 l 930 730 l 930 736 l 924 736 l 900 724 m 541 718 l 541 711 l 553 711 l 553 699 l 541 680 l 559 680 q 368 644 559 661 q 306 625 337 625 q 300 656 300 635 l 288 656 q 300 588 300 591 q 324 618 324 596 l 355 612 q 374 637 365 637 q 387 606 387 622 l 399 606 l 393 637 q 405 618 405 637 l 411 618 q 460 650 411 645 l 460 631 l 467 631 q 528 656 492 656 l 541 656 l 559 644 l 566 644 q 578 668 566 653 q 572 724 572 702 l 541 718 m 831 662 l 831 656 q 850 606 831 610 q 881 680 850 655 l 875 693 q 894 705 875 705 l 894 724 l 887 724 q 831 662 831 701 m 906 668 l 906 656 l 912 656 l 937 674 l 943 674 l 924 644 q 993 668 982 668 l 993 674 q 937 718 937 705 q 906 668 906 702 m 504 705 l 498 693 l 510 687 l 516 699 l 504 705 m 467 699 l 467 693 q 479 680 469 680 l 479 699 l 467 699 m 306 693 l 294 674 l 300 674 l 312 693 l 306 693 m 361 687 q 368 668 368 675 l 380 668 q 374 674 380 674 l 380 687 l 380 693 l 374 693 l 361 687 m 522 693 l 522 680 l 492 680 q 479 668 479 679 l 486 668 q 492 674 486 674 l 492 668 q 535 674 499 674 q 528 693 528 686 l 522 693 m 387 687 l 387 668 q 405 662 393 668 l 405 668 q 387 687 405 677 m 417 687 l 417 662 l 429 668 q 423 687 423 680 l 417 687 m 442 680 l 442 668 l 473 668 l 473 674 q 442 680 452 674 m 875 668 q 844 532 844 564 l 844 476 l 850 476 q 894 631 850 590 q 875 668 886 668 m 232 656 l 232 650 l 256 650 l 262 662 q 232 656 252 656 m 887 618 l 887 600 q 906 594 894 600 l 894 563 l 881 569 l 869 569 l 863 526 l 875 532 l 881 532 q 869 507 869 517 l 869 501 l 875 501 l 881 526 l 887 526 l 887 513 q 881 495 881 501 l 869 495 l 857 501 l 857 495 l 863 483 l 857 483 q 924 446 869 446 l 937 446 q 993 476 968 446 q 974 526 978 526 q 1023 612 1018 612 l 1023 606 q 993 538 1023 585 l 993 532 l 1029 532 q 1048 625 1044 532 q 1061 656 1061 625 l 1048 656 l 993 631 q 906 606 993 606 l 906 618 l 912 618 q 980 631 980 622 q 1029 650 980 650 q 1017 662 1029 662 l 1005 662 l 887 618 m 244 644 l 262 618 l 256 606 l 262 606 q 269 612 262 612 q 275 606 269 606 l 281 618 l 281 656 q 244 644 261 644 m 578 656 q 572 600 572 633 l 535 650 q 510 644 524 644 l 510 631 l 516 631 l 528 637 q 535 631 528 631 q 541 637 535 637 l 541 625 q 516 612 516 625 l 516 606 l 528 612 l 535 612 q 547 600 547 610 l 510 600 q 498 644 498 625 l 492 644 q 479 631 492 631 l 479 625 l 504 600 l 492 600 l 473 612 l 467 612 l 467 594 l 454 600 q 442 588 454 588 l 429 588 q 417 606 417 588 l 411 606 l 411 594 q 429 563 429 594 l 436 563 l 436 575 q 442 569 442 575 l 454 575 q 479 563 469 563 l 479 557 l 460 557 l 460 551 l 479 551 q 460 532 479 542 l 448 538 l 448 526 l 442 526 l 442 538 q 343 476 350 476 q 337 452 343 463 l 393 309 l 405 309 q 677 384 447 359 q 690 390 677 390 q 585 656 597 545 l 578 656 m 182 650 l 182 575 l 139 582 l 120 582 q 182 476 163 486 l 207 476 q 219 489 219 476 l 207 495 l 195 489 l 195 501 l 225 507 l 225 513 q 195 582 195 558 q 262 489 253 489 l 275 532 q 219 650 241 650 l 182 650 m 423 631 l 423 612 q 436 600 425 600 l 442 600 q 454 612 454 600 l 454 631 q 442 637 442 631 q 423 631 430 631 m 281 606 l 281 594 l 275 594 l 262 600 l 262 594 q 275 557 275 568 l 288 557 q 294 575 288 564 l 288 606 l 281 606 m 288 526 l 288 507 l 294 476 q 281 495 281 476 l 275 495 l 275 470 q 294 452 275 461 l 288 464 l 288 470 l 312 452 q 343 495 321 452 q 399 532 388 495 l 387 538 l 374 538 q 312 507 328 507 l 312 519 q 374 551 334 519 l 393 551 q 405 532 405 551 l 411 532 q 429 551 420 532 q 349 563 380 563 l 318 557 l 318 569 l 343 569 q 368 575 357 569 l 417 563 l 417 582 q 355 606 360 606 q 288 526 288 576 m 504 588 q 535 545 504 545 l 535 532 q 486 526 491 526 l 486 538 l 504 538 l 504 563 l 492 563 l 492 575 q 504 588 494 588 m 924 588 l 930 588 l 918 569 l 918 563 l 924 563 q 937 582 924 582 l 937 569 q 924 557 937 557 l 918 557 q 906 569 906 557 q 924 588 906 578 m 46 532 l 46 489 l 77 390 l 126 390 l 120 420 l 120 433 l 126 433 l 133 390 q 189 420 189 402 l 189 427 l 182 470 q 145 458 165 470 l 145 476 l 157 470 l 157 476 q 145 489 145 476 l 151 489 q 114 569 127 569 l 108 569 q 46 532 71 569 m 912 519 l 918 519 l 918 495 q 906 483 918 483 l 894 483 q 912 519 897 519 m 541 513 l 578 513 q 591 501 591 511 l 591 489 l 585 476 q 615 458 615 472 l 609 458 q 553 476 568 476 q 566 446 566 456 l 553 446 q 528 507 528 503 l 541 513 m 504 507 q 547 452 530 478 l 547 446 l 541 446 q 522 470 526 446 q 486 439 509 470 l 486 446 q 504 507 490 507 m 541 501 l 541 495 l 547 483 q 585 489 556 489 l 585 501 l 541 501 m 454 501 l 479 501 l 479 495 q 460 489 473 495 q 473 439 473 466 l 442 489 l 429 483 l 423 495 l 454 501 m 393 495 l 417 495 l 417 489 q 380 470 380 483 q 442 458 442 470 l 442 452 q 393 427 442 433 l 387 439 q 429 458 429 439 q 423 464 423 458 l 393 458 l 387 458 q 374 470 374 458 l 374 476 q 393 495 374 486 m 844 464 l 844 452 q 881 340 844 340 l 887 340 l 912 433 q 844 464 880 439 m 924 433 q 1005 321 997 321 q 1042 340 1011 340 q 993 458 993 439 q 924 433 947 433 m 633 452 q 665 390 665 412 q 553 377 583 377 q 535 427 535 419 q 633 452 613 441 m 597 433 l 597 427 l 615 427 q 633 433 627 433 l 633 439 l 627 439 q 597 433 617 433 m 510 433 q 522 420 510 420 l 516 408 q 528 371 528 388 q 417 334 447 361 l 411 334 q 492 371 439 371 l 492 377 l 473 377 q 405 353 411 353 l 405 340 l 411 328 l 405 328 q 374 390 395 328 l 387 396 q 399 371 387 371 q 479 396 399 390 l 479 402 l 460 402 l 393 384 q 411 396 393 396 l 411 402 l 405 402 q 387 396 393 396 q 510 433 387 413 m 553 427 l 547 414 q 591 420 555 420 l 591 427 l 553 427 m 918 420 q 900 334 900 363 q 930 260 926 334 q 819 180 894 180 l 819 167 q 875 149 848 167 l 900 149 q 968 204 937 163 q 980 235 968 220 q 974 241 980 241 l 986 272 l 980 285 l 999 315 q 924 420 924 401 l 918 420 m 553 402 q 559 384 559 390 q 652 396 572 390 l 652 408 q 640 414 640 408 q 553 402 606 402 m 486 408 l 486 402 l 510 402 l 510 408 l 486 408 m 492 396 l 492 390 l 516 390 l 516 396 l 492 396 m 460 390 l 460 384 l 486 384 l 486 390 l 460 390 m 139 371 l 151 365 l 157 377 l 157 384 l 151 384 q 139 371 139 382 m 399 359 l 405 359 q 454 377 436 377 l 454 384 l 442 384 q 399 359 399 369 m 442 315 q 665 365 487 334 l 665 371 q 442 315 442 340 m 603 347 l 603 340 l 652 340 l 683 347 l 683 365 q 603 347 640 347 m 58 279 l 58 260 q 102 192 69 260 q 201 155 171 155 q 275 186 248 155 q 189 315 275 216 l 189 309 q 219 235 219 283 l 219 222 q 157 198 219 205 q 71 315 91 198 q 90 359 90 347 q 58 279 71 359 m 578 328 l 578 321 q 677 309 650 321 l 677 315 q 665 334 665 315 q 578 328 635 328 m 838 328 l 838 303 l 819 315 q 683 272 683 306 l 683 248 q 789 186 733 201 q 924 272 924 209 q 918 279 918 272 q 924 285 924 279 l 918 285 q 894 279 905 285 q 875 285 882 285 l 875 291 q 912 303 912 291 l 912 309 q 894 328 912 318 q 887 309 887 316 l 863 309 q 850 328 850 309 l 838 328 m 405 291 q 442 285 433 291 q 448 303 442 291 q 436 315 436 303 q 405 291 408 304 m 492 309 l 492 303 l 510 303 l 516 315 q 492 309 505 309 m 597 309 l 597 303 l 646 303 l 646 309 l 597 309 m 1017 297 q 999 303 1005 303 l 993 291 q 1023 272 993 272 l 1023 266 q 986 241 986 266 l 986 229 l 1135 229 l 1166 222 l 1166 229 l 1178 222 l 1190 222 l 1203 229 l 1215 210 l 1215 198 q 1197 161 1197 174 q 1253 216 1253 186 q 1246 222 1246 216 l 1253 222 q 1104 291 1253 268 q 1055 260 1101 276 l 1048 272 l 1092 285 l 1092 291 q 1067 309 1092 307 q 1017 297 1027 297 m 294 297 l 294 291 l 300 279 l 269 266 q 232 279 258 266 l 232 272 q 281 216 239 272 l 300 216 q 368 235 320 216 l 368 248 q 294 297 361 262 m 448 291 l 448 285 l 460 285 q 498 291 493 291 q 640 272 622 285 l 640 297 l 522 297 l 448 291 m 782 303 l 789 303 q 887 254 842 303 l 887 248 q 782 297 854 279 l 782 303 m 1147 272 l 1160 272 l 1160 260 q 1154 266 1154 260 q 1055 241 1080 258 l 1055 254 q 1147 272 1095 272 m 58 254 l 58 235 l 71 229 q 64 254 64 239 l 58 254 m 659 235 l 659 222 q 677 210 677 222 l 683 210 l 696 216 q 708 186 708 197 l 696 180 q 690 186 696 186 l 690 180 q 696 173 696 180 q 732 186 721 186 l 739 186 l 739 180 q 683 161 694 161 l 683 180 q 671 167 671 178 q 702 142 671 159 q 751 180 702 167 l 745 167 q 776 173 755 173 q 659 235 771 184 m 591 198 l 597 210 l 591 210 q 492 149 492 157 l 504 155 l 566 123 q 535 93 566 117 q 473 123 488 123 l 486 142 l 473 142 q 454 117 473 133 l 553 81 l 566 81 l 566 99 q 609 161 566 128 q 603 167 603 161 l 609 167 q 627 161 621 161 q 609 149 627 149 l 609 142 l 621 142 q 640 155 621 155 l 646 155 l 646 149 q 615 130 629 149 l 603 136 l 591 136 l 597 123 q 585 111 585 122 l 585 99 q 615 81 585 85 q 646 99 646 81 l 652 99 l 671 87 l 677 87 q 702 123 679 110 q 726 99 702 117 l 739 105 l 751 105 q 739 93 751 93 q 696 111 718 93 q 621 62 685 62 l 603 62 l 603 50 q 652 31 610 50 q 795 111 786 111 l 795 117 q 720 155 720 117 l 714 155 q 696 130 714 130 l 690 130 q 652 155 690 155 l 665 173 q 652 198 652 173 l 633 186 l 627 186 l 640 204 l 640 216 q 591 198 605 198 m 863 123 l 863 117 l 881 117 q 974 198 963 158 l 980 198 q 1036 31 993 31 l 1036 37 q 1023 50 1023 37 l 1023 56 l 1048 37 l 1048 43 l 1023 62 q 1017 56 1023 56 q 986 155 993 115 q 999 210 993 197 l 986 216 q 863 123 920 123 m 355 204 l 368 173 q 343 167 354 173 q 324 198 335 198 l 324 192 q 330 186 330 192 q 306 173 306 186 l 318 173 l 330 180 l 330 167 q 318 161 318 167 l 306 167 l 300 167 q 368 24 368 35 q 405 37 388 37 l 405 50 l 393 43 l 368 43 l 368 56 q 405 68 385 56 l 405 62 l 417 68 q 436 62 429 62 q 442 68 436 68 l 448 56 l 436 50 l 429 50 l 417 56 l 411 43 q 541 50 471 50 l 541 56 q 454 87 454 56 q 448 93 454 93 l 454 105 l 454 111 l 448 111 l 448 99 l 442 99 q 417 149 442 117 l 417 155 q 448 173 437 173 l 448 180 q 423 210 423 180 l 417 210 l 417 192 q 423 186 423 192 q 374 173 397 186 l 368 186 l 368 204 q 380 186 380 204 q 393 198 393 186 l 393 210 l 387 210 l 355 204 m 522 210 l 522 198 q 535 186 524 186 l 541 198 q 528 210 541 210 l 522 210 m 1005 210 q 999 198 1005 198 l 1005 186 q 999 180 1005 180 l 1005 167 q 999 161 1005 161 q 1067 37 1021 65 q 1184 81 1153 62 l 1184 87 l 1172 87 q 1166 81 1172 81 q 1135 130 1135 113 l 1147 123 l 1154 123 l 1154 130 q 1128 142 1144 130 l 1104 123 l 1098 123 q 1122 161 1122 149 q 1128 155 1128 161 q 1160 161 1139 161 l 1147 180 q 1154 186 1154 180 l 1141 186 l 1122 173 q 1116 180 1122 180 q 1085 161 1116 161 l 1085 173 q 1092 167 1092 173 q 1110 173 1103 173 l 1110 186 l 1092 186 l 1092 198 l 1104 198 l 1104 204 l 1067 204 l 1067 192 l 1079 192 q 1042 161 1079 184 l 1029 161 q 1017 173 1017 161 l 1023 173 q 1042 167 1036 167 q 1061 186 1042 176 q 1055 204 1055 197 l 1017 204 l 1005 210 m 288 204 l 288 192 q 306 198 299 198 l 306 204 l 288 204 m 486 204 q 454 186 486 186 l 454 180 q 479 155 479 180 q 510 192 510 172 l 510 204 l 504 204 l 504 186 l 498 186 q 486 204 498 204 m 659 186 l 671 186 q 690 192 683 192 l 690 204 l 683 204 q 659 186 659 195 m 1110 192 l 1122 186 l 1128 186 l 1128 204 l 1122 204 q 1110 192 1110 202 m 615 198 l 621 198 q 603 167 603 178 l 597 167 l 597 186 l 615 198 m 52 186 q 71 149 71 157 l 83 149 q 102 186 83 165 l 52 186 m 90 136 l 90 130 q 114 105 90 120 q 126 136 126 121 l 139 136 q 157 117 139 117 l 157 105 q 133 87 133 102 q 170 37 142 37 l 176 37 l 176 43 q 157 74 157 43 l 163 74 l 176 68 q 195 105 176 105 l 201 105 l 201 99 l 189 99 l 189 81 q 225 93 209 93 q 244 68 235 68 l 244 74 l 232 99 l 238 99 q 256 74 247 99 q 281 81 267 81 l 281 99 l 256 99 q 269 111 258 111 l 275 111 q 294 93 283 111 l 294 87 q 225 56 264 56 l 225 50 q 330 74 315 74 l 330 87 l 318 81 q 288 111 310 81 l 288 117 l 306 105 l 312 105 l 312 111 q 288 173 312 123 q 275 155 275 173 l 288 130 l 269 117 l 262 117 l 275 136 l 262 161 q 232 149 242 149 l 232 142 q 250 136 238 142 q 256 142 250 142 l 256 130 q 207 105 227 130 q 195 117 195 105 l 213 142 l 182 142 l 176 105 q 163 117 163 105 l 176 149 q 114 173 148 149 l 108 173 q 90 136 90 167 m 429 149 l 429 142 q 442 130 431 130 q 473 155 470 142 l 460 173 q 429 149 432 161 m 782 167 l 782 161 l 770 161 l 758 167 l 758 155 l 770 155 l 770 149 l 751 149 l 739 155 l 739 149 q 789 130 743 130 l 801 130 q 782 142 801 142 l 782 161 l 807 161 l 807 167 l 782 167 m 894 117 l 894 111 l 968 111 l 980 105 q 974 173 974 127 q 894 117 918 117 m 387 167 q 393 161 387 161 q 399 167 393 167 q 405 161 399 161 l 387 136 l 355 149 l 355 142 q 361 136 361 142 l 349 130 l 349 136 l 337 130 q 324 142 324 130 q 387 167 324 155 m 813 161 l 819 149 l 813 149 q 795 155 801 155 q 819 130 795 145 q 844 142 834 142 q 813 161 844 157 m 1085 161 l 1092 149 l 1092 142 l 1079 149 q 1067 123 1067 134 l 1061 123 l 1061 142 l 1055 142 l 1055 130 l 1042 136 l 1036 136 l 1036 130 q 1042 123 1036 123 l 1036 111 l 1036 105 q 1079 56 1053 105 q 1061 50 1073 56 q 1017 136 1017 123 l 1023 136 q 1085 161 1064 161 m 659 149 q 677 136 659 136 l 677 123 l 665 130 q 652 117 652 128 l 665 123 l 671 123 q 621 93 671 115 l 609 93 q 597 105 597 93 l 597 111 l 615 99 l 621 99 l 621 105 q 603 117 603 105 q 659 149 651 149 m 857 142 l 857 130 l 875 130 q 863 142 875 142 l 857 142 m 1104 149 l 1110 149 q 1092 130 1110 140 l 1092 136 q 1104 149 1093 149 m 1160 117 q 1166 99 1166 106 q 1203 117 1203 107 q 1190 130 1190 117 l 1160 117 m 355 130 l 368 123 l 405 123 l 405 111 q 343 93 364 105 l 343 111 l 355 130 m 114 99 q 126 87 116 87 q 139 111 126 96 l 139 117 q 114 99 123 99 m 683 123 l 690 123 q 677 99 677 109 l 665 99 l 665 105 q 683 123 665 114 m 1048 123 l 1055 123 q 1110 93 1084 93 l 1116 93 l 1116 99 l 1098 99 l 1098 117 q 1122 99 1122 109 l 1122 87 l 1116 87 q 1048 123 1064 87 m 1215 105 l 1215 99 q 1259 87 1255 87 l 1265 87 l 1265 93 q 1221 105 1246 93 l 1215 105 m 479 99 l 479 93 q 498 87 486 93 l 498 93 l 486 99 l 479 99 m 1190 99 q 1197 81 1197 87 l 1215 81 l 1215 87 q 1203 99 1203 87 l 1190 99 m 429 93 l 436 81 l 355 62 l 355 74 q 368 87 357 87 l 374 87 l 374 74 q 429 93 394 89 m 207 81 l 207 62 l 213 62 q 225 74 225 62 l 213 81 l 207 81 m 473 81 l 473 74 l 498 62 l 510 62 l 510 68 q 473 81 493 68 m 559 74 l 559 68 q 597 62 578 62 l 603 74 l 578 81 q 559 74 566 74 m 1178 62 l 1178 56 l 1184 56 l 1265 68 q 1271 62 1265 62 l 1271 68 q 1253 74 1259 74 q 1178 62 1246 74 m 201 56 l 195 43 l 219 43 l 219 50 q 201 56 213 50 m 429 37 l 429 31 l 486 31 l 486 37 l 429 37 m 374 12 l 467 12 l 467 18 l 405 18 l 405 24 l 423 24 l 423 31 l 405 31 q 374 12 374 23 m 646 24 l 652 12 q 646 6 646 12 q 671 12 657 12 l 665 24 q 671 31 671 24 q 646 24 660 24 z "},"5":{"ha":1061,"x_min":3,"x_max":905,"o":"m 613 1163 q 764 1132 654 1163 q 832 1163 799 1163 q 900 1132 900 1153 l 900 1105 q 780 1027 900 1046 l 780 991 l 821 949 q 837 954 831 954 q 873 918 853 954 l 879 918 l 873 907 l 873 897 q 879 892 873 892 l 873 882 l 873 876 q 895 793 895 838 q 733 574 895 656 q 696 558 696 570 l 686 564 l 681 564 q 665 537 669 564 q 764 422 688 484 l 770 422 q 785 454 772 454 l 785 433 l 790 433 q 832 475 790 450 q 905 448 905 466 q 884 433 884 441 l 884 417 q 900 329 900 350 q 873 256 900 317 q 811 120 873 173 q 817 115 817 120 q 749 62 749 101 q 696 16 710 16 l 702 5 l 702 0 q 696 5 696 0 l 686 0 l 675 0 q 613 10 613 0 l 602 5 l 597 5 l 597 16 l 608 16 l 608 21 q 561 99 581 35 q 524 130 561 125 l 524 125 q 509 130 514 130 q 493 125 498 125 l 493 130 q 352 99 370 110 l 352 89 q 373 78 373 89 l 373 73 l 274 99 q 253 94 264 94 l 253 99 l 243 94 q 227 99 233 99 l 227 110 l 253 104 l 264 110 q 269 104 264 104 l 269 115 q 201 261 201 203 q 248 334 208 334 l 258 329 q 311 360 290 360 q 352 345 336 345 q 368 349 357 345 q 410 292 392 349 l 404 292 q 415 261 410 261 l 410 235 l 410 198 l 462 198 l 462 203 q 441 266 441 239 l 441 318 l 446 329 q 383 349 412 349 q 446 490 391 418 q 290 584 355 515 l 216 673 q 170 657 193 657 q 133 688 144 657 q 102 741 121 689 q 86 762 89 741 q 107 787 92 787 q 50 886 79 886 q 3 981 23 921 q 180 1033 3 1005 q 212 1027 208 1027 q 264 1043 228 1036 q 378 981 364 1043 l 378 975 l 373 975 l 394 897 l 389 897 q 420 798 410 798 q 425 840 420 819 l 420 840 q 498 970 443 933 q 503 975 503 970 q 441 960 466 960 l 441 965 q 534 1006 471 1006 q 519 1043 519 1029 l 524 1043 q 602 1012 572 1012 l 602 1017 q 597 1033 597 1027 l 566 1033 q 493 1090 493 1053 l 483 1090 q 404 1017 410 1050 l 394 1017 l 394 1027 q 425 1105 394 1063 l 420 1105 q 347 1080 378 1101 l 347 1090 q 477 1158 412 1158 q 534 1147 484 1158 q 613 1163 570 1163 m 378 1111 l 378 1105 l 383 1105 q 441 1116 404 1116 l 441 1111 q 404 1043 404 1057 q 493 1105 448 1086 q 519 1142 493 1111 q 477 1147 515 1142 q 378 1111 446 1147 m 503 1105 l 503 1085 q 582 1043 532 1043 l 592 1043 q 681 1090 592 1077 l 681 1095 q 686 1090 686 1095 l 712 1095 l 718 1095 q 801 1074 768 1095 l 785 1043 l 790 1043 q 889 1111 875 1043 l 889 1116 q 858 1147 889 1147 l 827 1147 l 774 1132 l 780 1121 l 780 1116 q 634 1147 678 1147 l 571 1147 q 503 1105 503 1128 m 602 1059 l 608 1022 l 686 1022 q 770 996 716 1022 q 785 1074 770 1036 l 780 1074 q 712 1085 756 1085 q 602 1059 675 1085 m 206 1012 q 175 1022 189 1022 l 159 1022 l 159 1012 l 138 1012 q 13 975 65 1012 q 92 882 45 882 l 102 882 q 159 965 149 882 q 154 986 154 974 l 154 991 q 164 1002 155 1002 l 196 1002 l 196 970 q 258 876 201 876 l 258 882 l 269 876 q 347 960 315 876 l 342 970 l 342 981 l 357 1002 l 357 1006 q 274 1033 326 1033 q 206 1012 210 1025 m 540 1017 l 540 1012 q 561 996 561 1009 l 534 996 q 462 970 476 996 q 530 986 476 979 l 530 975 q 456 902 503 975 q 462 897 462 902 q 431 803 442 897 q 451 720 451 774 l 456 720 q 493 741 456 741 l 493 756 q 488 762 493 762 l 493 772 l 493 808 q 587 949 525 949 l 597 949 q 650 866 650 949 q 602 720 650 793 q 665 694 645 720 q 670 735 665 730 l 665 735 q 728 861 696 838 l 733 861 l 733 855 q 681 746 692 802 q 718 767 699 767 l 728 767 q 743 751 735 767 l 743 720 q 712 663 736 663 l 712 657 l 718 657 q 817 741 763 657 q 837 840 837 802 q 795 892 837 892 q 738 861 768 892 l 733 861 l 733 866 q 801 902 759 902 q 848 834 848 902 q 774 667 848 751 l 785 667 l 785 652 q 764 600 785 622 l 770 600 q 879 787 879 688 l 879 840 l 873 840 l 869 803 l 858 803 l 863 829 l 863 902 q 832 944 863 933 q 738 897 780 932 l 733 897 l 733 902 q 806 944 780 944 l 806 949 q 654 1017 731 1017 l 644 1012 l 613 1012 l 613 1002 q 654 939 637 1002 l 654 923 q 629 975 650 923 q 592 996 612 996 q 503 918 559 991 l 503 923 q 576 1006 517 958 q 545 1017 562 1006 l 540 1017 m 243 1012 l 258 1012 q 332 986 332 1008 l 332 981 q 264 892 315 892 l 253 892 q 206 939 235 898 l 212 939 l 206 949 l 206 991 q 243 1012 214 1012 m 212 981 q 253 902 212 931 l 258 902 q 321 970 321 919 l 321 991 l 295 996 q 264 944 295 982 l 264 954 l 290 1002 l 274 1002 q 264 986 274 986 l 264 1002 l 243 1002 q 212 981 220 1002 m 128 996 q 144 991 138 991 l 144 970 q 113 892 144 914 l 102 892 q 34 970 56 892 l 39 970 q 128 996 96 996 m 164 991 l 164 949 q 113 876 164 886 q 149 808 135 823 q 170 814 151 808 q 191 808 179 808 q 222 824 196 824 l 232 824 q 315 725 277 745 l 321 725 q 332 756 321 745 q 311 787 323 756 q 315 793 315 787 l 311 793 q 347 819 317 819 l 368 819 l 368 824 q 352 934 352 916 q 269 866 305 866 q 185 975 185 866 l 185 991 l 164 991 m 357 991 q 352 981 357 981 q 363 939 352 971 l 357 939 l 383 814 q 399 808 389 814 l 399 814 l 363 991 l 357 991 m 86 902 l 92 902 q 133 960 133 902 l 133 986 l 128 986 q 86 902 117 986 m 45 965 q 81 907 56 929 q 113 981 92 941 l 107 981 q 81 923 96 981 l 76 923 l 76 928 l 92 981 q 45 965 62 965 m 264 986 l 264 981 q 248 960 256 960 l 248 965 q 264 986 256 986 m 248 954 l 248 949 q 243 934 243 939 l 232 934 l 232 939 q 248 954 232 946 m 253 944 l 264 944 l 264 939 q 248 918 256 918 l 248 928 q 253 944 253 939 m 498 803 q 503 798 498 798 l 498 772 q 545 704 498 715 q 534 746 534 723 l 534 756 q 582 819 547 819 q 613 772 613 806 l 613 767 l 608 756 l 613 756 q 639 876 639 817 q 592 939 639 939 q 498 803 531 939 m 86 871 q 117 787 117 804 q 138 798 138 791 q 107 871 107 857 l 86 871 m 138 725 l 123 725 l 123 715 q 159 694 131 694 q 201 735 201 716 l 175 735 l 175 741 q 212 777 212 741 q 222 767 222 775 l 206 741 l 206 735 l 232 730 q 253 735 241 735 q 222 720 248 720 q 216 725 222 725 l 216 720 q 232 704 224 720 q 227 683 232 692 q 415 511 311 549 q 446 500 424 511 l 451 500 l 451 506 q 363 642 416 506 q 311 688 311 647 l 321 709 q 237 798 265 739 q 222 814 237 806 l 212 814 q 164 730 164 780 l 138 725 m 321 793 q 326 787 326 793 l 321 787 q 342 762 331 764 l 347 772 l 336 772 l 336 783 l 342 783 l 357 772 q 373 777 368 777 l 373 767 q 332 735 342 767 q 336 730 336 735 l 326 730 l 326 715 q 357 725 343 725 l 368 725 l 368 720 q 321 683 321 709 q 363 652 332 652 q 347 667 363 667 l 347 678 l 352 678 q 378 621 369 678 q 514 475 437 500 q 602 448 554 459 l 602 454 q 644 448 608 448 l 644 444 q 623 438 626 438 l 597 444 l 597 438 q 670 380 629 380 l 686 407 l 681 407 l 686 417 q 681 422 686 422 l 686 433 q 597 543 651 543 q 435 667 445 620 q 441 767 441 751 q 342 808 397 808 q 321 793 321 801 m 159 803 q 175 787 159 795 l 175 793 q 164 803 175 803 l 159 803 m 113 777 q 107 783 113 783 q 96 751 96 765 q 133 735 116 735 l 149 735 q 164 783 159 735 q 149 787 155 787 l 113 777 m 456 678 q 540 595 456 664 q 634 537 540 584 q 686 589 648 537 q 681 595 681 589 l 629 553 q 519 636 587 553 q 467 667 484 636 l 467 678 q 472 699 467 690 q 467 715 467 709 l 488 715 q 498 704 498 713 l 498 699 l 493 699 l 483 704 q 477 673 477 677 q 534 642 488 642 q 540 647 534 647 l 540 642 l 551 647 l 561 642 l 561 647 q 702 595 623 637 q 743 631 743 608 q 728 636 733 636 q 738 647 729 647 l 753 647 q 696 579 753 599 l 686 579 l 686 574 l 691 574 q 774 647 774 596 l 774 663 l 770 663 q 707 647 720 647 l 696 647 q 618 709 640 709 l 602 709 q 540 694 553 694 q 488 730 517 703 l 477 730 q 456 678 456 725 m 201 715 q 149 683 186 683 l 149 673 l 175 667 q 222 694 209 667 l 222 709 l 201 715 m 446 673 l 446 663 l 462 652 l 462 657 q 451 673 451 657 l 446 673 m 561 678 l 571 678 q 696 626 658 678 l 686 621 q 555 667 663 667 l 534 663 l 534 673 l 561 678 m 472 636 l 472 631 l 514 600 l 519 600 l 519 605 q 472 636 510 605 m 540 636 q 618 568 574 568 l 634 568 q 665 595 652 595 q 618 621 644 621 q 602 600 618 600 l 597 600 q 592 631 597 604 l 576 631 l 540 636 m 650 527 q 660 516 651 516 l 660 537 q 650 527 650 536 m 660 511 q 686 480 673 480 q 681 475 686 475 q 691 438 691 454 q 712 459 699 438 q 670 511 670 494 l 660 511 m 456 490 q 425 428 425 444 q 576 386 507 386 l 618 386 l 618 391 q 566 422 607 422 q 441 464 467 441 l 451 464 q 467 459 461 459 q 472 464 467 464 q 551 433 472 448 l 551 438 q 571 428 571 434 q 587 433 581 433 l 587 444 q 472 490 472 469 l 456 490 m 817 448 q 811 454 817 454 q 785 417 798 417 l 774 422 l 774 412 l 780 401 q 774 396 774 401 q 858 318 812 396 q 869 281 869 302 l 873 281 q 889 349 889 328 q 873 412 873 396 l 873 433 l 884 448 l 879 448 l 842 438 q 873 454 848 454 l 873 459 l 848 459 q 817 448 839 459 m 654 370 q 634 386 634 378 q 587 376 615 376 q 420 422 508 376 q 410 391 410 406 q 587 339 507 339 q 733 422 680 339 l 733 433 q 718 448 733 440 q 686 380 698 448 q 654 370 669 370 m 738 422 q 639 339 738 383 q 576 334 602 334 q 410 380 500 334 l 399 380 q 394 360 399 369 q 551 302 529 302 l 566 302 q 707 355 652 302 q 753 422 753 396 l 738 422 m 753 396 q 576 292 686 292 l 551 292 q 456 323 522 292 l 451 313 l 451 297 q 551 136 451 178 l 551 141 q 545 161 545 150 l 545 193 l 551 203 l 545 203 q 608 281 559 281 q 639 277 612 281 q 691 297 675 297 l 702 297 q 780 245 745 250 q 790 198 790 211 l 790 172 q 770 110 790 146 q 863 256 863 157 l 863 261 q 753 396 863 349 m 295 349 q 222 313 276 313 l 212 261 q 216 256 216 261 l 212 256 q 300 99 227 173 l 321 99 q 383 125 338 99 l 378 136 q 404 235 394 180 q 399 250 399 245 l 404 250 l 394 287 l 399 287 q 368 339 390 322 l 342 334 q 295 349 304 349 m 634 266 q 602 271 630 266 q 555 198 573 271 l 561 198 l 555 188 l 555 182 q 618 21 555 99 q 660 5 644 5 q 764 125 703 5 q 780 193 780 151 q 733 256 780 245 q 707 287 713 256 l 696 287 q 634 266 691 287 m 404 188 l 389 125 l 394 125 q 488 136 446 136 l 514 136 q 441 188 479 188 l 404 188 m 832 130 l 837 120 l 837 115 q 821 120 827 120 q 832 130 823 130 m 159 120 l 175 120 l 175 110 l 159 110 l 159 120 m 185 120 l 196 120 q 201 115 201 120 l 212 120 l 216 120 q 227 110 227 118 l 196 110 q 185 120 185 110 m 149 99 l 154 99 l 154 89 l 138 89 q 149 99 140 99 m 420 99 q 435 94 430 94 l 435 83 l 420 83 q 410 94 410 83 q 420 99 420 94 m 811 99 q 827 94 821 94 q 817 83 827 83 q 806 94 806 83 q 811 99 811 94 m 441 78 q 451 68 451 77 l 431 68 q 441 78 432 78 m 86 73 l 107 73 l 107 68 l 86 62 l 86 73 m 389 68 l 394 68 l 394 62 l 389 52 q 394 47 394 52 l 378 47 l 378 58 q 389 68 380 68 m 774 68 l 790 68 q 780 58 790 58 l 774 68 m 817 62 l 821 52 l 806 52 q 817 62 808 62 m 873 37 l 879 26 l 858 26 l 858 31 q 873 37 863 31 z "},"6":{"ha":969,"x_min":3,"x_max":829,"o":"m 3 1163 l 829 1163 l 829 0 l 3 0 l 3 1163 m 7 1159 l 7 4 l 610 4 q 628 9 621 4 q 646 4 635 4 l 825 4 l 825 1159 l 383 1159 l 383 1154 q 427 1124 404 1154 l 440 1124 q 475 1133 444 1124 q 479 1128 479 1133 q 553 1154 542 1154 l 553 1150 q 558 1145 553 1145 q 471 1001 525 1055 l 471 997 q 497 940 497 954 q 501 827 497 900 q 458 791 501 797 l 458 774 l 462 774 q 553 818 489 783 l 571 818 q 641 761 593 818 q 680 629 663 761 q 637 599 657 599 q 597 634 616 599 q 615 682 610 682 l 615 691 q 567 761 585 743 q 492 695 492 722 l 501 691 q 488 647 494 675 l 492 638 q 475 604 475 607 l 479 604 q 435 547 469 576 q 510 450 510 484 q 536 389 523 450 q 553 319 547 389 l 553 315 l 576 319 l 580 311 q 567 280 580 296 l 567 210 q 628 258 573 210 l 632 258 q 680 210 659 258 q 610 75 657 75 q 567 52 567 59 q 571 35 571 45 q 567 31 567 35 q 466 52 503 52 q 449 26 449 38 l 453 26 q 471 22 460 22 l 523 22 l 523 13 l 484 9 q 435 43 435 9 l 435 75 q 427 83 435 83 q 405 66 427 66 l 401 66 q 387 109 387 94 q 410 127 399 127 l 418 131 q 422 127 418 127 q 449 293 449 178 q 435 319 440 293 q 444 354 444 335 q 431 407 437 407 l 435 416 l 435 420 q 427 429 435 429 l 431 437 q 374 534 414 455 q 331 542 366 534 q 326 538 331 538 l 331 529 l 331 516 l 317 498 l 335 472 l 335 455 q 300 393 311 435 q 243 368 260 368 q 221 380 232 368 q 252 437 252 433 q 208 477 208 437 l 212 477 q 199 511 199 501 q 230 538 223 538 l 212 564 q 304 616 212 589 q 309 612 304 612 q 326 652 309 628 l 322 652 q 239 604 285 614 q 182 673 182 619 q 173 748 179 748 q 142 791 142 767 l 142 795 q 156 809 142 802 q 151 822 151 817 l 173 861 q 195 879 179 861 q 256 883 201 879 q 304 835 256 878 l 304 831 l 300 831 q 309 791 304 823 l 283 748 l 287 739 q 260 677 274 691 l 265 677 q 335 752 322 719 q 357 770 347 770 l 357 791 l 353 791 q 339 783 339 787 q 309 809 315 791 l 313 818 l 309 844 q 374 813 332 844 l 374 818 q 335 861 369 818 q 287 922 291 891 q 235 909 266 915 l 226 914 q 212 909 221 914 q 156 931 158 918 l 160 931 q 156 945 156 940 q 208 1032 185 1032 q 235 1058 208 1045 q 326 1137 288 1099 q 366 1154 357 1154 l 366 1159 l 7 1159 m 292 1093 l 296 1093 q 348 1106 304 1102 q 414 1120 348 1114 l 414 1124 q 374 1150 408 1139 q 292 1093 326 1127 m 528 1137 l 528 1133 l 536 1133 q 523 1124 536 1124 l 514 1128 q 497 1124 507 1124 l 501 1115 l 501 1111 l 462 1115 l 453 1115 l 453 1111 l 462 1111 l 462 1102 l 449 1102 l 435 1111 q 401 1106 412 1106 l 401 1102 l 414 1102 q 401 1093 414 1093 q 378 1102 387 1102 l 353 1097 l 353 1093 l 361 1093 l 361 1084 q 322 1088 346 1084 q 304 1067 304 1088 l 278 1067 q 239 1045 239 1058 l 248 1049 l 252 1049 l 252 1045 q 217 1032 252 1036 l 208 1019 l 212 1019 l 221 1023 l 221 1010 q 182 984 193 1010 l 186 984 q 195 993 188 993 l 195 984 q 173 970 195 970 l 173 962 l 182 962 l 182 958 l 165 940 l 165 936 q 208 918 191 918 q 287 931 259 922 l 274 975 l 269 975 l 269 966 l 265 966 l 265 979 q 427 1067 340 1067 l 444 1067 q 475 1027 475 1067 l 484 1027 q 541 1133 541 1112 l 541 1137 l 528 1137 m 401 1040 q 374 1045 397 1040 q 331 1027 363 1045 q 348 922 336 945 l 335 914 q 326 927 326 914 l 322 927 l 322 922 q 326 909 326 914 q 322 897 322 901 q 313 905 313 897 l 313 914 l 317 922 l 304 931 q 296 918 296 931 q 331 879 308 888 q 344 883 339 883 q 383 822 361 833 q 387 827 383 827 q 453 804 387 804 l 462 804 q 492 827 484 804 q 484 901 492 901 q 488 914 488 909 l 484 936 l 488 936 l 471 984 l 466 984 q 440 958 466 958 l 440 954 q 475 945 463 945 l 475 931 q 431 909 475 920 q 471 931 431 919 l 471 936 q 414 975 434 936 q 435 1015 425 1015 l 458 1015 l 458 1006 l 462 1006 l 462 1010 q 449 1032 456 1032 l 418 1023 l 414 1032 q 449 1045 429 1045 l 449 1049 q 440 1058 449 1058 l 427 1058 q 401 1040 405 1040 m 458 1049 l 458 1045 q 462 1027 462 1038 l 466 1027 l 466 1036 q 462 1049 462 1045 l 458 1049 m 383 1027 l 392 1027 q 401 1019 401 1026 l 401 1015 l 387 1015 q 339 984 363 1015 l 339 997 q 383 1027 359 1027 m 309 1015 l 317 970 q 304 1006 304 970 q 296 975 296 1006 q 287 988 287 975 l 283 988 l 283 975 q 292 949 283 968 l 300 954 l 313 954 q 331 922 331 946 l 339 922 q 322 1019 327 949 q 309 1015 313 1015 m 427 993 l 427 988 l 435 993 l 444 993 q 458 975 458 993 l 462 975 l 462 979 q 444 1006 462 1006 q 427 993 427 999 m 374 1001 l 401 1001 l 410 970 l 410 958 q 378 940 410 946 q 353 984 353 940 l 374 1001 m 361 970 l 361 966 l 366 966 q 374 984 366 969 q 396 954 396 984 l 401 954 l 405 975 q 387 993 401 993 q 361 970 370 987 m 296 945 l 296 936 l 304 940 l 309 940 l 322 931 l 322 936 l 309 945 l 296 945 m 475 901 l 458 852 q 440 848 450 848 l 435 848 q 378 879 419 848 l 378 883 q 387 892 380 892 l 392 892 l 392 883 l 410 883 q 475 901 418 883 m 427 879 l 427 874 l 435 874 q 458 883 450 883 l 458 888 l 449 888 q 427 879 435 879 m 435 870 l 435 866 q 458 861 450 866 l 458 874 q 435 870 450 870 m 160 822 l 165 813 l 156 800 l 156 791 q 182 752 156 768 q 186 756 182 756 q 199 743 186 743 l 199 748 q 169 774 169 768 q 212 756 180 774 l 208 748 l 217 748 l 230 756 q 178 800 210 800 l 178 804 l 182 804 q 239 770 212 804 l 243 779 l 243 787 q 199 827 231 827 q 191 835 191 827 l 195 835 q 243 813 223 835 q 252 822 252 813 l 252 835 q 239 848 252 842 l 195 848 q 204 857 197 857 l 230 857 q 256 840 256 857 l 265 840 q 269 848 265 848 q 260 870 260 863 l 199 870 q 178 852 188 852 q 160 822 170 822 m 252 809 l 252 800 l 278 800 l 287 822 l 292 822 l 292 809 q 252 779 292 802 q 248 765 252 774 q 260 748 254 765 l 252 743 q 239 765 252 765 q 221 739 239 752 l 212 743 l 204 743 l 212 730 l 208 730 l 199 734 l 199 730 q 226 722 214 722 l 260 722 q 296 787 260 734 q 300 800 300 795 q 283 844 298 826 q 252 809 273 844 m 317 835 l 317 831 q 344 804 317 818 l 348 804 l 348 809 q 335 818 335 809 l 335 822 l 339 822 l 353 813 l 353 818 q 317 835 353 827 m 383 809 q 431 761 391 761 l 444 761 q 449 791 444 774 q 383 809 431 791 m 571 804 l 571 791 q 580 800 580 791 l 580 804 l 571 804 m 585 804 l 585 787 l 589 787 l 589 804 l 585 804 m 553 795 l 553 791 q 562 783 555 783 l 567 791 l 558 795 l 553 795 m 541 791 l 536 783 l 536 779 l 549 779 l 549 783 q 541 791 549 791 m 593 791 q 589 779 593 787 l 597 774 l 602 783 l 602 791 l 593 791 m 374 787 l 374 783 q 431 717 395 754 l 435 726 l 435 730 q 422 739 422 730 q 458 756 458 739 l 440 748 q 435 752 440 752 l 435 748 q 374 787 407 753 m 514 783 l 514 774 l 532 774 l 532 783 l 514 783 m 606 783 q 602 765 606 773 l 610 761 q 615 770 610 770 q 610 783 610 778 l 606 783 m 492 774 l 497 765 q 510 770 505 770 l 510 774 l 492 774 m 580 774 l 580 770 l 589 770 l 585 761 l 589 761 l 593 770 l 585 774 l 580 774 m 366 770 l 366 761 l 378 761 q 370 770 378 770 l 366 770 m 471 770 q 475 756 475 761 l 484 756 q 492 765 492 756 l 484 770 l 471 770 m 523 761 l 532 756 l 536 756 l 536 770 l 532 770 q 523 761 523 768 m 501 761 q 505 748 505 752 l 510 748 q 519 756 519 748 l 514 765 q 501 761 506 761 m 615 765 q 610 752 615 760 l 619 748 q 624 761 619 752 l 615 765 m 348 752 l 348 748 q 361 717 357 734 q 357 713 357 717 l 366 713 l 366 717 q 357 761 357 757 q 348 752 348 760 m 593 761 l 589 752 l 589 748 q 602 752 597 752 q 593 761 602 761 m 492 756 l 484 743 l 497 734 l 501 743 l 501 748 q 492 756 501 756 m 374 752 l 374 748 q 387 734 374 741 l 387 743 q 378 752 387 752 l 374 752 m 602 748 l 597 739 q 610 743 606 743 l 610 748 l 602 748 m 339 730 q 331 722 339 722 q 335 708 335 713 l 339 708 q 344 730 339 723 l 339 730 m 641 726 l 637 717 l 637 708 q 650 722 643 708 l 641 726 m 191 722 q 204 704 197 704 l 208 704 q 191 722 208 711 m 252 695 l 256 695 q 269 704 256 704 l 269 713 q 252 695 262 713 m 313 704 l 313 700 l 331 700 l 331 704 q 322 713 331 713 q 313 704 313 711 m 366 708 l 366 704 q 387 691 387 704 q 366 661 384 661 l 357 665 q 344 661 349 661 q 339 665 344 665 l 339 652 q 353 629 353 637 l 361 629 q 374 652 364 652 l 378 652 l 392 643 q 405 669 392 661 l 401 677 l 401 682 l 405 704 q 383 713 383 708 q 366 708 376 708 m 410 713 q 414 700 414 704 l 431 700 l 431 708 l 410 713 m 435 708 l 435 700 l 453 700 q 458 713 453 704 q 435 708 450 708 m 650 713 l 646 695 q 654 708 654 695 l 654 713 l 650 713 m 186 708 q 204 686 195 688 l 204 691 q 186 708 204 698 m 212 704 q 226 695 212 695 l 248 695 l 248 700 q 212 704 229 700 m 296 686 l 309 686 l 309 700 q 296 686 302 700 m 471 700 q 466 686 471 695 q 484 682 476 686 l 484 686 q 475 700 475 686 l 471 700 m 637 686 l 641 677 l 632 677 l 632 673 q 637 634 632 658 l 637 629 l 632 629 l 632 638 l 624 638 l 637 621 q 663 652 644 621 l 663 638 l 654 625 q 659 621 659 625 q 637 616 651 616 q 646 608 638 608 q 671 638 665 618 q 663 695 663 684 q 637 686 648 686 m 212 691 l 212 682 l 230 677 q 243 682 239 682 l 243 686 q 212 691 218 686 m 414 691 l 418 682 q 414 677 414 682 l 422 677 q 431 686 431 677 l 431 691 l 414 691 m 313 686 l 309 677 l 309 669 l 313 669 q 322 677 322 669 q 313 686 322 686 m 444 686 l 444 677 l 453 673 q 449 686 449 682 l 444 686 m 615 673 l 615 652 q 628 647 619 652 l 624 656 l 624 665 l 628 686 q 615 673 622 686 m 283 682 l 278 673 q 292 677 287 677 l 292 682 l 283 682 m 462 677 l 458 669 l 458 665 q 462 669 462 665 l 471 665 l 475 665 l 475 673 q 462 677 470 673 m 287 669 q 292 656 292 661 q 304 661 300 661 l 304 673 l 296 673 l 287 669 m 414 669 l 414 656 l 427 656 q 422 669 422 665 l 414 669 m 444 669 l 435 656 l 440 656 l 449 669 l 444 669 m 269 665 q 274 652 274 656 l 287 652 l 287 656 q 278 665 287 665 l 269 665 m 248 647 l 252 638 q 269 647 269 642 q 265 661 265 656 l 260 661 q 248 647 254 661 m 296 647 l 296 643 l 304 643 l 304 656 q 296 647 296 654 m 217 652 l 217 643 l 230 643 l 230 652 l 217 652 m 410 652 q 405 638 410 647 l 410 638 q 427 647 420 647 l 427 652 l 410 652 m 431 647 q 440 638 433 638 l 444 638 l 444 647 l 431 647 m 278 643 l 278 629 q 287 638 287 629 l 287 643 l 278 643 m 449 634 l 453 625 q 449 621 449 625 l 458 621 q 475 643 467 623 l 466 643 q 449 634 456 634 m 256 634 l 256 621 l 269 621 l 269 638 q 256 634 261 634 m 396 625 l 396 621 l 418 621 q 405 634 418 627 q 396 625 396 633 m 243 629 l 239 621 l 239 612 q 252 616 248 616 l 252 621 q 243 629 252 629 m 322 629 l 322 625 q 344 608 341 608 l 344 612 l 322 629 m 624 625 l 624 612 l 632 612 l 632 616 q 624 625 632 625 m 317 616 q 309 599 317 610 l 313 599 q 317 604 313 604 l 317 595 q 331 608 323 595 q 322 616 331 616 l 317 616 m 392 616 l 387 608 l 410 604 l 414 612 l 392 616 m 418 604 l 427 604 q 440 608 435 608 l 440 612 l 427 612 q 418 604 418 611 m 278 599 l 278 595 l 292 595 q 226 564 277 573 l 226 559 q 235 551 227 551 q 304 573 304 566 q 300 586 300 581 l 304 586 q 296 608 296 600 q 278 599 285 599 m 331 595 q 339 586 332 586 q 344 604 339 595 l 339 604 q 331 595 331 602 m 344 573 l 339 573 l 326 582 l 326 564 q 374 542 345 542 q 440 559 397 542 l 440 568 l 414 555 l 387 555 l 348 573 l 357 604 q 344 573 344 601 m 248 586 l 248 582 l 256 582 l 260 590 q 248 586 252 586 m 361 590 q 357 577 361 586 l 366 573 l 370 573 q 374 586 370 577 l 366 590 l 361 590 m 449 577 l 453 577 q 462 586 462 577 l 462 590 q 449 577 456 590 m 208 503 q 248 459 208 484 q 260 481 248 467 l 260 486 l 256 486 q 243 468 245 486 l 235 468 l 235 472 q 317 542 261 506 q 313 547 313 542 l 331 547 q 313 559 331 557 q 208 503 242 559 m 387 534 q 383 538 387 538 l 383 534 q 396 525 396 529 q 392 511 392 516 q 422 463 402 511 l 431 468 l 435 468 l 435 459 l 427 459 l 453 416 l 453 411 l 444 416 l 440 416 l 458 359 l 479 363 l 545 328 q 505 416 530 416 l 510 424 q 505 429 505 424 l 510 429 l 519 424 l 519 429 q 466 511 511 434 q 422 542 425 542 l 418 542 q 387 534 410 542 m 287 511 l 287 503 l 304 503 l 304 520 q 287 511 294 511 m 278 503 q 274 481 274 496 l 265 486 l 269 477 l 269 459 l 265 459 l 256 463 l 252 455 l 252 450 l 256 450 q 283 468 260 450 l 296 468 l 296 459 l 304 459 l 304 481 q 278 503 304 488 m 304 441 l 304 433 l 260 437 q 256 416 256 431 l 260 416 l 260 407 q 248 402 256 407 q 243 407 248 407 q 230 380 243 397 q 243 376 239 376 q 309 433 294 391 l 309 441 l 304 441 m 453 441 l 471 441 q 462 433 471 433 l 453 433 l 453 441 m 475 441 l 488 441 l 488 433 l 475 433 l 475 441 m 453 407 l 462 407 l 462 393 l 453 393 l 453 407 m 453 341 l 462 323 l 458 297 l 458 284 l 462 284 l 462 293 l 475 293 q 484 275 484 293 l 492 280 q 501 271 501 279 l 501 250 q 475 205 475 229 l 462 205 l 453 210 l 453 170 l 462 170 q 471 184 462 178 l 479 179 q 553 201 498 193 q 558 267 558 245 l 558 289 q 536 302 536 289 l 558 297 l 571 297 l 571 311 l 567 311 l 567 302 l 562 302 q 475 345 513 345 l 475 332 l 488 332 l 488 323 l 471 323 l 466 350 l 453 341 m 449 328 l 444 311 l 444 306 l 449 306 l 453 323 l 453 328 l 449 328 m 466 280 l 466 254 q 471 250 466 250 l 466 241 l 466 236 q 471 232 466 232 l 466 223 l 466 214 l 471 214 q 492 250 471 236 l 492 267 l 488 267 l 488 245 l 475 245 l 475 258 q 479 262 475 262 q 475 289 475 269 q 466 280 466 288 m 632 250 q 505 170 614 218 q 479 118 479 153 l 479 105 l 484 105 q 593 193 484 125 q 659 227 624 227 q 632 250 650 250 m 641 218 q 501 118 625 202 l 488 100 l 488 92 q 576 70 560 70 q 650 136 650 92 q 671 205 665 154 l 641 218 m 484 175 l 488 166 q 484 162 484 166 l 488 162 q 519 184 488 172 l 519 188 l 514 188 q 484 175 492 175 m 440 127 l 444 127 q 462 144 451 127 l 462 162 l 458 162 q 440 127 440 159 m 444 114 l 444 75 l 466 87 q 462 131 462 89 q 444 114 455 131 m 422 123 q 414 105 422 115 l 418 105 q 427 118 427 105 l 427 123 l 422 123 m 401 114 q 396 100 401 109 q 410 79 402 79 l 418 79 l 414 87 l 422 87 l 422 96 l 414 92 l 410 92 q 401 100 401 92 l 410 114 l 401 114 m 471 114 l 471 87 q 523 70 507 70 l 528 70 l 528 75 q 475 114 475 75 l 471 114 m 449 61 l 449 48 l 471 66 q 466 79 466 74 q 449 61 459 79 m 475 75 l 475 61 q 558 43 551 43 l 558 52 l 475 75 m 532 70 l 532 66 l 553 61 l 562 61 l 562 66 l 536 70 l 532 70 z "},"7":{"ha":1118,"x_min":3,"x_max":933,"o":"m 458 1163 q 715 1109 538 1163 l 720 1100 q 662 1023 675 1075 q 647 945 647 966 q 686 819 647 857 l 686 809 q 671 800 686 800 l 652 804 l 628 790 l 633 756 q 608 693 633 730 q 613 688 613 693 q 599 664 599 688 l 637 640 q 686 678 654 678 q 759 644 707 678 q 802 669 784 669 l 817 669 q 831 654 824 669 l 831 650 q 783 553 831 637 q 831 538 829 538 q 851 543 840 543 l 851 547 l 846 557 q 851 562 851 557 q 822 610 824 588 q 841 635 831 633 l 851 635 q 919 557 898 635 l 919 543 q 846 479 919 487 q 749 513 831 479 q 730 499 749 499 l 730 490 l 739 475 l 739 460 q 691 388 739 428 q 676 330 691 380 q 696 310 684 330 q 671 252 671 256 q 676 247 676 252 l 686 252 l 691 252 q 710 247 702 252 q 778 271 753 271 q 846 199 838 271 l 846 194 q 710 82 846 115 q 555 136 610 97 l 550 136 q 536 102 550 119 l 570 102 q 657 63 657 95 q 536 20 657 31 l 511 20 q 468 39 468 20 l 434 34 l 434 29 q 488 20 464 29 l 488 14 q 463 0 488 6 l 463 5 l 454 0 l 444 5 l 444 0 q 420 14 420 6 l 420 24 l 429 24 l 429 29 q 317 48 391 29 l 294 48 q 289 43 289 48 l 279 48 l 260 48 q 109 106 125 48 q 187 160 109 134 l 187 165 q 163 184 173 165 l 163 199 q 337 247 196 247 q 400 218 400 236 l 425 218 q 439 233 431 218 q 429 276 429 264 l 429 281 q 473 320 429 290 l 477 339 q 235 257 427 257 q 197 237 235 254 l 197 242 q 380 286 197 264 q 458 349 441 313 q 444 373 444 349 q 376 334 395 373 q 317 305 340 305 q 298 310 307 305 q 279 305 290 305 l 264 305 q 231 359 231 334 l 231 373 q 283 465 231 392 l 283 475 q 231 412 231 450 l 226 412 q 177 456 204 412 q 56 766 56 562 l 56 790 q 109 979 56 863 q 90 994 100 979 q 109 1023 100 1023 l 119 1023 l 134 1013 q 458 1163 319 1163 m 226 1066 l 226 1061 l 231 1061 q 342 1081 275 1081 q 458 1071 374 1081 q 594 1124 527 1117 l 594 1129 q 448 1143 508 1143 q 226 1066 367 1143 m 516 1090 l 516 1086 q 565 1008 565 1044 q 560 1003 560 1008 l 565 1003 q 545 955 559 973 l 550 955 q 613 964 594 964 l 628 964 l 628 930 q 585 853 628 915 q 623 795 608 798 q 671 814 627 814 q 633 935 633 857 l 633 945 q 652 1042 633 994 q 647 1047 647 1042 q 676 1086 659 1050 l 667 1086 l 667 1095 l 691 1095 q 701 1105 701 1095 q 618 1115 679 1105 q 516 1090 583 1115 m 802 1081 l 812 1081 l 807 1071 l 812 1061 l 798 1013 l 793 1013 q 783 1023 783 1013 q 802 1081 783 1032 m 104 901 l 104 853 q 138 722 104 817 q 90 843 107 760 l 95 853 l 95 892 l 90 892 q 75 780 75 843 l 75 761 q 138 519 75 644 q 192 465 186 465 l 192 470 q 129 610 129 538 q 148 688 138 688 q 138 712 138 704 l 148 712 q 172 678 148 700 l 172 684 l 153 751 q 294 979 153 829 q 444 1057 397 1057 l 454 1057 l 454 1061 q 332 1071 345 1071 q 104 901 104 1046 m 928 1023 l 933 1023 q 909 950 927 955 q 899 960 899 950 q 928 1023 915 1021 m 104 998 l 104 989 l 119 989 l 124 1008 l 114 1008 q 104 998 104 1006 m 255 916 q 283 897 259 916 l 361 960 q 347 994 347 981 l 342 994 q 255 916 307 974 m 507 926 l 507 921 q 574 872 524 921 q 613 950 613 918 l 613 955 l 507 926 m 395 950 q 420 930 395 945 q 448 940 435 940 l 448 945 l 425 950 l 395 950 m 812 955 l 817 955 l 822 935 l 807 887 l 802 887 q 793 901 793 887 q 812 955 793 910 m 289 867 q 308 829 294 829 q 405 926 308 846 l 376 940 q 289 867 289 901 m 764 945 q 768 935 764 935 q 749 863 768 923 l 739 863 q 730 872 730 863 q 764 945 753 943 m 245 640 l 250 640 q 414 872 364 812 q 492 930 469 926 l 492 935 l 488 935 q 269 751 377 935 q 245 640 269 698 m 240 897 q 269 872 240 890 l 274 882 q 250 906 274 888 q 240 897 240 905 m 429 863 l 439 843 l 434 843 l 414 853 q 357 761 357 784 q 405 698 357 744 l 405 693 l 391 693 q 347 650 347 687 q 405 610 359 610 l 425 625 q 482 596 434 625 l 502 591 l 511 591 l 511 596 q 429 635 494 596 q 400 650 418 635 l 376 630 l 376 640 q 420 669 388 669 l 444 669 l 444 664 l 414 659 l 414 650 q 477 635 466 635 q 585 732 585 652 l 585 746 q 574 756 585 756 q 522 693 574 693 l 511 693 q 497 707 505 693 l 497 727 l 502 736 l 497 736 q 468 693 477 713 q 473 688 473 693 q 463 678 463 688 l 454 678 l 454 684 l 468 712 l 463 712 q 448 698 463 705 l 448 703 q 454 722 454 711 q 414 795 414 747 q 429 814 422 814 q 488 741 469 814 q 502 756 494 741 q 458 829 472 782 q 463 843 463 838 l 468 843 q 536 766 520 843 l 545 770 l 560 770 l 574 761 q 585 775 574 775 l 604 775 q 589 761 604 772 q 599 736 589 736 l 589 693 l 594 693 q 618 761 618 736 q 594 800 618 787 l 579 800 l 565 790 q 526 867 561 790 q 473 901 492 897 q 429 863 461 901 m 231 887 l 216 863 q 255 848 231 863 q 260 863 255 853 q 231 887 233 887 m 274 863 l 274 858 q 279 853 279 858 q 260 809 260 853 q 264 770 264 774 l 269 770 q 294 814 269 785 q 274 863 283 863 m 865 848 l 865 838 q 846 770 861 770 l 836 770 l 836 790 q 865 848 839 821 m 497 819 q 488 800 497 800 l 477 804 q 522 761 500 761 l 522 775 q 497 819 511 819 m 458 785 q 448 770 458 770 l 444 770 l 429 780 l 429 775 q 468 727 429 744 q 482 736 482 732 l 463 785 l 458 785 m 773 785 q 778 775 773 775 q 754 712 767 712 q 744 727 749 727 q 773 785 760 785 m 919 766 l 924 766 q 899 703 912 703 q 890 712 890 703 q 919 766 904 766 m 289 673 q 250 625 289 664 q 264 621 255 625 q 317 644 295 621 q 298 673 308 644 l 289 673 m 647 630 q 652 625 652 630 l 647 625 q 676 610 647 610 q 691 644 676 627 q 686 650 686 644 l 705 654 l 705 664 q 686 669 686 664 q 647 630 665 669 m 153 664 l 148 640 l 148 591 q 226 446 148 530 q 264 475 255 475 l 264 479 q 206 533 206 479 q 235 562 206 551 q 279 553 272 553 q 357 557 328 557 l 380 543 l 400 543 l 400 596 q 323 630 378 596 q 283 610 323 617 l 245 610 q 226 635 226 621 q 231 650 231 644 l 226 650 l 201 644 q 153 664 185 644 m 570 664 l 560 640 l 560 635 l 565 635 q 574 664 565 643 l 570 664 m 739 582 q 773 562 739 569 l 817 644 q 812 650 812 644 q 817 654 817 650 l 807 659 q 739 582 769 650 m 574 625 l 594 640 q 589 654 589 649 q 574 625 574 650 m 604 644 l 604 625 q 637 606 610 625 l 637 610 q 604 644 637 632 m 691 610 q 705 562 701 562 q 749 635 722 562 q 739 644 749 644 l 725 644 q 691 610 691 644 m 526 635 l 531 610 l 522 610 q 497 625 522 625 q 488 616 488 624 q 516 606 503 606 l 526 606 q 545 625 534 606 l 545 630 l 541 640 q 526 635 531 635 m 555 630 q 550 616 555 625 l 555 616 l 560 625 l 560 630 l 555 630 m 574 621 l 565 606 l 565 596 l 570 587 l 565 587 q 574 543 570 578 l 579 543 q 589 616 589 587 q 574 621 580 621 m 836 616 q 865 553 836 606 l 865 547 l 861 528 l 831 528 q 730 562 815 528 q 715 553 730 553 l 715 547 q 841 499 812 499 l 856 499 q 904 547 896 499 q 851 621 890 621 q 836 616 842 616 m 425 610 q 414 582 414 595 l 414 547 l 410 538 q 473 504 473 520 l 473 499 l 458 509 l 458 504 q 477 460 477 494 l 482 460 l 482 543 l 492 543 l 492 528 l 497 528 l 497 543 l 502 543 l 507 519 l 492 446 l 497 446 q 579 460 522 446 l 585 451 l 585 446 q 502 407 585 407 l 482 407 q 458 373 482 391 l 458 359 q 522 344 482 344 l 531 344 q 637 397 636 354 q 585 494 637 439 q 565 543 565 521 l 545 543 q 507 562 507 543 l 497 557 q 448 606 487 557 l 425 610 m 545 610 l 536 596 l 541 596 l 550 610 l 545 610 m 608 606 q 589 543 589 553 q 604 547 598 547 l 613 543 q 628 547 623 547 l 628 538 l 618 538 l 623 528 l 623 524 q 608 509 623 516 l 599 509 l 589 513 q 608 490 598 492 q 623 509 611 509 l 633 509 l 642 504 q 652 513 644 513 q 633 460 648 476 l 686 407 q 725 460 725 427 q 696 504 725 484 q 676 485 696 485 l 662 504 q 681 528 662 507 q 608 606 640 590 m 647 596 q 676 557 676 567 q 686 567 686 557 l 686 576 q 647 596 686 591 m 545 591 q 516 576 545 582 l 516 567 q 526 557 518 557 l 560 557 q 545 591 555 591 m 482 587 l 482 582 l 497 572 l 502 572 q 482 587 502 579 m 56 562 l 61 562 l 61 533 q 46 494 61 497 l 41 494 l 41 504 q 56 562 41 519 m 221 538 l 221 519 q 255 494 231 494 q 303 499 261 494 q 308 494 303 494 q 245 378 290 446 l 245 354 l 250 354 q 298 427 250 366 l 303 427 q 260 339 260 352 l 260 330 q 269 320 261 320 l 283 320 q 328 397 283 355 q 332 412 332 407 l 342 412 q 303 344 342 393 l 303 320 l 313 320 q 410 412 357 320 q 425 465 425 445 l 425 490 q 400 528 425 516 q 357 460 357 528 q 347 470 347 460 l 347 475 q 366 533 347 503 l 366 538 l 347 543 l 279 538 q 235 547 248 547 l 231 547 q 221 538 221 546 m 691 547 q 715 509 715 519 l 725 509 q 739 524 732 509 q 691 547 698 547 m 594 538 l 594 524 l 608 524 l 608 538 l 594 538 m 681 519 q 671 499 681 511 l 681 499 q 696 513 688 499 l 686 519 l 681 519 m 444 504 q 454 441 454 482 q 434 388 454 417 l 439 388 q 482 456 470 388 l 473 451 q 444 504 473 487 m 618 490 q 633 475 618 482 l 637 485 l 637 490 q 628 499 637 499 q 618 490 618 498 m 507 436 l 492 436 l 492 417 q 574 436 574 422 l 574 451 l 570 451 q 507 436 546 436 m 80 446 l 85 446 l 90 427 q 80 368 90 414 l 75 368 q 66 383 66 368 l 80 446 m 425 402 l 429 402 q 439 427 439 418 q 425 402 431 427 m 647 422 l 652 397 l 652 393 q 633 354 652 375 l 642 354 l 642 349 l 623 344 l 623 339 l 647 339 q 585 315 641 332 l 579 305 l 618 296 l 618 300 l 628 296 q 676 388 661 296 l 676 393 l 647 422 m 143 393 q 153 383 153 391 l 153 373 q 138 320 153 320 q 129 330 129 320 l 129 334 q 143 393 129 349 m 22 373 l 27 373 l 27 339 q 12 300 27 304 q 3 310 3 300 q 22 373 3 319 m 526 325 q 507 330 517 330 l 488 330 q 473 286 473 294 q 482 276 474 276 l 516 276 q 565 296 565 282 l 565 300 l 550 291 l 550 296 l 585 334 q 526 325 534 328 m 613 286 q 574 296 592 286 l 574 286 q 628 271 616 271 q 676 296 661 271 l 676 300 q 613 286 652 286 m 458 296 l 454 286 l 454 281 l 458 281 q 463 296 458 286 l 458 296 m 516 262 l 488 262 q 448 271 467 262 l 448 262 q 507 252 482 252 q 560 271 560 257 l 560 276 q 516 262 541 262 m 574 276 q 560 160 560 197 q 696 117 646 126 q 827 179 753 117 l 831 189 l 831 194 q 788 252 831 252 l 768 252 q 662 174 711 252 l 652 174 l 652 179 q 691 233 660 195 l 671 233 q 604 174 671 212 l 594 174 l 594 184 q 667 242 614 184 q 657 252 657 242 q 662 267 662 261 l 657 267 q 637 262 648 262 l 623 262 q 574 276 600 262 m 134 276 q 138 271 134 271 q 119 203 130 203 l 109 203 l 109 228 q 134 276 119 276 m 448 252 l 448 247 q 511 218 448 229 l 516 208 l 507 208 q 463 218 475 218 l 448 218 l 448 213 q 507 184 490 210 l 507 179 q 444 203 463 203 l 439 203 l 439 199 q 488 165 463 199 l 482 165 q 376 208 440 194 q 279 145 319 208 q 395 68 323 68 q 414 63 395 63 q 541 155 453 63 q 555 252 545 169 q 502 237 541 242 q 448 252 470 242 m 657 242 l 662 242 q 608 208 638 208 l 585 208 l 585 213 q 657 242 625 216 m 294 233 l 294 199 q 283 189 294 189 l 274 194 q 269 189 274 189 l 269 228 l 264 228 q 172 189 208 228 q 226 165 172 174 l 226 160 q 206 155 217 155 l 206 106 l 197 111 l 197 77 l 187 77 l 187 82 q 182 145 182 142 q 124 106 129 125 l 124 97 q 308 58 124 64 l 313 58 l 313 63 q 264 131 264 85 q 342 218 264 191 l 347 218 l 347 233 l 294 233 m 361 228 l 361 218 l 386 218 l 386 223 l 361 228 m 822 165 q 701 106 767 106 q 633 121 679 106 l 628 121 l 628 117 l 705 97 q 827 160 773 105 l 827 165 l 822 165 m 192 151 l 192 121 l 197 121 l 197 151 l 192 151 m 555 151 l 555 145 q 618 121 561 145 l 623 121 l 623 126 q 560 151 612 126 l 555 151 m 526 126 q 414 54 463 54 l 400 54 q 283 117 344 54 l 283 121 l 279 121 l 279 106 q 414 43 332 43 q 531 126 462 43 l 526 126 m 473 43 q 531 29 516 29 q 585 43 585 33 l 585 87 l 560 87 l 560 54 q 550 43 560 43 q 541 54 550 54 l 545 63 l 545 77 q 536 87 545 87 l 522 87 q 473 43 473 51 m 599 82 l 599 39 l 604 39 l 604 82 l 599 82 m 613 82 q 608 43 613 48 l 613 43 q 647 68 644 54 l 613 82 z "},"8":{"ha":1012,"x_min":3,"x_max":873,"o":"m 366 1163 l 366 1107 l 361 1097 q 372 1086 372 1095 l 372 1065 q 356 989 372 1013 q 428 871 390 903 l 428 856 q 382 794 428 828 q 341 712 382 774 l 336 682 l 402 682 q 479 707 468 707 q 500 702 488 702 q 572 748 519 726 l 592 738 q 705 846 703 817 q 725 881 711 881 l 730 881 q 766 856 756 881 l 766 840 q 751 800 766 825 l 756 800 l 751 789 q 863 718 751 774 q 873 692 863 708 l 869 661 q 873 646 873 651 l 843 620 l 791 635 q 787 630 791 630 q 653 661 787 650 q 623 671 653 666 q 592 610 607 671 q 479 574 535 574 q 566 538 519 538 l 566 513 l 562 502 q 597 420 597 479 q 633 399 617 420 q 612 338 625 354 q 699 246 642 321 l 705 246 l 699 236 q 751 179 722 201 q 777 82 777 137 q 684 5 777 18 q 643 0 665 0 l 628 0 q 520 52 520 16 q 515 66 520 57 q 576 138 515 111 l 623 174 q 562 271 578 271 q 556 267 562 267 q 546 292 556 275 l 536 287 l 515 287 q 469 333 483 331 l 438 333 q 418 287 429 333 l 397 282 q 356 297 380 282 l 351 297 q 320 282 351 282 l 326 271 q 249 205 308 271 l 259 205 l 254 195 q 320 82 320 111 l 320 77 q 228 31 301 31 q 197 26 228 26 q 75 82 75 26 l 75 98 q 172 251 75 176 q 279 333 214 293 l 274 343 l 274 359 q 326 399 296 359 l 320 425 l 300 410 l 279 410 l 279 435 q 285 456 279 447 q 279 492 279 463 q 208 441 235 453 l 197 446 q 193 441 197 441 q 161 456 193 451 q 100 374 143 456 q 54 297 71 344 q 39 292 44 292 q 3 363 3 309 q 23 446 23 431 l 23 461 l 3 492 l 3 517 q 23 538 3 526 l 39 538 q 59 502 43 538 q 79 497 71 502 q 141 548 131 497 q 197 569 191 569 q 233 600 197 591 l 233 604 q 218 610 228 604 l 218 604 l 208 610 l 177 610 q 111 666 121 610 q 90 696 90 666 q 111 712 111 705 q 64 753 111 715 l 59 732 q 64 728 64 732 l 49 728 q 3 814 3 759 q 8 871 3 825 l 3 897 q 49 943 9 920 l 157 1086 q 187 1091 160 1086 q 315 1035 245 1091 q 356 1158 315 1126 l 366 1163 m 336 1117 q 341 1101 341 1107 l 346 1101 l 351 1133 q 336 1117 347 1133 m 356 1133 q 351 1101 351 1105 q 361 1112 361 1101 l 361 1133 l 356 1133 m 331 1097 l 326 1071 l 326 1015 l 331 979 l 336 979 l 336 1055 q 341 1076 336 1067 q 336 1097 336 1085 l 331 1097 m 346 1086 l 346 1045 q 341 989 346 1024 l 341 984 l 346 984 q 361 1035 346 989 l 361 1071 l 356 1081 q 361 1086 361 1081 l 346 1086 m 105 999 l 111 999 q 197 1019 146 1019 l 203 1019 q 320 989 284 1019 q 203 1081 320 1047 l 182 1081 q 115 1015 148 1081 q 105 999 111 1015 m 95 984 l 95 979 l 100 979 q 197 1004 142 999 q 341 943 266 1004 q 372 917 341 930 l 377 917 q 274 1004 321 992 q 269 999 274 999 q 203 1015 269 1015 q 95 984 160 1015 m 69 943 l 75 943 l 136 958 q 121 948 136 948 l 121 943 l 146 948 l 182 948 l 233 943 q 218 953 233 953 l 218 958 l 223 958 q 315 938 271 943 l 320 948 q 197 994 260 994 q 69 943 125 994 m 346 973 l 346 968 l 361 958 l 361 963 l 346 973 m 115 927 l 105 932 q 13 820 13 899 q 28 768 13 790 q 23 764 23 768 l 43 743 l 54 743 q 90 810 54 764 q 85 814 85 810 q 115 835 104 814 q 223 932 168 854 q 290 814 243 932 l 300 814 q 326 846 310 846 q 356 820 347 838 l 356 789 l 341 738 q 377 825 357 738 q 193 943 377 895 l 177 943 q 115 927 115 939 m 243 943 l 243 938 q 372 866 302 928 q 382 846 372 858 l 382 814 l 387 814 q 423 861 423 840 q 341 922 423 882 q 249 943 278 932 l 243 943 m 13 892 l 23 886 q 90 932 60 932 l 90 938 l 85 938 q 13 892 13 926 m 223 922 q 79 784 223 900 l 75 764 q 121 718 75 749 l 121 722 q 111 732 111 722 l 111 743 q 125 718 122 743 l 131 718 l 131 722 l 125 732 q 136 758 136 749 l 125 764 l 111 764 l 111 743 l 105 743 l 105 774 q 115 779 115 774 q 157 728 157 757 l 193 728 q 203 707 193 720 l 203 702 q 161 666 203 666 q 172 656 163 656 l 223 656 q 259 696 259 679 l 264 696 l 264 682 q 254 671 254 680 l 259 671 q 269 692 269 684 q 264 707 264 702 l 254 702 l 249 702 l 249 712 l 274 718 l 285 718 q 295 707 295 715 q 274 666 274 707 q 269 630 274 650 l 269 625 l 274 625 q 285 646 274 646 q 290 640 285 640 q 336 732 336 689 l 326 748 q 346 789 339 748 l 346 825 l 320 830 q 305 789 305 827 l 295 789 q 249 892 249 870 q 223 922 229 922 m 208 881 q 239 861 239 869 l 228 856 q 213 871 228 863 l 203 871 q 193 856 193 871 l 182 856 l 182 861 q 208 881 193 881 m 720 871 q 648 768 720 812 l 638 753 l 638 743 q 674 758 654 753 q 679 753 674 753 q 684 758 679 758 q 689 753 684 753 q 694 758 689 758 l 694 743 l 684 748 q 633 707 633 748 q 766 656 633 662 q 843 630 836 630 l 848 640 l 848 646 q 766 692 817 692 l 766 702 l 771 702 q 863 650 827 694 q 777 728 863 676 l 777 732 l 781 732 q 859 682 859 690 l 863 682 l 863 686 q 751 768 863 714 l 741 784 l 741 789 l 756 840 q 725 871 756 871 l 720 871 m 213 835 q 259 764 259 813 q 223 732 252 764 l 208 753 q 187 800 187 760 l 187 814 q 213 835 198 835 m 193 800 q 213 758 201 758 l 208 768 l 208 774 q 243 794 208 785 q 223 825 223 818 l 213 825 q 193 800 193 814 m 320 825 l 336 825 l 336 814 q 320 789 323 814 q 326 784 326 789 l 315 784 q 310 794 315 794 q 320 825 320 815 m 218 774 l 218 764 q 228 753 220 753 l 223 764 l 223 774 l 233 774 l 233 784 l 228 784 q 218 774 218 783 m 623 753 q 612 732 623 745 l 612 712 q 633 676 612 685 q 623 707 623 693 q 628 748 623 711 l 628 753 l 623 753 m 136 732 l 136 728 q 146 738 146 728 l 146 743 q 136 732 136 741 m 562 738 q 556 722 562 732 q 576 738 576 730 l 562 738 m 541 682 l 541 676 q 602 722 602 702 q 607 738 607 732 q 541 682 541 714 m 100 686 q 105 671 105 677 l 131 671 q 193 682 157 671 l 193 707 q 177 722 193 714 q 100 686 100 701 m 418 569 l 438 564 l 444 564 l 444 569 l 433 569 l 433 574 q 556 600 453 574 q 530 661 530 628 l 530 676 q 541 718 530 699 l 536 718 q 454 676 500 692 q 418 569 448 649 m 464 696 l 458 686 q 474 692 469 692 l 474 696 l 464 696 m 541 671 l 541 640 q 612 682 545 640 q 607 696 607 691 l 597 696 q 541 671 557 671 m 418 671 l 336 671 l 341 646 l 341 640 l 336 630 l 341 630 q 351 656 351 647 l 361 656 l 361 650 q 346 604 346 631 l 346 589 q 387 538 346 555 l 387 528 l 382 528 l 366 538 l 366 533 q 444 492 397 492 l 444 507 q 392 589 444 531 q 402 600 402 589 q 372 656 380 656 q 366 650 372 650 l 361 661 l 377 661 q 412 589 392 661 l 418 589 q 444 686 433 631 l 418 671 m 249 646 q 254 640 254 646 l 243 635 l 243 646 l 239 646 l 233 625 l 249 625 q 264 656 264 630 l 264 666 q 249 646 256 666 m 290 635 q 295 620 295 625 l 315 620 q 336 646 323 620 q 331 666 331 654 l 326 666 l 290 635 m 121 661 q 208 615 134 615 q 228 620 210 615 q 233 615 228 615 l 233 620 q 157 656 191 644 q 151 650 157 650 q 141 661 151 661 l 121 661 m 208 646 l 208 640 l 228 640 l 239 656 q 208 646 222 646 m 546 635 l 546 630 q 566 610 546 622 l 572 610 q 597 656 586 610 l 587 656 q 546 635 558 635 m 279 625 q 259 610 279 610 l 259 604 l 269 604 q 274 610 269 610 q 305 589 274 603 q 336 604 305 604 l 336 625 q 315 604 328 625 q 279 625 308 604 m 208 584 l 208 569 q 259 533 234 533 q 243 584 243 559 l 243 589 l 254 604 q 208 584 226 584 m 310 584 l 310 574 q 351 543 323 543 l 331 600 q 310 584 310 592 m 254 594 l 254 579 q 295 513 269 513 q 290 497 290 503 q 331 446 309 457 l 326 456 l 326 528 l 331 538 l 315 538 l 310 507 l 305 507 l 305 538 q 310 543 310 538 l 305 543 l 310 553 q 264 594 301 594 l 254 594 m 464 569 q 433 553 464 553 q 464 513 456 513 q 479 507 474 507 l 479 513 l 490 507 q 536 528 529 507 q 484 553 536 534 q 479 559 484 559 q 474 553 479 553 q 464 569 474 569 m 157 543 q 151 548 157 548 l 146 523 l 146 513 q 203 456 159 456 q 274 507 232 456 q 218 538 274 521 q 197 559 218 542 q 157 543 172 543 m 341 538 q 366 456 353 456 l 387 456 q 408 467 399 467 q 356 533 408 486 l 356 538 l 341 538 m 13 513 l 13 507 q 33 471 13 471 l 33 435 q 23 395 23 399 l 23 389 l 28 389 l 28 399 l 39 399 l 18 338 l 18 333 l 23 333 q 49 385 33 380 l 49 369 q 28 317 28 341 q 33 302 33 308 l 39 302 q 105 399 89 383 q 115 415 111 399 q 64 451 72 415 q 49 425 50 451 l 39 425 l 75 492 l 49 492 l 39 528 l 28 528 q 13 513 21 528 m 331 513 l 331 507 q 336 451 336 472 q 346 467 346 451 q 336 513 346 474 l 331 513 m 500 502 l 500 497 l 515 497 q 536 502 524 502 l 536 513 q 500 502 520 502 m 90 471 l 90 456 l 141 487 q 136 507 136 496 q 90 471 96 486 m 520 492 l 520 487 l 530 487 l 536 497 q 520 492 526 492 m 75 477 l 75 461 q 105 425 75 425 l 121 425 l 121 431 q 79 456 91 431 l 79 461 l 85 487 q 75 477 75 485 m 428 481 l 428 477 l 448 477 l 448 487 q 428 481 439 481 m 454 481 q 433 467 454 467 l 433 461 l 454 461 l 464 481 l 454 481 m 551 481 l 551 471 q 566 467 556 471 q 562 481 562 476 l 551 481 m 95 446 l 105 441 q 157 461 115 441 q 141 477 157 469 q 95 446 106 463 m 469 477 q 438 451 469 451 l 433 451 l 412 467 q 392 446 412 458 l 382 446 l 356 451 l 361 441 q 336 420 354 420 l 336 410 l 361 374 l 356 374 q 336 395 336 383 q 290 353 304 353 l 290 349 q 377 297 298 349 l 408 292 q 423 333 423 328 q 392 343 406 343 l 392 349 q 402 359 394 359 q 433 343 408 343 l 464 343 l 490 349 l 494 338 l 484 338 l 484 333 q 510 297 510 333 l 526 297 q 602 349 602 322 q 556 425 556 378 q 515 477 541 460 l 469 477 m 572 477 l 572 456 l 582 456 q 576 477 576 465 l 572 477 m 290 471 l 295 441 q 305 451 305 441 q 290 471 297 471 m 551 467 l 551 461 q 562 451 553 451 l 562 456 q 551 467 562 467 m 572 446 q 566 431 572 440 l 572 431 q 582 441 582 431 l 572 446 m 572 415 l 572 405 l 597 405 l 597 415 l 572 415 m 576 399 l 576 389 l 587 385 q 582 399 582 394 l 576 399 m 18 385 q 13 369 18 379 l 18 369 l 23 379 l 23 385 l 18 385 m 597 374 l 597 369 q 607 359 607 369 q 618 369 618 359 l 618 374 q 612 369 612 374 l 602 374 l 597 374 m 295 338 l 290 328 q 300 317 291 317 l 305 328 q 295 338 305 338 m 300 307 l 300 297 l 336 287 l 346 302 q 320 323 321 316 q 300 307 300 315 m 628 313 l 628 307 l 633 297 q 623 292 623 297 q 705 159 688 203 l 710 159 q 720 169 720 159 l 720 184 q 628 313 686 258 m 254 307 q 146 195 146 229 l 157 190 l 167 190 q 264 297 167 206 q 254 307 264 307 m 551 297 q 566 282 551 290 q 597 297 597 287 l 582 307 q 551 297 565 297 m 274 297 q 254 277 274 287 l 177 195 l 182 195 l 213 200 q 228 195 222 195 q 310 282 268 242 q 279 297 298 282 l 274 297 m 607 292 q 582 271 607 271 q 633 169 594 258 q 694 164 686 164 q 607 292 654 241 m 141 220 q 90 82 90 154 l 90 66 q 187 41 90 41 l 193 41 q 295 62 279 41 q 300 56 295 56 l 305 66 l 305 77 q 249 195 305 106 l 249 200 q 239 190 239 198 q 243 184 243 190 l 233 184 q 213 190 222 184 q 197 184 203 184 l 197 190 q 146 179 185 184 l 146 164 q 208 174 182 174 l 228 174 l 254 169 l 254 159 q 193 138 254 138 q 146 154 165 138 l 131 144 l 121 144 q 111 159 111 144 q 141 205 141 195 q 146 220 141 210 l 141 220 m 730 184 q 725 154 730 161 q 751 133 749 144 q 735 118 751 126 q 715 123 724 118 q 684 118 711 123 l 582 133 q 526 62 526 96 q 562 26 541 26 q 566 31 562 31 q 628 16 566 16 l 664 16 q 766 87 766 16 q 730 184 754 184 m 193 169 l 193 159 l 182 164 q 161 159 173 159 q 172 149 163 149 l 213 149 l 249 159 l 249 164 l 223 169 l 193 169 m 607 149 l 633 149 q 638 154 638 149 l 705 138 l 705 154 q 618 159 644 159 q 607 149 607 157 m 607 144 l 607 138 q 689 128 680 128 l 694 128 l 694 133 q 653 144 679 133 l 653 138 l 643 144 l 607 144 m 715 144 q 725 133 717 133 l 730 133 q 720 144 730 144 l 715 144 z "},"9":{"ha":1081,"x_min":3,"x_max":943,"o":"m 408 1163 q 493 1011 470 1163 q 524 930 511 1011 l 534 926 l 544 926 l 544 945 l 549 945 q 554 930 549 940 l 549 930 q 564 910 556 910 q 569 956 564 928 l 574 956 l 574 895 l 579 895 q 589 945 579 908 l 594 945 l 594 935 q 585 890 589 899 q 640 784 618 859 l 635 784 l 640 774 l 640 733 q 680 693 680 733 l 680 677 l 705 677 q 726 642 715 677 l 726 627 q 756 632 730 627 q 797 602 797 617 q 771 582 797 582 l 771 576 q 791 562 779 576 q 807 582 794 582 q 847 562 825 582 q 857 572 849 572 l 867 572 q 892 536 876 572 q 923 496 917 536 l 923 490 l 918 480 q 943 445 943 473 q 903 374 935 374 l 878 354 l 867 354 l 842 374 q 822 359 842 359 l 822 354 l 873 349 l 873 344 q 817 278 843 288 l 791 278 q 756 298 764 278 q 701 258 745 298 l 680 258 l 680 253 q 721 248 701 253 q 751 258 737 258 q 837 228 824 246 l 837 222 q 787 167 787 206 l 787 152 q 842 96 818 152 l 827 96 q 781 146 827 111 l 781 121 q 807 101 806 108 l 807 96 q 771 111 793 96 l 766 111 q 721 96 747 96 l 690 96 q 665 132 690 113 q 645 126 656 126 l 650 117 l 650 111 q 640 101 650 101 q 630 132 640 120 q 594 96 594 123 l 554 96 q 509 121 532 96 l 503 121 l 468 117 l 468 126 q 498 136 477 126 q 503 132 498 132 q 493 162 493 148 q 498 167 498 162 q 453 126 486 167 l 453 117 q 488 101 482 101 l 488 96 l 463 96 q 437 121 456 96 q 463 162 440 136 q 402 228 453 162 q 387 222 393 222 q 296 288 307 253 q 301 293 296 293 l 296 319 l 296 329 q 357 389 357 382 q 342 420 342 395 l 336 420 l 336 410 l 342 379 l 336 379 l 311 399 q 321 364 321 379 l 316 364 l 281 374 q 296 364 281 364 l 296 349 l 260 354 q 266 349 260 349 q 210 263 266 304 q 170 253 191 253 l 155 253 q 73 313 87 313 l 73 319 l 83 319 l 83 323 q 68 329 78 323 l 43 323 q 18 354 28 327 l 23 379 q 3 399 15 379 l 3 414 q 23 445 3 445 l 18 455 q 54 490 18 490 l 48 500 q 104 536 48 516 q 109 541 104 541 l 129 541 q 144 526 136 541 q 184 556 153 526 q 225 576 225 566 l 220 602 q 256 632 220 632 q 276 591 268 632 l 332 572 l 332 576 q 256 723 256 641 q 205 693 225 693 l 190 693 q 119 779 134 693 l 119 784 q 200 890 119 873 q 266 824 266 873 l 276 824 q 301 870 276 841 q 245 935 297 903 q 190 1037 191 990 q 250 1072 190 1063 q 332 1052 293 1067 l 332 1057 q 372 1093 332 1061 q 367 1097 372 1097 q 408 1163 377 1163 m 402 1148 q 382 1118 382 1122 l 387 1118 l 382 1107 q 387 1087 382 1096 l 382 1077 q 408 1001 395 1001 q 422 1072 422 1035 l 417 1122 l 408 1122 q 392 1047 408 1047 l 392 1062 q 408 1138 392 1105 l 412 1138 q 437 1067 429 1138 q 427 1001 427 1016 q 478 945 478 969 q 509 941 505 941 l 509 945 q 488 1006 509 965 l 483 1006 l 478 981 l 473 981 l 473 1031 q 402 1148 458 1148 m 205 1027 q 286 920 205 988 l 286 941 l 291 941 q 347 850 319 850 q 408 930 376 850 l 397 961 q 387 951 387 959 l 377 956 l 352 956 l 352 961 l 342 961 l 316 956 l 316 966 q 382 976 370 976 q 387 971 382 971 l 387 976 q 260 1052 321 1052 l 240 1052 q 205 1027 205 1052 m 392 991 l 422 926 l 458 935 l 458 956 q 433 981 458 962 l 433 976 l 443 961 l 437 961 q 392 991 404 991 m 493 926 l 488 895 l 493 895 l 488 885 l 493 875 l 478 875 l 478 860 q 483 854 478 854 l 478 844 l 478 829 l 483 829 q 498 905 498 863 q 509 895 509 903 q 483 809 509 841 q 559 677 559 758 q 585 703 566 677 q 534 809 534 747 q 544 910 534 835 q 493 926 518 926 m 352 829 q 458 642 352 749 q 453 637 453 642 l 427 642 l 417 642 q 361 597 361 642 q 433 536 361 566 l 427 546 l 427 551 q 519 500 481 500 q 564 541 541 500 l 564 546 l 559 546 q 528 511 559 528 l 509 511 q 437 597 469 511 l 412 582 l 408 582 l 408 597 q 448 612 438 612 l 463 612 l 463 597 l 453 602 l 448 602 q 524 556 450 583 q 670 677 624 556 l 670 693 q 640 718 667 718 l 630 718 l 620 713 q 614 718 620 718 q 620 733 620 728 q 579 870 620 797 l 574 870 q 559 840 574 863 q 614 733 598 840 l 610 708 l 625 708 l 625 698 l 614 698 l 614 693 q 645 673 645 693 q 569 612 645 623 q 564 617 569 617 q 559 612 564 612 l 554 632 q 579 677 574 671 l 574 677 q 538 637 547 637 l 538 657 q 463 743 463 692 q 443 890 456 743 q 437 905 437 890 l 417 905 q 352 834 363 836 l 352 829 m 448 895 q 463 829 463 857 l 468 829 q 473 854 468 854 q 468 870 468 865 l 468 885 l 453 895 l 448 895 m 554 890 q 549 875 554 884 l 549 870 l 554 870 q 559 885 554 875 l 559 890 l 554 890 m 544 834 l 544 824 q 574 733 544 760 l 574 753 q 569 758 574 758 q 594 779 569 779 q 549 834 583 816 l 544 834 m 463 799 l 463 784 q 519 677 463 730 q 509 718 509 696 l 509 739 l 528 743 q 468 799 500 799 l 463 799 m 690 667 l 690 647 q 665 587 690 636 q 670 572 670 577 l 690 582 l 696 572 q 675 556 686 572 q 726 511 675 524 q 736 500 728 500 q 741 511 736 511 q 731 546 731 531 l 741 551 q 771 541 758 541 l 781 541 l 781 551 q 751 582 781 555 l 751 591 q 781 597 778 597 l 781 602 q 766 617 781 609 l 711 617 q 715 637 711 628 q 696 667 705 667 l 690 667 m 670 652 q 630 587 670 633 l 635 587 q 680 652 680 623 l 670 652 m 231 602 l 231 562 l 180 541 l 180 526 l 215 526 l 215 511 q 195 465 195 488 l 205 465 q 240 490 225 490 l 245 480 l 245 475 l 240 440 l 250 435 q 301 526 301 513 q 266 551 288 551 l 266 562 l 271 562 l 296 556 q 266 587 296 564 q 250 617 259 617 l 245 617 q 231 602 238 617 m 650 587 l 650 572 q 670 526 655 526 l 655 587 l 650 587 m 610 541 q 645 480 610 487 l 650 480 l 650 486 q 620 531 620 497 l 620 556 l 630 572 l 630 576 q 610 541 610 568 m 301 572 q 311 511 311 547 l 316 511 l 316 566 q 301 572 311 566 m 579 541 l 589 521 l 579 496 q 604 435 599 435 q 630 470 604 444 l 630 475 q 600 546 604 475 l 604 566 q 579 541 597 566 m 807 566 l 807 562 l 817 516 l 827 516 l 827 531 l 822 541 l 832 541 l 837 516 l 842 516 l 842 531 q 822 566 842 558 l 807 566 m 342 562 l 342 556 q 361 506 355 556 q 336 460 353 479 l 342 460 q 372 516 362 460 q 342 562 359 555 m 852 562 l 847 551 q 852 536 852 541 l 847 536 l 852 526 l 847 516 l 847 511 l 852 511 q 863 526 852 526 l 863 511 l 857 500 l 863 500 q 878 536 878 519 l 878 546 q 852 562 878 557 m 372 551 l 372 546 q 382 506 382 528 q 352 455 372 455 l 352 450 q 382 430 352 445 l 392 435 l 427 435 q 387 414 427 425 q 306 323 387 389 l 306 319 q 316 309 308 309 q 372 359 316 313 l 372 354 q 326 298 372 349 q 377 243 372 243 l 392 243 q 473 323 452 243 l 453 323 q 408 303 437 323 l 408 309 q 453 339 425 339 l 458 339 l 493 334 q 503 344 495 344 l 538 344 l 569 323 l 585 414 l 574 490 l 554 490 q 559 486 554 486 q 538 460 549 463 l 524 460 l 503 475 l 478 460 q 422 490 441 490 q 372 551 405 551 m 473 546 q 509 521 477 531 l 509 526 q 473 546 509 536 m 513 536 l 513 526 l 534 526 q 524 536 534 536 l 513 536 m 791 536 q 781 521 791 521 q 751 531 768 521 l 751 516 q 807 496 783 516 l 807 500 l 797 521 l 802 521 l 812 516 q 797 536 804 536 l 791 536 m 554 506 l 554 500 q 574 516 574 508 l 574 531 q 554 506 567 530 m 99 521 q 104 500 104 512 l 114 506 l 119 506 l 119 480 l 124 480 q 134 511 124 499 l 134 526 l 109 526 l 99 521 m 433 521 l 433 506 q 448 496 433 496 q 463 500 458 500 q 443 521 463 509 l 433 521 m 882 521 q 867 490 882 509 l 867 486 q 892 496 884 496 l 878 475 q 913 490 913 482 q 892 521 903 521 l 882 521 m 134 490 l 139 490 q 155 506 139 498 l 155 500 l 144 486 l 144 480 q 175 496 164 496 l 175 506 q 159 516 175 516 q 134 490 146 516 m 68 511 q 63 486 63 504 q 83 465 79 465 l 83 470 l 79 496 q 89 480 89 496 l 99 480 q 68 511 99 511 m 184 511 l 184 496 l 195 496 q 205 506 195 506 l 205 511 l 195 511 q 190 506 195 506 q 184 511 190 511 m 594 395 l 620 399 l 625 399 l 625 374 q 650 430 631 374 l 675 445 q 711 435 701 435 l 715 465 l 726 465 q 736 430 726 453 l 746 430 l 746 455 q 711 506 739 455 l 701 511 l 680 511 l 645 465 q 600 410 616 450 q 594 395 600 404 m 756 506 l 741 486 l 741 475 q 761 460 741 460 q 797 470 777 470 q 777 480 797 480 l 777 490 l 787 490 l 797 486 l 797 490 q 756 506 768 506 m 468 500 q 463 496 468 496 q 478 475 471 475 l 483 475 q 498 490 490 475 q 468 500 479 490 m 817 500 l 817 490 q 857 435 817 447 q 873 440 867 440 q 827 500 873 500 l 817 500 m 513 480 l 538 475 l 544 475 q 549 490 544 481 l 538 496 q 513 480 513 489 m 155 465 l 159 465 q 165 470 159 470 l 165 460 l 155 460 l 155 455 l 159 455 q 180 460 168 460 q 184 455 180 455 q 190 486 184 478 l 175 486 q 155 465 167 486 m 250 420 q 271 364 262 364 l 276 364 l 271 374 l 271 379 l 301 379 l 311 374 q 296 414 296 399 l 296 425 l 301 425 q 326 405 323 405 l 332 405 q 316 455 316 445 q 321 460 321 455 q 306 480 309 460 l 296 480 q 260 425 287 480 l 250 420 m 28 450 l 38 445 l 58 445 l 58 450 q 43 460 43 450 q 48 465 48 460 q 73 455 64 455 l 73 460 q 58 475 73 467 l 43 475 q 28 450 32 475 m 210 430 q 215 414 215 420 q 190 389 208 389 l 190 385 q 200 359 200 372 l 205 359 q 245 425 212 359 q 231 445 238 425 l 235 475 q 210 430 224 475 m 83 445 q 89 440 89 445 l 79 440 l 79 430 q 99 410 79 425 q 134 445 108 410 l 134 460 q 124 470 134 470 l 109 470 q 83 445 102 470 m 882 465 l 882 460 q 908 450 908 460 q 903 445 903 450 q 928 430 911 445 l 933 430 l 933 435 q 898 470 933 464 q 882 465 888 465 m 756 420 l 781 399 q 817 450 808 422 l 807 450 l 797 445 l 797 450 q 812 460 797 460 l 812 465 l 807 465 q 756 420 756 455 m 200 445 l 200 440 q 210 450 210 440 l 210 455 q 200 445 200 454 m 326 455 l 326 450 q 357 395 357 421 q 382 420 363 395 q 326 455 353 420 m 149 445 q 165 435 149 435 l 165 425 l 159 425 q 144 430 150 430 q 180 395 144 426 q 205 414 203 401 q 200 420 200 414 q 205 425 205 420 l 184 445 l 149 445 m 802 389 q 807 374 807 380 l 827 374 q 842 405 842 379 l 842 430 l 837 430 l 837 399 l 832 399 q 827 440 827 435 q 802 389 816 440 m 882 440 l 882 435 l 898 435 l 898 425 l 892 425 q 878 430 883 430 q 898 385 898 403 l 908 385 q 923 399 915 385 q 892 440 923 427 l 882 440 m 13 410 q 23 385 23 393 l 28 385 q 73 414 28 411 l 73 420 l 43 420 q 38 414 43 414 l 38 420 q 63 430 38 430 l 63 435 l 38 435 q 13 410 13 435 m 715 435 l 715 430 q 751 354 744 393 q 746 334 746 345 l 746 329 q 756 319 747 319 l 761 319 l 761 354 q 715 435 761 380 m 640 385 l 645 385 q 650 389 650 385 q 690 309 690 377 l 680 309 l 680 319 q 650 374 680 364 l 645 364 q 660 359 654 359 q 655 354 660 354 l 660 329 l 660 303 l 635 268 l 655 268 l 670 278 l 675 278 q 680 268 675 268 q 736 354 736 293 q 675 430 726 430 q 640 385 659 430 m 863 425 l 867 414 l 867 405 q 857 420 857 405 l 852 420 q 847 385 852 391 q 867 364 855 385 q 888 379 888 372 l 888 385 q 873 425 888 394 l 863 425 m 124 414 l 124 410 q 149 389 139 410 l 149 379 q 114 405 119 405 q 165 349 129 349 l 175 364 l 175 385 q 129 414 153 414 l 124 414 m 33 359 q 48 339 41 339 l 63 339 l 63 359 l 68 395 l 58 389 l 54 389 l 68 410 q 33 359 46 410 m 94 405 q 73 354 73 383 q 94 334 79 334 q 114 359 114 339 q 109 399 109 387 l 104 399 l 99 364 l 94 364 l 94 395 l 99 405 l 94 405 m 240 399 q 210 323 210 329 l 210 313 l 215 313 l 231 364 l 235 364 l 235 349 q 220 288 220 303 q 250 364 245 288 l 245 399 l 240 399 m 771 364 l 781 359 l 791 395 q 771 364 771 385 m 574 303 q 579 278 579 295 q 614 385 614 316 l 614 389 q 579 303 594 389 l 574 303 m 184 369 l 180 344 q 195 319 195 344 l 200 319 l 200 339 q 190 369 190 355 l 184 369 m 791 369 q 781 349 791 361 q 817 354 802 354 l 817 359 q 797 369 809 359 l 791 369 m 119 349 q 114 329 119 338 l 119 329 l 149 334 l 149 339 q 119 349 131 339 m 159 339 l 159 329 q 180 323 171 329 l 180 329 q 175 344 175 338 q 159 339 165 339 m 777 334 l 777 323 l 787 329 l 817 329 l 817 319 l 797 319 q 766 298 771 319 l 791 293 l 802 293 q 857 339 832 293 q 807 344 808 339 q 777 334 786 334 m 468 222 q 458 258 458 222 l 453 258 q 448 228 453 235 q 453 222 453 228 l 448 222 q 458 182 458 191 l 463 182 l 463 197 q 458 202 458 197 l 468 208 q 483 172 473 172 q 498 177 493 177 l 498 197 l 493 208 q 503 218 503 208 l 503 268 q 538 323 510 323 l 538 329 l 513 334 q 468 222 471 334 m 129 323 l 129 319 q 210 283 146 319 q 139 323 210 311 l 129 323 m 114 319 l 109 309 q 175 268 151 268 l 200 273 l 200 278 q 114 319 119 319 m 509 182 q 528 187 517 187 l 524 212 l 524 222 q 569 258 524 229 l 569 273 l 564 283 l 569 283 q 549 313 559 313 l 538 313 q 509 182 512 313 m 311 293 l 311 283 q 342 258 311 275 q 316 293 324 293 l 311 293 m 43 288 l 68 288 l 68 278 l 43 278 l 43 288 m 13 283 l 38 283 l 38 278 q 28 268 38 268 l 18 268 q 13 283 18 273 m 579 253 q 635 228 615 253 q 660 253 635 253 l 660 258 l 650 258 l 650 253 q 620 273 645 253 l 614 273 q 579 253 587 273 m 822 273 l 857 273 l 857 263 l 822 258 l 822 273 m 908 268 l 928 268 l 928 258 l 908 258 l 908 268 m 271 263 q 281 253 281 261 l 271 253 l 271 248 l 306 248 l 306 237 l 276 237 q 245 258 245 251 l 271 263 m 892 263 l 898 253 l 888 248 l 863 248 l 863 258 q 892 263 889 263 m 210 248 l 235 248 l 235 243 q 225 237 225 243 q 210 243 216 243 l 210 248 m 640 208 l 650 202 l 660 202 q 701 233 660 224 l 701 222 q 670 197 670 212 q 690 187 682 187 l 686 177 l 696 172 q 731 208 696 184 l 731 212 q 680 243 731 233 l 660 243 q 640 208 640 235 m 726 243 q 741 208 741 224 q 736 202 736 208 l 741 202 q 812 222 741 222 q 756 243 812 235 l 726 243 m 534 202 q 579 177 534 191 q 585 172 579 172 l 604 187 l 589 212 l 589 218 q 614 197 612 197 q 630 202 625 202 q 604 237 630 224 l 594 233 l 585 237 q 534 202 534 225 m 751 202 l 751 197 q 781 187 765 197 q 802 218 781 192 l 797 218 q 751 202 760 202 m 594 162 q 650 136 594 144 q 655 142 650 142 q 660 136 655 136 q 690 162 668 162 q 650 192 669 192 q 594 162 618 192 m 701 172 l 701 167 l 721 167 l 721 157 l 696 157 q 670 136 671 144 q 705 111 680 136 l 741 111 q 777 177 777 126 q 746 187 760 187 q 701 172 703 172 m 509 157 q 564 106 509 118 l 574 106 q 604 132 593 132 q 549 146 604 146 q 569 162 549 154 q 574 157 569 157 l 574 167 q 538 177 564 167 q 509 157 509 167 m 827 167 l 847 167 l 847 157 l 817 157 q 827 167 819 167 m 402 132 l 427 132 l 427 126 q 417 117 427 117 l 392 121 q 402 132 393 132 m 377 111 l 402 111 q 392 101 402 101 l 387 101 q 377 111 377 101 z "}," ":{"ha":399,"x_min":0,"x_max":0,"o":""},"":{"ha":399,"x_min":0,"x_max":0,"o":""},"!":{"ha":456,"x_min":0,"x_max":0,"o":""},"\"":{"ha":456,"x_min":0,"x_max":0,"o":""},"#":{"ha":906,"x_min":0,"x_max":0,"o":""},"$":{"ha":688,"x_min":0,"x_max":0,"o":""},"%":{"ha":1092,"x_min":0,"x_max":0,"o":""},"&":{"ha":1141,"x_min":0,"x_max":0,"o":""},"'":{"ha":235,"x_min":0,"x_max":0,"o":""},"(":{"ha":514,"x_min":0,"x_max":0,"o":""},")":{"ha":514,"x_min":0,"x_max":0,"o":""},"*":{"ha":694,"x_min":0,"x_max":0,"o":""},"+":{"ha":688,"x_min":0,"x_max":0,"o":""},",":{"ha":378,"x_min":0,"x_max":0,"o":""},"-":{"ha":454,"x_min":0,"x_max":0,"o":""},"":{"ha":454,"x_min":0,"x_max":0,"o":""},".":{"ha":378,"x_min":0,"x_max":0,"o":""},"/":{"ha":386,"x_min":0,"x_max":0,"o":""},":":{"ha":378,"x_min":0,"x_max":0,"o":"z "},";":{"ha":378,"x_min":0,"x_max":0,"o":"z "},"":{"ha":378,"x_min":0,"x_max":0,"o":"z "},"<":{"ha":688,"x_min":0,"x_max":0,"o":""},"=":{"ha":688,"x_min":0,"x_max":0,"o":""},">":{"ha":688,"x_min":0,"x_max":0,"o":""},"?":{"ha":507,"x_min":0,"x_max":0,"o":""},"@":{"ha":1369,"x_min":0,"x_max":0,"o":""},"A":{"ha":1027,"x_min":3,"x_max":859,"o":"m 39 1160 q 53 1147 39 1154 l 48 1138 l 48 1133 q 57 1147 57 1133 l 66 1147 l 66 1142 l 62 1133 l 62 1120 q 48 1106 48 1120 l 39 1106 l 43 1115 l 43 1120 l 39 1120 l 39 1110 q 35 1115 35 1110 l 25 1110 l 16 1110 l 16 1124 l 21 1124 l 21 1115 q 30 1124 30 1115 q 16 1133 16 1124 l 30 1133 l 30 1138 l 16 1138 q 12 1133 16 1133 l 12 1138 l 39 1160 m 379 1160 q 393 1128 393 1160 l 397 1128 l 397 1152 l 401 1152 l 401 1138 q 420 1147 412 1147 l 429 1147 l 429 1142 l 415 1142 l 415 1133 l 420 1133 l 433 1142 l 433 1138 q 429 1124 429 1129 q 433 1120 433 1124 q 415 1101 415 1115 l 411 1101 q 397 1124 398 1101 l 393 1124 l 393 1110 q 401 1020 393 1095 q 370 979 370 1020 q 334 929 370 929 l 325 929 q 302 970 302 941 l 315 1002 l 311 1002 q 243 979 254 979 q 220 988 229 988 q 193 979 205 979 q 170 988 185 979 q 148 970 170 970 l 125 983 q 75 956 125 956 q 62 939 62 951 q 43 929 43 939 l 39 929 l 39 943 l 35 943 l 35 929 q 39 924 39 929 l 35 924 q 16 934 23 934 l 16 947 l 21 947 l 21 939 q 30 947 30 939 q 12 961 12 947 l 12 966 q 35 979 23 966 q 48 961 35 961 l 48 952 l 39 956 l 35 956 l 35 952 q 53 943 41 952 l 57 943 l 53 952 q 57 956 57 952 q 35 988 47 956 q 12 1010 24 988 l 12 1020 l 21 1020 l 16 1010 q 30 997 30 1010 l 30 993 l 35 993 q 30 1015 35 1015 q 21 1024 21 1015 l 21 1034 q 35 1042 21 1042 q 30 1047 35 1047 q 43 1079 36 1079 q 39 1097 39 1086 l 35 1097 l 35 1079 l 25 1083 l 21 1083 l 12 1079 l 12 1088 q 30 1097 30 1088 l 30 1101 l 43 1101 l 43 1093 l 53 1097 l 57 1097 l 48 1083 l 48 1079 q 62 1069 62 1079 l 62 1047 q 84 1042 77 1047 q 89 1047 84 1047 q 102 1015 102 1030 l 107 1015 q 121 1047 107 1036 l 130 1042 l 134 1042 q 157 1065 134 1065 q 166 1056 158 1056 q 184 1074 166 1063 l 189 1074 q 216 1065 201 1074 q 252 1079 241 1079 l 252 1106 q 266 1120 252 1112 l 275 1120 q 283 1110 283 1118 l 283 1088 q 320 1038 315 1088 l 325 1038 q 338 1083 325 1083 l 352 1083 l 366 1029 l 370 1029 q 374 1047 370 1039 q 361 1110 368 1061 q 366 1115 361 1115 l 361 1138 q 379 1160 370 1158 m 89 1156 l 94 1156 l 94 1152 l 89 1142 l 98 1138 l 98 1142 q 94 1147 94 1142 l 102 1152 l 102 1142 l 107 1142 l 107 1152 q 102 1156 102 1152 l 111 1156 q 125 1138 111 1143 l 130 1128 q 116 1110 119 1128 l 89 1106 q 71 1133 89 1113 q 89 1156 83 1156 m 153 1156 l 161 1156 l 175 1147 q 180 1152 175 1152 l 184 1142 l 170 1142 l 170 1133 l 180 1138 l 184 1138 l 189 1120 l 166 1106 l 161 1106 l 166 1115 l 166 1120 l 161 1120 l 161 1110 q 157 1115 157 1110 l 148 1110 l 139 1110 l 139 1124 l 143 1124 l 143 1115 q 157 1120 152 1120 l 157 1124 q 139 1133 139 1124 l 153 1133 l 153 1138 l 139 1138 q 134 1133 139 1133 l 134 1138 q 153 1156 153 1149 m 207 1156 q 224 1138 224 1156 l 229 1138 l 229 1152 q 224 1156 224 1152 l 229 1156 q 239 1147 239 1154 q 234 1142 234 1147 q 252 1138 244 1142 q 234 1106 241 1106 l 224 1110 q 207 1106 217 1106 q 197 1124 207 1124 l 197 1128 l 211 1128 l 211 1133 l 197 1133 q 193 1128 197 1128 l 193 1133 l 207 1156 m 275 1156 l 283 1156 q 307 1147 295 1147 l 307 1142 l 293 1142 l 293 1133 l 297 1133 l 311 1142 l 311 1138 q 307 1133 311 1133 l 311 1124 q 288 1106 311 1118 q 256 1128 288 1128 l 256 1142 q 275 1156 275 1142 m 352 1156 l 356 1156 q 361 1147 356 1147 l 352 1120 q 356 1106 356 1111 l 347 1110 q 329 1106 339 1106 q 320 1124 329 1124 l 315 1124 l 315 1138 q 325 1152 325 1138 l 338 1152 l 334 1142 l 334 1138 l 338 1138 q 352 1156 340 1156 m 474 1156 l 479 1156 q 497 1128 479 1145 l 479 1120 q 474 1124 479 1124 l 474 1120 q 483 1110 475 1110 l 483 1120 l 488 1120 l 488 1106 q 469 1110 477 1106 q 452 1106 462 1106 q 447 1124 452 1116 q 456 1133 456 1124 l 447 1133 l 438 1128 l 438 1138 q 447 1152 447 1138 l 460 1152 l 460 1147 l 452 1147 q 460 1138 453 1138 q 474 1156 463 1156 m 519 1156 l 528 1156 q 551 1147 540 1147 l 551 1142 q 538 1133 538 1142 l 542 1133 l 555 1142 l 555 1124 l 560 1124 l 560 1120 q 538 1101 538 1120 l 533 1101 l 519 1110 l 519 1106 q 506 1110 511 1110 l 506 1120 l 515 1115 q 533 1124 526 1124 l 533 1133 l 524 1133 q 511 1120 524 1120 l 501 1133 l 501 1142 q 519 1152 519 1142 l 519 1156 m 651 1156 l 655 1147 l 642 1147 q 651 1156 643 1156 m 773 1156 q 787 1142 773 1149 l 787 1147 q 800 1138 800 1142 q 796 1124 796 1129 q 800 1120 800 1124 l 778 1101 l 773 1101 l 778 1110 l 778 1120 l 773 1120 l 773 1106 q 769 1110 769 1106 l 760 1106 l 751 1106 l 751 1120 l 760 1115 l 764 1115 l 764 1120 q 751 1128 751 1120 l 764 1128 q 751 1138 764 1138 l 751 1142 q 773 1156 762 1142 m 574 1152 l 578 1152 q 583 1147 583 1152 l 592 1152 l 606 1152 l 606 1147 l 601 1138 q 619 1128 619 1138 q 610 1110 610 1128 l 606 1110 l 606 1120 l 597 1120 l 597 1110 l 587 1110 l 587 1120 l 583 1120 l 574 1115 l 569 1124 l 578 1124 l 578 1133 l 574 1133 q 560 1128 565 1128 q 569 1147 569 1140 l 583 1138 l 583 1142 q 574 1152 574 1142 m 701 1152 q 705 1147 705 1152 l 714 1152 l 728 1152 l 728 1147 l 724 1138 q 741 1133 734 1138 l 737 1124 l 737 1106 q 701 966 737 1023 l 701 956 q 846 716 846 886 l 846 703 q 642 463 846 561 l 646 453 q 587 399 627 399 l 569 399 q 506 412 536 399 q 479 380 492 410 q 515 281 507 380 q 551 250 531 250 l 551 258 q 565 322 565 317 l 565 326 l 560 358 l 565 358 q 610 290 610 317 l 614 290 q 701 376 638 376 q 741 349 727 376 l 764 353 q 810 326 785 353 l 814 326 q 823 336 823 326 l 810 336 q 823 345 810 345 l 823 353 l 810 353 l 810 358 q 832 367 821 358 l 855 349 q 827 308 855 323 q 823 322 823 317 l 810 322 q 827 299 811 309 l 837 304 l 846 304 q 850 281 846 288 l 837 281 q 846 272 838 272 q 855 281 847 281 l 855 277 q 841 254 841 265 l 832 254 q 823 263 823 254 l 823 277 l 832 277 l 832 281 l 823 281 l 827 290 q 819 299 827 299 l 819 267 q 692 45 819 170 q 701 32 701 45 l 705 32 l 705 36 q 701 54 701 44 q 719 59 703 54 l 710 45 l 710 41 q 719 54 719 41 l 724 54 q 732 32 724 43 q 714 9 714 20 l 710 9 q 696 22 703 9 q 701 27 701 22 l 696 27 q 687 18 687 26 l 696 18 l 696 14 l 683 14 q 673 27 683 27 l 673 32 l 696 32 l 696 36 q 687 45 687 36 q 587 0 631 0 q 538 54 538 12 l 533 54 q 528 45 533 45 l 533 36 l 528 27 q 542 22 537 22 l 542 18 q 524 9 524 18 l 515 9 l 524 27 l 515 27 l 515 14 q 492 22 504 22 l 492 32 l 501 45 q 515 32 515 45 l 524 32 l 524 41 q 506 50 517 41 l 497 45 l 497 54 q 524 64 513 54 l 533 59 l 538 91 l 538 95 l 519 81 l 492 81 q 452 95 484 81 q 425 81 447 81 l 420 81 q 397 104 403 104 q 370 86 388 86 q 342 104 342 86 l 270 91 l 248 91 q 111 267 180 91 q 98 349 98 329 q 175 467 109 467 q 234 480 227 480 l 252 480 q 302 399 302 450 l 307 399 q 325 417 313 399 l 325 426 q 293 439 325 439 q 311 449 293 449 l 311 463 q 283 503 311 492 q 279 471 279 485 l 270 471 l 266 494 q 302 508 277 508 l 302 530 q 329 585 302 548 q 288 757 288 718 l 288 775 l 293 821 q 270 811 278 811 q 283 770 270 791 l 283 766 l 279 766 l 270 770 q 252 743 270 760 q 297 689 277 689 l 297 675 q 252 721 281 675 l 248 721 q 211 648 248 666 q 161 698 161 648 q 175 743 161 720 l 170 743 l 148 734 l 148 739 l 139 734 q 84 766 102 734 l 84 770 q 125 821 84 802 l 134 821 l 161 816 l 166 816 l 166 821 q 130 875 130 844 q 148 907 136 907 l 175 907 q 224 852 224 873 l 229 852 q 270 916 229 896 l 279 916 q 311 880 311 916 q 307 861 311 869 l 307 857 l 311 857 q 538 993 390 993 l 574 993 l 606 988 q 574 1101 601 1036 q 614 983 614 1061 l 655 983 l 660 1029 q 637 1142 660 1080 q 651 1115 651 1138 l 655 1115 l 655 1124 q 651 1138 651 1133 l 665 1147 l 669 1147 l 660 1133 l 669 1133 l 669 1142 l 678 1142 l 678 1138 l 673 1128 l 673 1115 q 655 1110 663 1115 q 669 1020 669 1063 q 665 975 665 980 l 692 961 q 728 1097 728 1034 l 728 1106 q 710 1120 710 1106 l 701 1120 l 701 1110 l 710 1110 q 701 1101 710 1101 q 683 1128 701 1109 l 683 1133 l 696 1124 l 701 1124 l 701 1133 l 687 1133 q 701 1152 694 1152 m 823 1152 q 827 1147 827 1152 l 837 1152 l 841 1152 q 850 1142 850 1150 q 846 1138 846 1142 l 859 1138 l 859 1124 l 855 1124 l 855 1133 l 846 1133 l 846 1124 l 855 1124 l 855 1106 l 850 1106 q 841 1120 850 1120 l 837 1120 l 841 1110 l 827 1101 l 819 1101 q 805 1128 819 1117 l 805 1133 l 819 1124 l 823 1124 q 810 1133 823 1133 l 810 1138 l 819 1138 q 832 1133 827 1133 q 814 1142 832 1142 q 823 1152 815 1152 m 261 1138 l 261 1133 q 275 1128 266 1133 l 275 1138 l 261 1138 m 506 1138 q 515 1128 507 1128 l 519 1128 l 519 1138 l 506 1138 m 220 1133 q 211 1115 220 1126 l 211 1110 q 220 1124 220 1110 l 234 1115 l 239 1115 q 224 1124 239 1124 l 229 1133 l 220 1133 m 342 1133 q 334 1115 342 1126 l 334 1110 q 347 1128 340 1110 l 347 1133 l 342 1133 m 465 1133 q 456 1115 465 1126 l 456 1110 q 469 1128 463 1110 l 469 1133 l 465 1133 m 624 1138 q 637 1124 630 1138 l 637 1120 q 624 1133 631 1120 l 624 1138 m 724 1133 l 724 1128 l 728 1120 l 714 1120 q 724 1110 715 1110 l 728 1110 l 732 1133 l 724 1133 m 102 1124 q 111 1115 104 1115 l 116 1115 q 107 1124 116 1124 l 102 1124 m 628 1120 q 642 1115 637 1115 q 633 1106 642 1106 l 628 1115 l 628 1120 m 565 1115 q 574 1106 574 1114 l 574 1101 q 565 1110 565 1101 l 565 1115 m 837 1097 l 846 1097 q 859 1083 846 1083 l 855 1061 q 859 1056 859 1061 l 837 1042 l 832 1042 l 841 1056 l 832 1061 l 832 1047 l 827 1047 l 827 1056 l 823 1056 l 814 1052 l 810 1061 l 810 1065 l 819 1061 l 827 1061 l 827 1069 l 819 1065 l 814 1065 q 819 1069 814 1069 q 814 1083 814 1078 l 814 1088 l 819 1088 q 827 1074 819 1074 l 827 1079 l 823 1088 l 837 1097 m 16 1079 l 30 1079 l 30 1074 l 21 1061 l 30 1061 l 30 1056 l 16 1056 l 16 1065 l 21 1074 q 16 1079 16 1074 m 283 1061 l 283 1042 q 288 1024 288 1035 l 293 1024 l 293 1029 q 288 1061 288 1047 l 283 1061 m 388 1056 l 383 1047 l 383 1042 l 388 1042 q 393 1056 388 1047 l 388 1056 m 184 1042 l 189 1042 q 197 1052 197 1042 l 193 1052 q 184 1042 184 1050 m 211 1052 q 207 1038 211 1046 l 211 1038 l 216 1047 l 216 1052 l 211 1052 m 234 1052 q 229 1038 234 1046 l 234 1038 l 239 1047 l 239 1052 l 234 1052 m 846 1038 q 859 1015 848 1015 l 859 1006 q 841 983 848 984 l 814 988 l 814 997 l 819 1006 l 810 1006 l 810 1020 l 823 1020 l 819 1029 l 827 1034 l 832 1034 l 827 1024 l 827 1020 l 832 1020 q 846 1038 834 1038 m 243 1010 l 248 1010 q 256 1020 256 1010 l 256 1029 q 243 1010 250 1029 m 189 1010 l 197 1010 q 207 1020 207 1010 l 207 1024 l 202 1024 q 189 1010 195 1024 m 62 1020 q 66 988 66 1002 l 75 993 l 71 1020 l 62 1020 m 814 1015 l 814 1010 q 832 1006 824 1010 l 837 1006 l 837 1010 q 823 1015 832 1010 l 814 1015 m 338 983 l 334 961 q 342 975 342 961 l 342 983 l 338 983 m 302 770 l 302 762 q 347 589 321 589 q 315 530 315 553 l 315 522 q 406 453 315 479 q 442 431 434 431 l 442 426 l 429 426 q 425 431 429 431 q 433 394 433 408 q 397 358 433 387 q 379 299 379 315 q 442 154 379 219 q 452 213 447 206 l 447 213 l 452 222 l 452 236 q 442 317 452 294 l 452 317 q 460 222 460 260 q 420 91 460 139 l 429 91 l 452 104 l 497 91 l 479 109 l 479 113 q 515 91 486 112 l 519 91 l 519 100 q 501 113 501 100 q 506 118 506 113 q 474 150 474 132 q 497 263 497 220 l 497 308 q 452 376 497 376 l 452 385 q 488 417 474 385 l 474 417 l 474 426 l 479 426 q 578 408 558 408 q 637 480 629 408 l 646 476 l 651 476 q 832 711 832 571 l 832 734 q 660 966 832 884 q 614 975 656 966 l 614 952 l 606 952 l 606 979 q 547 983 603 979 q 307 821 380 983 q 302 770 302 789 m 832 979 q 850 961 840 979 l 859 961 l 859 952 l 850 956 l 841 956 l 841 952 l 855 952 q 841 943 855 943 q 850 934 843 934 l 850 943 l 855 943 l 855 929 q 837 920 848 929 l 832 920 l 837 929 l 837 939 l 832 939 l 832 924 l 827 924 q 810 934 827 934 q 814 952 810 944 q 810 966 810 961 l 827 952 l 827 956 q 814 966 827 966 l 814 970 l 832 970 l 832 961 l 841 961 l 841 970 l 832 970 l 832 979 m 814 939 l 819 939 q 827 947 827 939 l 823 947 q 814 939 814 946 m 30 920 l 35 920 l 35 911 l 25 911 l 25 902 l 35 902 l 35 911 l 39 911 l 39 902 q 48 911 48 902 l 39 911 l 39 920 q 66 893 49 920 q 57 870 57 893 l 48 870 q 39 884 39 870 l 30 884 l 30 870 l 39 875 l 39 866 l 25 866 q 21 880 25 871 q 25 884 25 880 l 12 884 l 12 897 l 21 897 l 16 888 l 30 888 l 21 902 l 21 911 q 30 920 22 920 m 411 920 q 366 880 370 895 l 361 857 l 356 857 l 356 870 q 411 920 356 916 m 827 916 q 841 911 836 911 q 846 916 841 916 l 850 907 l 850 897 l 841 884 l 855 884 l 850 893 l 859 893 l 859 880 q 846 861 846 880 l 832 861 l 832 870 l 823 866 l 814 866 l 814 880 l 819 880 l 819 870 q 827 880 827 870 q 805 893 805 882 q 827 916 808 893 m 837 907 q 832 888 837 897 l 832 884 l 837 884 q 846 902 837 891 l 846 907 l 837 907 m 239 829 q 266 816 249 829 q 297 888 297 862 q 293 902 293 897 l 283 902 q 239 829 239 902 m 153 897 l 143 875 q 197 816 161 816 q 220 829 208 829 q 153 897 197 897 m 420 897 l 415 875 l 415 848 q 447 766 415 793 q 460 703 460 731 l 460 684 q 420 562 460 602 l 425 553 l 425 549 q 356 581 386 581 l 356 585 l 388 585 l 383 608 l 383 635 q 420 725 383 700 q 452 707 435 725 q 425 775 441 775 q 370 644 378 775 l 370 639 l 374 608 q 361 657 361 608 q 388 766 361 715 q 334 834 349 766 l 334 838 l 338 838 q 397 775 355 775 l 401 784 q 366 838 379 784 l 366 870 l 370 870 q 411 784 370 815 l 415 784 l 401 843 q 420 897 408 897 m 832 880 q 837 866 837 871 l 841 866 l 841 880 l 832 880 m 35 861 l 39 852 l 30 852 l 30 843 l 39 843 l 39 852 l 57 852 q 62 843 57 843 l 57 834 q 62 816 62 826 q 43 807 43 816 l 43 802 l 35 802 l 12 816 q 16 829 16 825 q 12 843 12 838 l 35 861 m 302 852 q 283 825 302 848 l 288 825 q 293 829 288 829 q 297 825 293 825 q 307 852 297 833 l 302 852 m 832 857 q 850 838 840 857 l 859 838 l 859 834 q 841 821 859 821 q 850 811 843 811 l 850 821 l 855 821 l 855 807 q 837 802 844 807 l 832 825 q 837 829 837 825 q 823 848 823 829 q 832 857 832 848 m 25 829 l 21 821 l 21 816 l 25 816 q 30 829 25 821 l 25 829 m 43 829 l 43 821 l 57 821 q 48 829 57 829 l 43 829 m 35 825 l 35 807 l 39 807 l 39 825 l 35 825 m 719 829 l 732 829 q 764 770 764 807 l 764 743 q 755 734 764 734 l 755 739 q 760 752 755 744 q 719 825 748 825 l 719 829 m 197 793 l 197 789 q 234 752 197 752 q 256 770 254 761 l 256 798 q 224 821 243 821 q 197 793 210 817 m 687 821 l 692 821 l 692 816 q 646 734 692 789 l 646 730 q 737 802 692 739 l 737 798 q 655 725 699 725 l 655 721 l 683 721 q 755 757 716 721 l 755 752 q 678 707 719 707 q 665 711 669 711 l 665 707 q 669 684 669 700 q 597 522 669 602 q 614 512 608 512 l 614 508 l 610 508 q 551 517 574 517 q 538 512 543 512 l 547 526 l 542 526 q 624 675 565 675 l 633 675 l 655 652 q 660 684 655 679 q 637 725 649 725 q 538 571 575 725 l 533 571 l 533 576 q 610 730 533 662 q 673 789 643 730 q 687 821 687 811 m 94 775 q 130 743 97 757 l 193 762 l 189 770 l 189 802 l 157 807 l 139 807 l 130 802 l 130 807 q 94 775 94 800 m 30 798 q 39 780 39 787 l 43 780 l 43 784 q 39 798 39 793 l 62 775 l 62 766 l 53 766 l 57 757 l 57 748 l 43 748 l 43 752 l 53 752 q 43 762 53 762 l 39 743 l 25 743 l 25 748 l 35 748 l 35 762 q 25 748 25 762 l 21 748 q 12 762 21 762 l 12 775 q 21 784 21 775 l 30 780 l 35 780 q 21 789 35 789 q 30 798 22 798 m 841 793 q 855 766 849 793 l 846 766 l 841 793 m 193 757 q 175 694 175 710 q 211 662 175 662 q 243 743 235 662 l 229 743 q 197 757 214 743 l 193 757 m 25 734 q 57 716 57 734 l 62 698 q 43 684 43 696 l 39 684 l 30 707 q 21 698 21 706 q 39 680 31 698 l 35 680 q 12 698 12 692 q 30 711 12 711 l 30 716 l 16 716 q 12 711 16 711 l 12 716 q 21 725 13 725 q 25 721 21 721 l 25 734 m 43 716 l 43 711 q 53 721 53 711 l 53 725 q 43 716 43 724 m 393 630 l 393 594 l 397 594 q 429 675 397 659 l 433 675 q 442 662 442 675 l 447 662 l 447 675 q 429 716 440 716 l 425 716 q 393 630 393 692 m 25 675 q 39 671 34 671 q 43 675 39 675 q 62 657 48 657 l 62 648 l 53 652 l 43 652 l 43 648 l 57 648 q 53 644 57 644 l 57 635 l 57 625 l 48 625 l 39 630 q 35 625 39 625 l 35 639 q 25 625 25 639 l 21 625 q 7 648 21 637 l 16 652 l 21 652 l 16 644 l 25 644 l 25 648 l 16 662 l 16 666 q 25 675 18 675 m 21 666 q 30 657 22 657 l 35 657 q 25 666 35 666 l 21 666 m 551 530 l 560 526 l 569 526 l 565 535 l 565 544 q 610 625 565 587 l 628 625 l 633 598 l 637 598 l 642 644 q 628 666 639 666 q 551 530 576 666 m 846 666 l 850 666 l 850 652 l 841 648 l 841 652 q 846 666 846 661 m 846 648 l 850 648 q 859 639 859 647 q 846 621 848 639 l 841 621 l 841 639 l 850 639 l 846 648 m 35 616 q 57 608 35 608 l 57 594 l 53 594 l 53 603 l 48 603 q 39 594 39 602 q 62 576 62 594 q 35 557 54 576 l 30 557 l 39 571 l 39 581 q 30 562 30 581 l 25 562 l 25 571 l 16 566 l 12 576 q 25 589 12 589 l 25 594 l 21 594 q 7 589 12 589 l 7 594 l 35 616 m 837 612 q 841 594 841 604 l 850 598 l 855 598 l 855 585 l 846 589 l 841 589 l 841 585 q 855 566 855 585 l 832 553 l 827 553 l 837 566 l 837 571 l 827 571 l 827 562 l 805 571 q 823 589 810 589 l 819 598 l 819 603 q 837 612 825 603 m 21 553 l 25 553 l 35 549 l 48 549 q 62 530 48 542 l 53 517 l 57 508 l 48 503 l 43 503 l 48 512 q 39 530 39 524 q 30 522 30 529 q 43 512 43 522 q 30 498 43 506 l 25 498 l 35 512 l 35 517 q 25 503 25 517 l 21 503 q 7 522 21 522 l 21 539 l 30 535 l 35 535 l 21 553 m 823 549 l 832 544 q 846 549 841 549 l 846 539 q 832 530 832 539 l 837 530 l 846 535 l 850 526 l 841 526 l 841 517 l 850 517 l 850 526 l 855 526 l 855 512 q 837 494 848 512 l 832 494 l 841 508 l 832 512 l 832 498 q 823 517 823 498 l 819 517 q 814 503 819 512 l 823 503 l 823 498 l 810 498 l 810 508 l 814 517 q 810 522 810 517 l 823 522 l 823 526 l 810 526 q 805 522 810 522 l 805 526 l 823 549 m 469 544 q 501 494 485 540 l 533 494 q 524 485 533 485 l 501 485 l 492 490 l 492 476 l 488 476 l 488 485 q 447 471 463 471 l 406 498 l 415 512 q 379 517 397 512 l 379 522 q 438 544 395 522 l 469 544 m 415 526 q 460 494 416 519 q 483 498 468 498 l 483 512 q 452 535 479 526 q 415 526 418 526 m 764 535 q 778 508 778 530 q 724 480 765 480 l 741 453 l 741 435 q 714 417 732 417 q 673 449 695 422 q 633 412 673 420 l 633 422 q 673 476 673 422 q 705 494 688 476 l 728 490 l 737 490 q 769 508 762 490 l 769 517 q 755 526 769 526 q 764 535 757 535 m 425 503 q 452 480 427 490 l 460 480 l 460 485 q 425 503 444 485 m 307 494 l 307 490 q 320 463 320 490 l 329 467 l 334 467 l 320 444 l 334 431 q 366 453 363 442 l 366 458 q 307 494 343 458 m 35 494 q 57 485 35 485 l 57 471 l 53 471 l 53 480 l 48 480 q 39 471 39 479 q 57 449 57 471 q 39 444 47 449 l 39 453 l 30 453 l 30 439 l 25 439 l 25 449 l 16 444 l 12 453 l 16 463 q 7 471 7 463 l 35 494 m 678 467 q 705 431 683 452 l 724 431 q 737 444 727 431 q 705 485 718 479 q 678 467 682 467 m 841 485 l 841 471 l 850 476 l 855 467 l 855 463 q 850 458 855 458 l 855 449 q 832 431 854 442 l 827 431 q 846 449 832 449 q 837 458 846 458 l 827 435 l 823 435 q 805 444 823 444 q 832 485 805 485 l 841 485 m 180 399 l 175 399 l 170 417 q 184 458 170 437 l 180 458 q 111 349 119 458 l 111 345 q 211 122 111 227 q 261 100 241 100 q 342 122 342 115 q 379 159 342 128 l 379 163 q 288 227 288 163 q 283 267 283 230 q 293 367 283 298 q 239 467 293 456 l 229 467 q 180 399 180 467 m 810 449 l 823 449 l 823 458 l 819 458 q 810 449 810 456 m 370 453 l 374 444 q 356 435 363 435 l 356 426 q 393 394 393 426 l 393 390 q 383 380 393 380 l 356 380 l 356 376 l 366 358 q 347 331 355 331 l 329 331 q 307 353 323 331 l 307 372 l 311 372 q 334 336 311 347 l 338 336 q 352 349 345 336 l 352 353 q 329 399 352 370 q 307 390 314 390 q 302 394 307 394 l 302 390 q 297 240 297 269 q 338 181 297 181 q 374 177 355 177 q 361 245 366 199 q 370 281 370 279 l 366 290 q 425 399 366 350 q 370 453 409 453 m 21 431 l 25 431 q 30 426 30 431 l 39 431 l 62 408 l 53 394 l 57 385 l 48 380 l 43 380 q 35 394 35 380 l 25 394 l 25 385 l 30 376 l 21 376 q 12 394 21 394 l 7 394 l 7 404 q 16 426 16 415 l 21 426 q 30 412 21 412 l 30 417 l 21 431 m 334 422 q 329 404 334 412 q 370 385 358 385 q 383 390 378 390 q 338 422 383 422 l 334 422 m 819 426 l 823 426 q 827 422 827 426 l 837 426 l 841 426 l 832 408 l 841 408 l 841 422 l 846 422 q 855 399 846 410 l 855 390 q 841 376 841 390 l 841 372 l 832 372 l 837 380 l 837 390 l 832 390 l 832 376 q 827 380 827 376 l 819 376 l 810 376 l 810 390 l 814 390 l 814 380 q 823 390 823 380 l 823 394 l 814 390 l 810 399 l 819 399 l 819 404 l 810 404 q 805 399 810 399 l 805 412 q 819 426 819 412 m 12 399 l 25 399 l 25 408 l 21 408 q 12 399 12 406 m 30 408 l 30 399 q 48 385 37 399 l 48 390 q 39 408 39 401 l 30 408 m 30 372 q 57 363 40 363 l 57 353 l 48 358 q 30 349 37 349 l 30 340 q 48 331 37 340 q 57 340 50 340 l 57 326 q 39 317 39 326 l 30 317 q 7 353 7 328 l 21 345 l 25 345 q 12 353 25 353 l 12 358 q 30 372 18 358 m 560 127 l 560 132 l 569 145 l 569 154 q 542 140 553 154 l 547 118 l 547 59 q 601 14 547 18 q 783 177 703 43 q 805 267 805 231 l 805 277 q 755 345 798 345 l 751 336 l 751 290 l 746 290 q 696 363 746 363 q 601 191 628 363 q 560 127 577 132 m 53 353 l 53 340 l 39 340 l 39 349 q 53 353 44 349 m 406 336 l 411 336 q 420 263 411 273 l 411 263 q 401 304 401 292 l 401 313 l 406 336 m 574 331 q 560 254 574 308 l 587 199 l 592 199 l 606 277 q 574 331 589 323 m 16 308 l 25 308 q 30 304 30 308 l 39 308 l 48 308 q 62 286 48 297 l 53 281 l 48 281 l 53 290 l 43 290 l 43 286 l 53 272 l 53 267 l 48 258 l 39 263 q 21 258 31 258 l 16 267 q 21 272 21 267 q 7 281 7 272 l 7 290 q 16 308 16 290 m 21 304 l 21 299 q 30 290 22 290 l 30 294 q 21 304 30 304 m 832 290 l 832 286 q 841 294 841 286 l 841 299 q 832 290 832 298 m 12 286 q 21 277 13 277 l 25 286 l 12 286 m 506 250 l 506 245 q 483 145 506 215 q 515 132 493 132 l 515 136 q 538 109 532 109 l 533 140 l 533 145 q 551 163 533 152 l 555 163 l 578 159 l 578 163 q 565 172 578 172 q 524 159 526 159 q 560 181 536 181 l 574 181 l 583 177 l 583 181 q 511 250 560 250 l 506 250 m 21 250 l 30 250 l 43 240 l 39 231 l 39 227 l 48 227 l 48 222 l 39 222 l 39 213 l 53 213 l 48 222 l 57 222 l 57 213 l 53 204 l 43 208 l 39 208 l 39 199 l 35 199 l 35 213 l 30 213 q 25 199 30 208 l 7 208 l 12 218 q 7 236 7 226 q 21 250 21 236 m 25 245 l 25 240 q 35 231 27 231 l 35 236 q 25 245 35 245 m 43 245 l 53 245 q 57 231 53 240 l 48 227 q 43 245 48 237 m 374 240 l 374 227 l 388 150 q 374 136 381 150 q 379 132 379 136 q 352 100 352 121 l 383 127 l 388 127 l 366 100 l 366 95 l 370 95 q 425 109 385 109 q 411 140 411 125 l 415 163 q 379 240 379 222 l 374 240 m 827 245 l 837 245 q 855 231 837 231 l 855 222 l 846 227 l 837 227 l 837 222 l 850 222 q 846 218 850 218 l 850 208 l 850 199 q 837 191 837 199 l 823 191 l 823 199 l 832 195 l 832 208 l 837 208 l 846 204 l 846 208 l 837 213 l 819 199 l 814 208 q 832 222 832 208 q 819 231 819 222 q 827 240 820 240 l 827 227 l 832 227 l 832 240 q 827 245 827 240 m 16 186 l 30 186 q 43 163 36 163 l 53 163 l 53 168 q 35 186 35 168 l 39 186 q 48 177 48 184 q 43 172 43 177 l 57 172 l 57 159 q 48 154 48 159 q 53 140 53 145 l 43 136 q 39 140 43 140 l 43 150 l 43 154 l 39 154 q 30 140 39 140 l 30 154 q 21 140 21 154 l 16 140 q 7 159 16 148 l 7 168 q 16 177 16 168 l 25 172 l 30 172 q 16 181 30 181 l 16 186 m 814 181 l 846 181 l 846 172 l 841 163 l 850 163 l 850 159 l 837 159 l 837 154 l 850 154 q 855 159 850 159 l 855 154 l 832 127 l 827 136 l 837 136 l 837 140 q 827 150 837 150 l 827 136 l 814 136 l 805 140 l 810 150 l 805 159 l 819 159 l 819 163 l 805 163 q 800 159 805 159 l 800 168 q 814 181 814 168 m 425 154 l 420 136 q 425 122 425 127 q 438 145 435 122 l 425 154 m 25 127 l 48 122 l 39 109 l 39 104 q 48 118 48 104 l 53 118 l 53 104 q 48 100 48 104 q 57 91 57 98 q 39 77 39 88 l 35 77 q 16 95 35 95 l 16 86 l 25 91 q 35 73 25 83 l 21 73 q 7 86 21 81 q 12 100 12 95 q 3 109 3 100 q 25 127 15 111 m 823 122 l 837 122 q 855 100 837 112 l 846 95 l 850 86 l 850 77 q 837 68 837 77 l 823 68 l 823 73 l 832 73 l 832 77 q 823 86 832 86 l 823 77 l 814 81 q 810 77 814 77 l 805 86 l 805 91 q 810 95 805 95 q 805 109 805 104 l 805 113 l 810 113 q 819 100 810 100 l 819 104 l 810 118 l 814 118 l 823 113 l 823 122 m 832 91 q 841 81 833 81 l 846 81 q 837 91 846 91 l 832 91 m 21 68 l 30 64 l 39 68 q 57 50 39 50 l 57 36 l 48 36 l 48 32 l 53 22 l 43 18 l 30 18 l 30 32 q 21 22 21 31 l 21 18 l 30 18 l 30 14 l 16 14 q 3 41 16 26 q 16 54 16 41 l 25 50 l 25 59 l 21 59 l 12 54 l 12 64 q 21 68 21 64 m 30 50 l 43 41 l 53 41 l 53 45 q 39 59 39 45 q 30 50 30 58 m 75 64 l 84 64 q 98 45 98 64 q 107 54 107 45 l 98 54 q 107 64 99 64 l 111 54 l 111 41 l 102 41 l 102 32 l 116 41 l 121 41 l 121 36 q 107 18 107 25 q 98 32 98 18 l 94 32 l 94 22 q 102 14 102 21 l 98 14 q 62 36 72 14 l 62 41 l 71 36 l 84 36 l 84 41 l 66 41 l 66 45 q 75 64 75 45 m 80 59 l 80 54 q 89 45 81 45 l 89 50 q 80 59 89 59 m 153 64 l 157 64 q 180 45 179 52 q 175 41 180 41 l 180 32 l 180 22 q 148 9 161 22 q 134 27 141 27 q 130 22 134 22 l 125 32 l 125 36 l 134 32 l 143 32 l 143 36 l 130 36 q 134 41 130 41 l 130 50 l 130 54 l 143 45 l 143 50 q 134 59 134 50 l 139 59 l 148 54 q 153 59 148 59 l 153 50 l 157 50 l 157 59 q 153 64 153 59 m 202 64 q 220 45 220 59 l 229 45 l 229 54 l 220 54 l 220 59 l 234 59 q 243 32 234 42 q 224 27 235 27 l 229 18 l 220 14 l 216 14 q 211 18 211 14 l 202 14 q 184 36 196 14 l 184 41 l 202 32 l 202 41 l 189 41 l 189 45 q 202 64 199 45 m 275 64 l 279 64 l 302 45 l 297 36 q 302 22 302 28 l 293 18 l 288 18 l 293 27 l 293 32 l 283 32 l 288 22 q 279 9 279 22 l 275 9 l 248 32 l 248 36 l 261 27 l 266 36 l 252 36 q 256 41 252 41 l 252 50 l 252 54 l 275 36 l 279 36 l 279 41 q 256 59 266 41 l 261 59 l 270 54 q 275 59 270 59 l 275 45 l 279 45 l 279 59 q 275 64 275 59 m 325 64 q 342 50 342 57 l 342 41 l 334 41 l 334 36 l 342 36 l 347 45 q 366 32 366 39 q 347 27 357 27 q 352 22 347 22 q 347 9 347 14 q 334 18 334 14 l 325 14 l 320 14 l 329 27 l 325 27 q 315 18 325 18 q 307 36 315 25 l 307 41 l 311 41 l 325 32 l 329 41 l 315 41 l 325 64 m 401 64 l 425 45 l 420 36 q 425 22 425 28 l 411 32 l 406 32 q 411 27 406 27 q 397 9 404 9 l 388 9 q 374 22 388 22 l 374 27 q 388 36 388 27 l 383 36 l 370 27 l 370 32 q 379 41 371 41 l 374 50 q 383 59 376 59 l 393 54 q 401 64 394 64 m 342 59 l 356 59 l 356 45 l 352 45 q 342 54 352 54 l 342 59 m 442 59 l 456 59 l 456 54 l 447 54 l 447 45 l 456 45 l 456 54 l 465 54 l 465 41 q 469 45 469 41 q 488 32 488 39 l 474 22 q 469 27 474 27 l 469 22 l 474 22 q 469 9 469 14 l 465 9 q 456 18 456 9 l 447 14 l 438 14 l 438 18 l 442 27 q 429 36 429 27 q 442 59 442 48 m 465 59 l 479 59 l 479 45 l 474 45 q 465 54 474 54 l 465 59 m 764 59 l 769 59 q 791 41 791 47 q 787 36 791 36 l 791 27 l 791 18 l 773 18 l 760 27 l 760 14 l 769 18 l 769 9 l 755 9 q 737 22 755 22 l 737 36 l 746 36 l 741 45 l 741 54 l 755 54 l 755 50 l 746 50 q 755 41 747 41 l 760 41 l 755 50 l 764 54 l 764 41 l 769 41 l 769 54 q 764 59 764 54 m 814 59 l 841 59 l 841 54 l 832 54 l 832 45 l 846 54 l 846 50 l 841 41 q 855 32 855 41 q 841 14 844 32 l 837 14 q 827 27 837 27 l 827 14 l 837 14 l 837 9 l 823 9 q 819 22 823 14 q 823 27 823 22 l 819 27 l 810 22 q 800 32 810 32 l 800 45 q 814 59 814 45 m 819 54 q 805 41 819 41 l 805 36 l 819 36 l 823 45 l 823 54 l 819 54 m 383 50 l 383 45 q 393 32 393 45 q 401 41 401 32 q 383 50 395 41 m 497 27 l 511 27 l 511 36 l 506 36 q 497 27 497 35 m 741 32 l 741 27 l 755 27 l 755 36 q 741 32 747 32 m 773 32 l 773 22 l 787 22 q 778 32 787 32 l 773 32 z "},"B":{"ha":1234,"x_min":3,"x_max":1091,"o":"m 401 1163 q 518 1052 518 1137 q 433 983 518 1002 q 427 988 433 988 l 427 983 q 496 876 468 955 q 528 850 513 876 l 528 812 q 513 770 528 797 q 539 743 527 766 l 539 728 l 523 728 q 491 711 491 724 l 491 707 l 545 701 l 576 701 q 587 675 587 701 q 677 711 637 675 q 656 775 656 711 l 656 786 q 629 802 629 786 l 640 818 q 614 861 640 821 l 624 882 q 618 887 618 882 q 646 961 631 887 l 656 966 q 661 961 656 961 q 693 998 693 995 l 667 1015 q 672 1020 667 1020 q 661 1046 661 1037 q 714 1094 661 1085 q 873 1025 858 1041 l 943 983 q 969 945 969 966 l 964 945 l 943 961 l 937 961 l 937 929 q 922 913 937 922 q 879 983 922 958 q 847 956 864 956 l 847 929 q 858 919 849 919 q 863 924 858 924 l 868 913 l 868 908 l 858 908 q 863 892 863 898 q 852 855 863 855 l 858 844 l 858 833 q 842 807 858 807 l 842 802 q 858 786 842 794 q 905 865 864 786 l 948 887 q 975 871 975 880 l 975 861 q 927 696 948 696 l 927 690 q 975 637 975 673 q 905 547 956 547 l 890 547 q 810 568 871 547 l 810 563 q 879 531 843 532 q 884 536 879 536 q 932 499 884 526 l 932 505 q 927 520 927 515 l 932 520 l 943 515 q 969 542 943 522 l 975 542 l 975 531 q 1001 484 975 484 q 948 330 971 330 l 948 334 l 954 345 q 932 319 932 340 l 948 330 l 948 324 q 900 202 928 324 q 895 191 895 202 l 996 191 q 1081 170 1081 188 q 895 186 1013 186 l 873 170 l 873 175 q 927 334 902 220 q 879 255 888 334 q 821 170 848 170 l 821 149 q 964 64 821 115 l 975 64 q 1017 85 985 64 q 1070 111 1058 85 l 1065 111 q 1086 154 1065 115 q 1081 170 1081 164 q 1091 159 1091 168 q 1038 79 1076 79 q 975 53 1025 79 q 821 133 857 79 q 810 159 810 150 q 879 287 879 246 q 821 276 859 276 l 768 276 l 720 191 l 730 191 l 730 165 q 614 53 730 104 q 513 69 579 64 q 454 101 493 101 l 454 117 l 459 127 q 380 212 380 155 l 380 218 l 374 218 q 364 197 374 197 q 380 149 372 180 q 305 37 380 102 q 215 0 256 0 l 194 0 q 93 69 104 0 l 93 79 q 237 223 93 162 l 263 223 q 295 287 295 281 q 359 340 340 287 l 359 351 q 342 366 351 351 q 369 430 342 378 l 364 430 q 305 425 342 430 q 146 494 210 425 l 146 499 q 300 435 217 435 q 316 441 311 441 l 316 435 l 327 441 l 359 441 l 359 467 l 337 494 q 380 542 337 504 l 380 557 q 359 589 380 589 l 258 568 q 252 574 258 574 l 252 568 q 231 627 231 568 q 82 749 224 629 q 29 823 58 749 q 3 940 3 900 q 18 951 18 945 l 29 945 q 61 993 50 945 q 146 1046 100 1046 l 151 1046 q 220 951 206 1046 q 215 945 215 951 l 220 945 q 231 956 222 956 l 231 951 q 210 887 210 922 q 269 770 210 828 q 226 749 226 765 l 226 717 q 311 669 249 669 q 353 680 327 669 q 412 664 379 664 q 459 728 436 664 l 465 728 q 470 722 465 722 q 523 833 523 795 q 481 871 523 865 l 449 850 l 449 861 l 454 871 l 449 871 q 454 876 449 876 q 342 998 433 998 l 342 1004 q 305 977 309 993 l 305 961 l 311 951 l 305 951 l 284 966 l 263 966 q 231 956 248 966 l 231 961 q 364 1009 275 1009 l 364 1015 q 321 1078 337 1015 l 321 1094 q 401 1163 321 1140 m 672 1057 q 699 998 672 1024 q 736 1020 706 998 l 762 1020 q 842 966 796 1020 l 847 966 q 873 1004 873 974 l 873 1009 q 826 1041 867 1027 l 826 1036 q 831 1030 831 1036 l 826 1030 q 714 1084 741 1084 q 672 1057 686 1084 m 672 951 l 661 956 q 640 903 640 915 l 646 892 l 635 892 q 650 876 635 884 q 709 961 650 950 l 714 961 q 736 919 730 961 q 714 855 736 895 q 757 844 741 855 q 800 945 757 920 l 815 945 q 836 897 836 938 l 836 861 l 847 861 l 852 897 l 852 903 l 842 897 q 821 972 842 967 l 804 972 l 768 940 l 768 945 l 783 972 l 783 977 l 778 977 l 773 956 q 757 977 765 956 q 768 988 768 977 l 762 988 q 757 983 762 983 l 757 988 l 762 998 l 741 988 l 746 977 l 746 951 l 741 951 q 720 998 741 978 q 672 951 692 998 m 348 983 q 391 945 391 976 l 391 940 l 385 940 q 337 972 385 970 q 348 983 339 983 m 661 882 l 661 855 q 672 844 663 844 l 677 844 q 709 892 677 892 q 720 882 711 882 l 725 919 l 725 924 l 720 951 l 699 951 q 661 882 661 928 m 14 940 l 8 929 l 14 929 q 29 935 24 935 l 29 940 l 14 940 m 45 940 q 98 876 92 876 l 104 876 l 72 850 q 77 833 77 840 q 40 919 58 833 l 29 924 l 18 924 q 14 913 18 913 q 119 749 43 749 l 109 733 q 119 728 119 733 q 168 775 168 739 l 168 781 l 162 781 l 162 770 l 151 770 q 162 818 162 789 q 151 861 151 852 q 183 897 156 861 l 183 924 q 173 929 173 924 q 130 861 130 929 l 125 861 q 87 908 113 908 l 93 919 l 61 940 l 45 940 m 258 945 l 263 945 q 247 908 247 926 q 252 892 252 898 l 241 892 l 241 929 q 258 945 241 937 m 800 940 q 768 876 776 913 q 800 861 800 876 l 800 850 q 789 818 800 836 l 800 818 q 826 871 826 830 l 826 908 q 800 940 826 940 m 353 935 q 412 833 392 935 q 406 829 406 833 q 422 818 422 829 l 417 818 l 395 823 l 380 823 l 380 818 q 422 791 422 818 q 364 749 405 749 q 332 770 342 749 l 332 781 l 337 791 l 332 791 q 321 781 332 781 q 284 823 321 789 q 273 871 273 858 l 273 882 q 300 913 273 913 q 342 812 342 874 l 369 829 q 337 903 337 874 l 337 929 q 353 935 343 929 m 342 924 l 342 919 q 353 865 342 908 l 380 871 q 395 844 395 871 l 401 844 l 401 855 q 342 924 382 924 m 56 908 l 56 897 l 61 861 l 66 861 l 82 871 q 56 908 68 905 m 284 892 l 284 871 q 295 823 284 858 l 300 823 q 311 844 300 844 l 321 844 l 332 839 l 332 844 q 295 903 310 903 q 284 892 284 901 m 162 855 q 178 775 171 827 q 173 770 173 775 l 178 770 l 173 760 l 173 749 q 220 707 195 718 l 215 717 l 215 739 l 220 765 q 189 833 189 788 l 189 876 l 162 855 m 624 865 l 624 861 l 635 865 l 646 861 q 640 876 640 871 l 635 876 q 624 865 624 875 m 911 802 l 922 807 q 927 802 922 802 q 954 876 927 846 l 943 876 q 911 802 925 876 m 922 871 l 868 781 l 873 770 l 868 770 q 821 797 821 793 q 804 791 810 791 l 804 775 q 858 701 842 775 q 895 637 874 696 l 932 632 l 937 632 q 905 685 924 685 q 969 865 947 721 l 969 871 l 964 871 q 927 781 950 871 l 922 781 l 922 797 l 900 797 l 890 791 l 890 802 q 922 865 902 802 q 927 871 927 865 l 922 871 m 640 855 l 656 833 l 656 823 l 640 802 l 640 797 l 693 797 q 800 765 743 797 l 804 765 l 804 770 l 794 770 l 794 786 q 826 823 826 810 q 789 807 806 807 q 720 844 743 844 q 672 833 701 833 q 650 855 650 839 l 640 855 m 836 855 l 831 844 l 836 844 q 842 850 836 850 q 847 844 842 844 l 847 850 l 836 855 m 629 850 l 629 844 l 646 833 l 646 839 l 629 850 m 831 829 q 847 823 837 829 l 847 839 l 842 839 q 831 829 831 838 m 77 829 l 93 829 q 136 775 136 808 l 136 770 l 130 770 q 77 823 130 806 l 77 829 m 359 818 l 353 807 q 369 812 363 812 l 369 818 l 359 818 m 465 818 l 486 818 q 502 802 494 818 l 496 802 l 481 812 q 449 722 481 779 q 395 669 437 669 l 342 696 l 342 690 q 279 717 307 697 l 279 701 l 273 701 l 273 739 l 295 743 l 284 728 q 348 701 284 710 q 475 797 440 701 l 475 812 l 465 812 l 465 818 m 359 791 l 369 786 q 385 802 377 786 l 385 807 l 374 807 q 359 791 367 807 m 682 812 l 709 812 q 778 786 778 802 l 773 786 q 693 807 736 802 q 688 802 693 802 l 688 807 l 677 802 l 672 802 q 682 812 673 812 m 677 786 l 677 754 q 688 743 679 743 l 682 733 q 736 711 682 718 q 773 770 773 734 l 736 781 q 725 770 736 770 l 714 770 l 714 786 l 677 786 m 916 775 l 916 770 q 895 711 895 742 l 890 711 l 890 733 q 916 775 890 761 m 507 765 q 470 711 507 757 l 470 701 l 481 701 q 528 739 481 739 l 528 743 q 507 765 528 752 m 667 765 l 667 739 l 672 739 l 672 765 l 667 765 m 778 760 q 773 743 778 754 l 778 743 l 783 754 l 783 760 l 778 760 m 778 728 l 778 722 q 794 711 794 722 l 804 717 l 810 717 l 847 685 l 847 680 l 858 680 l 858 685 q 826 760 849 696 q 778 728 791 760 m 672 733 l 672 722 q 714 701 698 701 l 725 701 l 725 707 q 677 733 677 707 l 672 733 m 417 711 l 422 701 l 422 696 l 412 701 l 406 701 l 380 696 l 380 690 q 391 680 381 680 l 395 680 q 438 717 438 684 l 427 717 l 417 711 m 773 717 q 768 711 773 711 q 794 659 779 659 l 800 659 l 800 680 l 794 690 l 800 690 q 773 717 800 705 m 804 707 l 810 669 l 810 664 l 804 653 l 810 653 q 821 664 821 653 l 821 696 q 810 707 821 707 l 804 707 m 486 701 l 486 685 l 491 685 q 502 696 502 685 q 486 701 496 696 m 656 680 q 667 659 667 680 l 672 659 q 688 696 675 696 q 693 690 688 690 l 693 696 l 682 701 q 656 680 656 687 m 730 675 l 736 675 q 762 685 736 685 l 762 701 q 730 675 730 684 m 454 696 l 454 685 l 475 685 l 475 690 l 454 696 m 534 690 l 534 685 q 550 669 534 677 l 555 680 l 555 690 l 534 690 m 560 690 q 555 664 560 664 q 571 643 563 643 q 582 685 571 652 l 571 690 l 560 690 m 699 690 l 699 669 l 693 669 l 693 680 q 677 653 686 680 l 682 643 l 677 632 l 699 621 q 725 690 725 683 l 699 690 m 502 685 l 502 675 q 513 664 513 675 l 539 664 q 513 685 538 671 l 502 685 m 831 685 q 826 648 831 669 l 842 648 l 842 675 q 831 685 842 685 m 395 643 l 395 653 l 385 653 l 395 637 l 395 632 l 380 632 l 380 653 l 369 653 l 369 627 l 380 632 l 380 627 l 364 595 l 369 595 q 380 606 371 606 l 380 600 l 374 589 q 395 584 387 589 q 406 595 397 595 l 412 595 q 385 574 401 574 q 391 547 391 565 l 401 552 l 406 552 q 380 505 380 524 q 433 526 426 526 q 380 499 433 513 l 353 505 l 348 494 l 348 484 l 374 478 l 380 478 q 523 557 406 478 l 523 563 l 534 557 q 608 574 569 574 l 608 579 q 582 595 608 588 q 481 557 570 595 q 582 600 536 600 l 582 606 q 571 627 571 606 q 444 579 512 616 q 560 632 510 632 l 560 637 q 539 659 560 646 l 528 659 q 502 632 505 632 l 496 632 q 475 637 485 632 q 422 600 467 637 l 417 600 q 475 643 452 643 q 470 669 470 652 q 454 664 460 664 l 449 664 l 449 669 q 470 675 452 669 l 470 680 l 465 680 q 395 643 458 680 m 714 637 l 720 637 q 730 648 722 648 l 730 643 q 699 584 699 606 q 746 526 699 526 q 736 515 746 515 l 730 515 q 693 563 693 535 l 677 563 q 629 531 642 531 q 624 536 629 536 q 608 452 624 465 q 672 420 627 420 l 677 420 q 730 435 730 420 l 741 430 q 826 520 826 475 l 826 547 q 794 563 812 547 l 773 552 l 773 563 q 810 579 810 574 q 905 552 849 563 q 911 557 905 557 l 911 552 q 948 584 935 561 q 916 589 924 584 l 916 584 q 868 606 878 606 q 863 600 868 600 l 858 627 l 858 648 l 852 648 l 836 637 l 831 637 q 821 648 821 637 q 757 600 785 648 l 762 574 l 762 557 q 746 526 762 530 l 751 552 l 751 584 l 741 579 l 741 584 q 768 659 768 628 l 768 680 q 714 637 734 680 m 863 680 l 863 675 q 868 659 868 664 l 873 659 l 873 664 q 868 680 868 674 l 863 680 m 932 680 l 932 675 q 948 632 948 644 l 954 632 q 964 648 964 632 q 932 680 963 660 m 486 675 l 486 659 q 502 643 486 651 l 507 643 q 491 675 507 670 l 486 675 m 629 616 l 629 589 l 618 574 l 618 552 q 635 542 618 542 q 672 621 665 542 q 656 675 656 663 l 646 675 q 629 616 629 675 m 273 664 l 273 659 q 252 579 273 605 l 258 579 q 290 659 284 579 l 279 664 l 273 664 m 321 664 q 311 589 321 623 l 327 589 l 332 616 l 332 637 l 327 664 l 321 664 m 337 664 l 337 659 l 342 632 q 337 595 337 611 l 359 595 l 364 621 l 364 627 l 353 664 l 337 664 m 295 659 l 295 637 q 279 584 295 612 l 300 584 l 316 643 q 311 659 311 653 l 295 659 m 449 664 q 401 621 449 659 l 395 621 q 449 664 427 664 m 576 627 q 614 589 578 613 l 618 600 l 618 648 l 624 659 q 576 627 588 644 m 783 653 l 773 637 l 778 637 l 789 653 l 783 653 m 863 653 l 863 648 q 937 611 895 611 l 964 616 l 964 627 l 937 621 l 922 621 q 863 653 898 621 m 237 627 l 237 621 q 241 616 237 616 l 237 606 l 237 595 q 247 584 238 584 l 263 621 l 237 627 m 868 627 l 868 621 q 932 595 898 595 l 959 600 l 959 606 l 943 606 q 927 600 937 606 q 868 627 899 606 m 677 616 l 672 589 q 677 584 677 589 q 672 579 672 584 l 688 568 l 693 616 l 677 616 m 438 579 l 444 579 q 412 552 444 571 l 406 552 q 438 579 406 560 m 597 568 l 597 563 q 603 547 603 553 l 608 547 l 608 563 l 597 568 m 369 467 l 369 441 l 380 441 q 359 382 380 431 l 364 382 q 369 388 369 382 q 444 345 408 376 q 470 398 444 376 l 470 388 q 502 404 490 404 l 507 404 l 507 398 q 475 377 486 398 l 502 377 q 582 420 553 377 q 576 441 576 429 l 566 435 l 560 435 q 592 520 592 486 l 592 563 l 587 563 q 395 467 540 563 l 369 467 m 82 557 l 87 557 q 141 510 102 557 l 141 505 q 82 557 137 505 m 475 557 l 481 557 q 449 536 470 536 q 475 557 449 544 m 587 456 l 587 409 q 513 361 585 393 q 502 319 502 323 q 629 281 524 281 q 693 244 663 274 l 720 287 q 714 292 714 287 l 725 292 q 629 420 656 349 q 597 446 624 420 q 618 542 614 467 l 614 542 q 587 456 606 542 m 444 536 l 449 536 q 438 526 449 526 l 433 526 q 444 536 435 536 m 374 526 l 364 510 l 374 505 q 380 526 374 517 l 374 526 m 836 526 l 842 515 q 815 473 830 515 q 677 409 755 409 l 672 409 l 646 414 q 821 281 696 281 q 884 298 833 281 l 884 308 l 873 308 l 900 340 q 937 356 918 340 l 937 345 q 969 425 969 345 l 975 425 l 975 409 l 980 409 q 991 473 987 458 l 985 473 q 980 467 985 467 q 964 520 980 475 q 969 526 969 520 l 964 526 q 948 494 948 520 l 937 499 l 937 494 q 964 478 937 481 l 964 473 q 959 467 964 467 l 964 456 l 964 452 q 847 526 904 526 l 836 526 m 353 377 l 353 366 q 364 356 355 356 l 369 356 l 374 377 l 353 377 m 459 372 q 417 319 459 324 l 395 319 l 380 271 q 395 250 395 271 l 401 250 q 449 319 408 319 l 470 366 l 459 372 m 417 356 q 406 334 417 347 l 406 330 l 427 330 q 438 340 438 330 l 417 356 m 496 308 q 502 266 502 302 l 507 266 l 507 308 l 496 308 m 422 298 l 417 287 q 433 292 427 292 l 433 298 l 422 298 m 486 292 q 491 276 491 282 l 496 276 l 496 298 l 486 292 m 736 292 q 618 170 661 170 q 465 122 558 143 l 465 111 q 502 96 465 102 q 624 64 502 75 q 725 170 725 125 q 709 191 717 191 q 688 165 699 167 l 682 165 q 762 281 762 271 q 736 292 753 281 m 427 287 l 422 260 l 422 250 q 433 239 424 239 l 427 250 q 433 281 427 254 l 433 287 l 427 287 m 475 287 q 470 266 475 275 l 475 266 l 470 255 l 470 244 l 481 244 q 475 250 481 250 l 481 276 l 481 287 l 475 287 m 438 271 l 438 239 l 449 239 l 449 281 q 438 271 438 280 m 459 281 l 454 244 l 454 239 l 465 239 l 465 281 l 459 281 m 295 276 l 295 255 l 300 255 q 311 276 300 263 l 295 276 m 576 276 l 576 266 q 603 271 585 271 l 603 276 l 576 276 m 486 271 l 486 250 l 491 250 l 491 271 l 486 271 m 491 234 l 502 234 q 523 266 502 244 l 523 271 q 491 234 500 258 m 523 149 l 528 149 q 677 229 677 191 q 682 234 682 229 l 682 239 q 618 271 667 271 q 523 149 523 242 m 311 266 q 290 191 290 199 l 300 191 q 321 260 300 205 l 311 266 m 534 266 l 513 239 l 518 239 l 539 266 l 534 266 m 550 266 l 523 234 l 528 234 l 555 266 l 550 266 m 369 260 l 374 250 q 348 191 374 235 l 353 191 q 385 260 385 241 l 369 260 m 327 250 q 305 191 327 244 l 316 186 l 321 186 q 348 250 321 200 l 327 250 m 353 250 q 332 186 353 247 q 369 250 339 186 l 353 250 m 550 250 l 539 234 l 545 234 l 555 250 l 550 250 m 290 244 q 273 218 290 235 l 273 202 q 295 239 282 202 l 295 244 l 290 244 m 401 244 q 391 212 391 227 l 391 202 q 496 143 391 170 l 502 143 q 518 149 512 149 l 513 159 q 528 212 518 194 q 507 223 507 212 l 496 218 l 491 218 l 481 223 q 459 175 459 189 q 454 170 454 175 q 433 175 445 175 l 433 186 q 449 234 433 195 l 433 234 q 401 244 418 234 m 449 207 l 459 207 q 470 234 459 216 l 465 234 q 449 207 452 234 m 237 218 l 237 212 l 269 197 l 269 202 l 237 218 m 226 212 l 226 202 l 237 197 l 241 197 l 241 202 q 231 212 231 202 l 226 212 m 199 197 l 199 191 q 220 197 208 197 l 220 207 l 210 207 q 199 197 199 205 m 438 191 l 438 180 l 449 180 q 454 202 449 193 l 449 202 q 438 191 438 200 m 136 149 l 146 154 l 173 154 l 183 149 l 178 159 q 199 175 178 173 q 215 170 210 170 l 215 186 q 194 191 194 186 q 136 149 160 175 m 273 191 q 284 180 275 180 l 290 180 q 279 191 290 191 l 273 191 m 327 180 q 348 127 348 143 l 348 122 q 332 106 348 115 q 305 149 313 149 q 295 127 305 127 l 290 127 l 279 133 q 273 127 279 127 l 284 106 q 258 96 271 96 q 273 47 267 47 q 369 165 369 99 l 359 186 q 327 180 351 180 m 300 180 l 300 175 q 321 154 321 175 l 327 154 l 327 170 q 305 180 318 170 l 300 180 m 258 175 l 258 170 q 295 143 262 170 l 295 154 q 258 175 288 154 m 220 170 l 220 165 q 269 133 235 165 q 279 143 279 133 q 226 170 248 170 l 220 170 m 300 170 l 300 165 l 316 154 l 316 159 l 300 170 m 205 159 l 205 154 q 263 111 224 154 l 263 122 q 215 159 256 137 l 205 159 m 199 149 l 199 143 q 247 111 211 143 l 247 117 l 205 149 l 199 149 m 327 149 l 327 138 q 332 122 332 127 l 342 127 q 327 149 334 149 m 104 90 q 183 26 104 37 l 189 26 q 258 37 205 26 l 258 47 q 151 143 258 136 l 146 143 q 104 90 113 143 m 449 143 l 449 138 q 470 133 460 138 l 475 133 l 475 138 q 459 143 470 138 l 449 143 m 332 79 q 263 32 301 40 l 263 21 q 337 79 318 51 l 332 79 m 109 47 l 109 43 q 178 11 138 11 l 199 11 q 258 26 258 11 q 194 16 221 16 l 189 16 q 109 47 152 16 z "}}}
